<svg xmlns="http://www.w3.org/2000/svg" xmlns:xlink="http://www.w3.org/1999/xlink" width="500" zoomAndPan="magnify" viewBox="0 0 375 374.999991" height="500" preserveAspectRatio="xMidYMid meet" version="1.0"><defs><clipPath id="1692270ebd"><path d="M 64.230469 280 L 108 280 L 108 323 L 64.230469 323 Z M 64.230469 280 " clip-rule="nonzero"/></clipPath><clipPath id="56692433b0"><path d="M 190 311 L 241 311 L 241 344.066406 L 190 344.066406 Z M 190 311 " clip-rule="nonzero"/></clipPath></defs><rect x="-37.5" width="450" fill="#ffffff" y="-37.499999" height="449.999989" fill-opacity="1"/><rect x="-37.5" width="450" fill="#ffffff" y="-37.499999" height="449.999989" fill-opacity="1"/><path fill="#ff89a9" d="M 302.996094 177.667969 C 302.160156 180.050781 300.671875 182.339844 298.597656 184.332031 C 291.921875 190.765625 245.699219 199.121094 228.328125 202.070312 C 224.238281 202.765625 221.746094 203.160156 221.746094 203.160156 L 208.648438 184.570312 C 208.648438 184.570312 277.007812 156 291.417969 159.835938 C 302.210938 162.714844 305.5 170.574219 302.996094 177.667969 Z M 302.996094 177.667969 " fill-opacity="1" fill-rule="nonzero"/><path fill="#ff89a9" d="M 302.996094 177.667969 C 302.160156 180.050781 300.671875 182.339844 298.597656 184.332031 C 291.921875 190.765625 245.699219 199.121094 228.328125 202.070312 C 228.035156 197.328125 227.601562 191.851562 227.601562 191.851562 C 227.601562 191.851562 283.492188 184.941406 295.949219 178.828125 C 298.027344 177.8125 300.460938 177.476562 302.996094 177.667969 Z M 302.996094 177.667969 " fill-opacity="1" fill-rule="nonzero"/><path fill="#2b2b2b" d="M 209.484375 184.816406 C 213.929688 190.796875 218.234375 196.640625 222.457031 202.660156 L 221.609375 202.300781 L 221.613281 202.300781 C 229.636719 200.152344 237.765625 198.675781 245.890625 197.175781 C 254.011719 195.648438 262.113281 194.023438 270.152344 192.183594 C 274.171875 191.257812 278.171875 190.277344 282.128906 189.183594 C 286.078125 188.089844 290.023438 186.902344 293.679688 185.339844 C 294.152344 185.15625 294.570312 184.925781 295.011719 184.71875 C 295.226562 184.609375 295.453125 184.507812 295.65625 184.394531 L 296.25 184.039062 C 296.4375 183.917969 296.664062 183.808594 296.816406 183.679688 L 297.285156 183.308594 C 297.445312 183.203125 297.613281 183.023438 297.78125 182.855469 C 297.945312 182.683594 298.121094 182.523438 298.273438 182.34375 C 299.550781 180.945312 300.601562 179.351562 301.285156 177.628906 C 301.984375 175.914062 302.28125 174.066406 302.148438 172.273438 C 302.015625 170.476562 301.375 168.761719 300.375 167.253906 C 299.355469 165.761719 297.949219 164.507812 296.339844 163.519531 C 294.714844 162.546875 292.910156 161.820312 291.023438 161.300781 C 290.222656 161.085938 289.277344 160.996094 288.316406 160.984375 C 287.355469 160.976562 286.367188 161.011719 285.371094 161.109375 C 283.386719 161.28125 281.375 161.609375 279.375 161.984375 C 275.375 162.75 271.382812 163.761719 267.417969 164.859375 C 263.453125 165.960938 259.511719 167.167969 255.578125 168.429688 C 247.722656 170.957031 239.910156 173.664062 232.148438 176.511719 C 228.269531 177.933594 224.394531 179.386719 220.535156 180.871094 L 214.746094 183.101562 L 211.859375 184.234375 L 210.417969 184.804688 L 209.339844 185.238281 L 209.070312 185.34375 C 209.082031 185.339844 208.976562 185.382812 209.085938 185.335938 C 209.277344 185.246094 209.453125 185.007812 209.484375 184.816406 Z M 207.8125 184.332031 C 207.875 184.128906 208.082031 183.878906 208.296875 183.78125 L 208.402344 183.734375 L 208.492188 183.695312 L 208.671875 183.621094 L 209.03125 183.464844 L 209.746094 183.160156 L 211.175781 182.554688 L 214.046875 181.355469 L 219.796875 178.992188 C 223.640625 177.4375 227.496094 175.914062 231.363281 174.421875 C 239.101562 171.441406 246.882812 168.554688 254.761719 165.921875 C 258.703125 164.613281 262.664062 163.355469 266.664062 162.199219 C 270.667969 161.046875 274.703125 159.976562 278.820312 159.140625 C 280.882812 158.734375 282.960938 158.367188 285.097656 158.15625 C 286.164062 158.046875 287.25 157.988281 288.355469 157.988281 C 289.464844 157.996094 290.597656 158.070312 291.804688 158.375 C 293.917969 158.929688 295.996094 159.730469 297.9375 160.871094 C 299.867188 162.023438 301.644531 163.550781 302.980469 165.46875 C 304.304688 167.386719 305.160156 169.675781 305.335938 172.011719 C 305.519531 174.347656 305.132812 176.699219 304.277344 178.816406 C 303.441406 180.949219 302.175781 182.867188 300.671875 184.53125 C 300.488281 184.746094 300.28125 184.9375 300.089844 185.136719 C 299.894531 185.339844 299.710938 185.539062 299.445312 185.738281 L 298.699219 186.332031 C 298.453125 186.527344 298.207031 186.648438 297.960938 186.804688 L 297.21875 187.25 C 296.972656 187.386719 296.726562 187.5 296.480469 187.625 C 295.988281 187.863281 295.492188 188.128906 294.996094 188.324219 C 291.039062 190.03125 287.039062 191.234375 283.019531 192.371094 C 278.996094 193.496094 274.960938 194.5 270.910156 195.445312 C 262.8125 197.332031 254.679688 198.992188 246.53125 200.550781 C 238.386719 202.121094 230.210938 203.53125 221.882812 204.023438 L 221.347656 204.109375 L 221.035156 203.664062 C 216.527344 197.289062 212.101562 190.742188 207.8125 184.332031 Z M 207.8125 184.332031 " fill-opacity="1" fill-rule="nonzero"/><path fill="#ff89a9" d="M 302.171875 184.230469 C 292.121094 194.75 280.148438 188.808594 280.148438 188.808594 L 279.003906 187.789062 C 278.011719 186.902344 277.078125 185.980469 276.203125 185.019531 C 270.523438 178.773438 267.292969 170.996094 267.128906 162.964844 C 267.128906 162.964844 278.640625 152.976562 292.007812 154.152344 C 293.949219 154.320312 295.761719 154.855469 297.394531 155.675781 C 307.007812 160.5 310.753906 175.238281 302.171875 184.230469 Z M 302.171875 184.230469 " fill-opacity="1" fill-rule="nonzero"/><path fill="#ff89a9" d="M 302.171875 184.230469 C 292.121094 194.75 280.148438 188.808594 280.148438 188.808594 L 279.003906 187.789062 C 278.011719 186.902344 277.078125 185.980469 276.203125 185.019531 L 276.609375 184.15625 C 276.609375 184.15625 285.335938 186.058594 294.277344 180.96875 C 301.632812 176.785156 300.671875 163.664062 297.394531 155.675781 C 307.007812 160.5 310.753906 175.238281 302.171875 184.230469 Z M 302.171875 184.230469 " fill-opacity="1" fill-rule="nonzero"/><path fill="#2b2b2b" d="M 267.699219 163.621094 C 268.296875 162.277344 267.863281 163.25 268 162.953125 L 268 163.003906 L 268.003906 163.058594 L 268.007812 163.171875 L 268.019531 163.398438 L 268.039062 163.851562 C 268.058594 164.152344 268.0625 164.457031 268.09375 164.757812 C 268.160156 165.359375 268.203125 165.960938 268.289062 166.5625 C 268.464844 167.757812 268.691406 168.949219 269 170.117188 C 269.609375 172.460938 270.484375 174.734375 271.597656 176.886719 C 272.707031 179.042969 274.050781 181.078125 275.585938 182.957031 C 276.355469 183.898438 277.171875 184.796875 278.027344 185.660156 C 278.890625 186.515625 279.789062 187.328125 280.726562 188.160156 L 280.535156 188.03125 C 281.320312 188.285156 282.222656 188.519531 283.085938 188.679688 C 283.960938 188.855469 284.84375 188.964844 285.71875 189.039062 C 287.476562 189.175781 289.226562 189.082031 290.925781 188.789062 C 292.636719 188.511719 294.246094 187.882812 295.808594 187.160156 L 296.929688 186.515625 L 297.496094 186.195312 L 298.019531 185.808594 L 299.070312 185.035156 C 299.25 184.917969 299.410156 184.769531 299.566406 184.613281 L 300.050781 184.164062 C 302.71875 181.890625 304.476562 178.800781 305.171875 175.421875 C 305.886719 172.046875 305.46875 168.441406 304.167969 165.222656 C 302.832031 162.027344 300.628906 159.128906 297.679688 157.363281 C 296.214844 156.476562 294.597656 155.835938 292.90625 155.554688 C 292.476562 155.507812 292.070312 155.410156 291.617188 155.402344 L 290.285156 155.335938 L 289.613281 155.304688 C 289.394531 155.300781 289.167969 155.320312 288.945312 155.328125 L 287.601562 155.390625 C 280.449219 155.964844 273.460938 159.222656 267.699219 163.621094 Z M 266.558594 162.308594 C 269.519531 159.777344 272.761719 157.761719 276.253906 156.117188 C 277.132812 155.722656 278.007812 155.320312 278.917969 154.996094 C 279.8125 154.628906 280.742188 154.351562 281.664062 154.0625 C 282.121094 153.90625 282.601562 153.800781 283.070312 153.6875 L 284.492188 153.355469 L 285.941406 153.128906 C 286.421875 153.066406 286.898438 152.957031 287.394531 152.945312 L 288.863281 152.847656 C 289.109375 152.835938 289.351562 152.808594 289.59375 152.808594 L 290.332031 152.828125 L 291.808594 152.871094 C 292.300781 152.875 292.816406 152.976562 293.316406 153.027344 C 295.332031 153.324219 297.285156 154.046875 299.042969 155.070312 C 300.808594 156.089844 302.371094 157.4375 303.664062 158.988281 C 304.96875 160.53125 306.03125 162.273438 306.796875 164.132812 C 308.328125 167.847656 308.847656 172.011719 308.035156 176 C 307.636719 177.988281 306.921875 179.921875 305.90625 181.691406 C 304.902344 183.453125 303.566406 185.070312 302.074219 186.367188 L 301.523438 186.878906 C 301.347656 187.054688 301.164062 187.222656 300.957031 187.367188 L 299.746094 188.269531 L 299.140625 188.71875 L 298.484375 189.097656 L 297.167969 189.859375 C 296.714844 190.085938 296.242188 190.269531 295.777344 190.46875 L 295.074219 190.761719 C 294.839844 190.851562 294.589844 190.914062 294.347656 190.988281 C 293.859375 191.128906 293.375 191.285156 292.882812 191.410156 L 291.386719 191.667969 C 289.382812 191.941406 287.347656 191.902344 285.382812 191.550781 C 284.40625 191.371094 283.441406 191.132812 282.507812 190.808594 C 281.558594 190.492188 280.679688 190.105469 279.757812 189.582031 L 279.632812 189.511719 L 279.566406 189.453125 C 278.644531 188.636719 277.699219 187.78125 276.796875 186.882812 C 275.898438 185.980469 275.042969 185.039062 274.238281 184.054688 C 272.625 182.082031 271.214844 179.945312 270.046875 177.679688 C 268.878906 175.414062 267.957031 173.019531 267.3125 170.550781 C 266.988281 169.316406 266.75 168.058594 266.566406 166.796875 C 266.472656 166.164062 266.425781 165.527344 266.355469 164.894531 C 266.328125 164.574219 266.320312 164.253906 266.304688 163.9375 L 266.277344 163.457031 L 266.265625 163.21875 L 266.261719 163.097656 L 266.261719 163.039062 L 266.257812 163.007812 L 266.257812 162.984375 C 266.394531 162.6875 265.960938 163.660156 266.558594 162.308594 Z M 266.558594 162.308594 " fill-opacity="1" fill-rule="nonzero"/><path fill="#ff89a9" d="M 165.238281 171.953125 L 151.589844 180.339844 L 145.863281 183.859375 C 145.863281 183.859375 111.578125 162.214844 93.417969 147.292969 C 87.804688 142.6875 83.738281 138.714844 82.6875 136.222656 C 78.238281 125.660156 84.203125 114.378906 98.957031 116.542969 C 113.710938 118.710938 165.238281 171.953125 165.238281 171.953125 Z M 165.238281 171.953125 " fill-opacity="1" fill-rule="nonzero"/><path fill="#ff89a9" d="M 151.589844 180.339844 L 145.863281 183.859375 C 145.863281 183.859375 111.578125 162.214844 93.417969 147.292969 L 103.566406 145.421875 C 103.566406 145.421875 135.726562 169.964844 151.589844 180.339844 Z M 151.589844 180.339844 " fill-opacity="1" fill-rule="nonzero"/><path fill="#2b2b2b" d="M 166.101562 172.0625 C 159.628906 176.257812 152.980469 180.523438 146.320312 184.597656 L 145.859375 184.878906 L 145.402344 184.589844 C 138.347656 180.226562 131.390625 175.730469 124.472656 171.15625 C 117.558594 166.582031 110.710938 161.894531 103.992188 157.015625 C 100.636719 154.574219 97.308594 152.078125 94.046875 149.484375 C 90.789062 146.878906 87.574219 144.21875 84.613281 141.128906 C 84.230469 140.757812 83.886719 140.324219 83.527344 139.917969 C 83.347656 139.707031 83.167969 139.511719 82.996094 139.292969 L 82.496094 138.605469 C 82.332031 138.367188 82.15625 138.164062 82.003906 137.894531 L 81.5625 137.078125 C 81.402344 136.800781 81.3125 136.546875 81.210938 136.285156 C 81.117188 136.027344 81 135.773438 80.921875 135.507812 C 80.195312 133.410156 79.785156 131.175781 79.851562 128.910156 C 79.894531 126.652344 80.449219 124.371094 81.523438 122.324219 C 82.589844 120.265625 84.25 118.523438 86.191406 117.28125 C 88.152344 116.050781 90.363281 115.339844 92.578125 115.03125 C 94.796875 114.738281 97.015625 114.804688 99.171875 115.113281 C 100.394531 115.300781 101.464844 115.675781 102.484375 116.097656 C 103.5 116.527344 104.480469 117 105.417969 117.519531 C 107.300781 118.539062 109.074219 119.6875 110.816406 120.863281 C 117.742188 125.625 124.101562 131 130.324219 136.511719 C 136.535156 142.027344 142.601562 147.695312 148.496094 153.53125 C 151.445312 156.445312 154.402344 159.355469 157.28125 162.339844 L 161.601562 166.8125 L 163.742188 169.070312 L 164.804688 170.207031 L 165.335938 170.773438 L 165.597656 171.0625 L 165.730469 171.203125 L 165.796875 171.277344 L 165.875 171.363281 C 166.035156 171.539062 166.125 171.851562 166.101562 172.0625 Z M 164.375 171.84375 C 164.324219 172.03125 164.394531 172.320312 164.53125 172.472656 C 164.613281 172.5625 164.535156 172.480469 164.542969 172.492188 L 164.472656 172.421875 L 164.335938 172.289062 L 164.058594 172.019531 L 163.503906 171.476562 L 162.390625 170.398438 L 160.164062 168.238281 L 155.695312 163.9375 C 152.695312 161.089844 149.726562 158.210938 146.707031 155.390625 C 140.664062 149.75 134.609375 144.125 128.402344 138.691406 C 125.296875 135.972656 122.144531 133.316406 118.953125 130.71875 C 115.765625 128.121094 112.519531 125.597656 109.15625 123.289062 C 107.476562 122.140625 105.769531 121.035156 104.015625 120.078125 C 103.144531 119.59375 102.253906 119.164062 101.367188 118.78125 C 100.480469 118.40625 99.578125 118.109375 98.746094 117.976562 C 96.808594 117.695312 94.851562 117.636719 92.960938 117.875 C 91.078125 118.136719 89.273438 118.722656 87.710938 119.695312 C 86.167969 120.679688 84.875 122.027344 84.023438 123.652344 C 83.171875 125.269531 82.703125 127.109375 82.664062 128.988281 C 82.601562 130.871094 82.9375 132.773438 83.558594 134.589844 C 83.628906 134.816406 83.730469 135.039062 83.8125 135.261719 C 83.898438 135.488281 83.980469 135.722656 84.089844 135.886719 L 84.382812 136.441406 C 84.476562 136.628906 84.644531 136.820312 84.769531 137.007812 L 85.175781 137.582031 C 85.320312 137.773438 85.488281 137.957031 85.644531 138.144531 C 85.964844 138.515625 86.261719 138.898438 86.617188 139.253906 C 89.359375 142.171875 92.507812 144.847656 95.6875 147.441406 C 98.882812 150.03125 102.160156 152.535156 105.472656 154.996094 C 118.769531 164.785156 132.484375 174.074219 146.328125 183.121094 L 146.332031 183.121094 L 145.414062 183.113281 C 151.664062 179.253906 157.929688 175.585938 164.375 171.84375 Z M 164.375 171.84375 " fill-opacity="1" fill-rule="nonzero"/><path fill="#ff89a9" d="M 120.039062 129.011719 C 116.804688 136.140625 110.984375 141.902344 103.570312 145.421875 C 102.207031 146.070312 100.792969 146.636719 99.328125 147.132812 L 97.875 147.613281 C 97.875 147.613281 84.53125 148.351562 79.453125 134.710938 C 76.851562 127.71875 79.140625 120.585938 83.707031 115.851562 C 88.050781 111.359375 94.449219 109.042969 100.664062 111.085938 C 113.402344 115.289062 120.039062 129.011719 120.039062 129.011719 Z M 120.039062 129.011719 " fill-opacity="1" fill-rule="nonzero"/><path fill="#ff89a9" d="M 105.59375 143.953125 L 103.570312 145.421875 C 102.207031 146.070312 100.792969 146.636719 99.328125 147.128906 L 97.875 147.613281 C 97.875 147.613281 84.53125 148.347656 79.453125 134.707031 C 76.851562 127.71875 79.140625 120.582031 83.707031 115.851562 C 82.644531 121.847656 80.496094 143.714844 105.59375 143.953125 Z M 105.59375 143.953125 " fill-opacity="1" fill-rule="nonzero"/><path fill="#2b2b2b" d="M 96.023438 111.214844 C 91.832031 111.214844 87.601562 113.0625 84.308594 116.484375 C 79.539062 121.4375 77.992188 128.304688 80.261719 134.410156 C 84.863281 146.761719 96.367188 146.789062 97.714844 146.75 L 99.050781 146.304688 C 108.039062 143.296875 115.3125 137.011719 119.070312 129.027344 C 117.925781 126.867188 111.488281 115.570312 100.386719 111.910156 C 98.96875 111.445312 97.496094 111.214844 96.023438 111.214844 Z M 97.613281 148.488281 C 95.53125 148.488281 83.441406 147.917969 78.636719 135.015625 C 76.125 128.277344 77.820312 120.714844 83.058594 115.277344 C 87.976562 110.167969 94.828125 108.246094 100.933594 110.261719 C 113.878906 114.527344 120.546875 128.058594 120.824219 128.628906 L 121 128.996094 L 120.832031 129.367188 C 116.925781 137.972656 109.191406 144.746094 99.605469 147.953125 L 98.039062 148.476562 L 97.921875 148.480469 C 97.910156 148.484375 97.800781 148.488281 97.613281 148.488281 Z M 97.613281 148.488281 " fill-opacity="1" fill-rule="nonzero"/><path fill="#ff89a9" d="M 225.320312 337.347656 L 204.996094 341.082031 C 203.015625 341.449219 201.058594 341.308594 199.269531 340.757812 C 195.625 339.640625 192.65625 336.816406 191.558594 333.023438 C 191.519531 332.890625 191.476562 332.757812 191.449219 332.625 L 179.761719 285.886719 C 178.492188 280.796875 159.964844 263.8125 159.757812 255.929688 L 160.882812 255.71875 L 171.722656 253.730469 L 166.582031 233.148438 C 164.945312 226.597656 169.460938 220.035156 176.332031 218.976562 L 184.996094 217.644531 C 190.542969 216.792969 195.902344 219.839844 197.816406 224.941406 L 232.785156 317.882812 L 234.34375 322.019531 C 236.859375 328.695312 232.546875 336.019531 225.320312 337.347656 Z M 225.320312 337.347656 " fill-opacity="1" fill-rule="nonzero"/><path fill="#ff89a9" d="M 203.707031 320.277344 L 199.269531 340.757812 C 195.625 339.640625 192.65625 336.816406 191.558594 333.023438 C 191.519531 332.890625 191.476562 332.757812 191.449219 332.625 L 179.761719 285.886719 C 178.492188 280.796875 159.964844 263.8125 159.757812 255.929688 L 160.882812 255.71875 L 183.847656 267.472656 Z M 203.707031 320.277344 " fill-opacity="1" fill-rule="nonzero"/><path fill="#2b2b2b" d="M 236.027344 321.382812 C 236.628906 323 236.921875 324.738281 236.863281 326.476562 C 236.800781 328.207031 236.386719 329.925781 235.667969 331.496094 C 234.234375 334.652344 231.515625 337.15625 228.320312 338.441406 C 227.914062 338.589844 227.511719 338.75 227.101562 338.878906 L 225.851562 339.1875 C 225.070312 339.351562 224.375 339.472656 223.628906 339.617188 L 219.238281 340.449219 L 210.453125 342.117188 L 206.058594 342.949219 C 205.691406 343.019531 205.347656 343.089844 204.890625 343.152344 C 204.460938 343.210938 204.03125 343.285156 203.59375 343.292969 C 203.160156 343.316406 202.726562 343.347656 202.289062 343.316406 C 201.851562 343.296875 201.414062 343.285156 200.984375 343.214844 C 197.515625 342.800781 194.214844 341.019531 191.988281 338.265625 C 191.703125 337.929688 191.460938 337.554688 191.203125 337.199219 C 190.960938 336.828125 190.75 336.441406 190.527344 336.058594 C 190.332031 335.660156 190.152344 335.257812 189.96875 334.851562 L 189.546875 333.632812 C 189.394531 333.113281 189.320312 332.789062 189.226562 332.425781 L 188.953125 331.34375 L 188.40625 329.175781 L 186.21875 320.507812 L 181.945312 303.148438 L 177.769531 286.050781 C 177.589844 285.585938 177.238281 284.980469 176.890625 284.414062 C 176.519531 283.835938 176.121094 283.246094 175.695312 282.664062 C 174.851562 281.496094 173.949219 280.335938 173.03125 279.179688 C 171.199219 276.851562 169.324219 274.527344 167.488281 272.148438 C 165.671875 269.757812 163.863281 267.335938 162.269531 264.726562 C 161.472656 263.425781 160.710938 262.089844 160.074219 260.660156 C 159.441406 259.230469 158.910156 257.6875 158.890625 255.953125 L 158.890625 255.949219 L 158.828125 255.214844 L 159.601562 255.070312 L 171.566406 252.875 L 171.566406 252.871094 L 170.878906 253.941406 L 165.621094 233.476562 C 165.132812 231.636719 165.089844 229.648438 165.507812 227.773438 C 165.917969 225.894531 166.773438 224.121094 167.964844 222.617188 C 169.152344 221.109375 170.691406 219.871094 172.421875 219.035156 C 173.292969 218.621094 174.199219 218.289062 175.132812 218.066406 C 176.101562 217.839844 176.949219 217.726562 177.820312 217.582031 L 183.035156 216.75 C 183.917969 216.617188 184.726562 216.457031 185.726562 216.359375 C 186.207031 216.3125 186.691406 216.3125 187.175781 216.304688 C 187.65625 216.339844 188.144531 216.335938 188.621094 216.417969 C 192.472656 216.878906 196.070312 219.199219 198.070312 222.574219 C 198.300781 223.003906 198.558594 223.425781 198.738281 223.882812 L 199.023438 224.550781 L 199.257812 225.167969 L 200.203125 227.632812 L 202.085938 232.570312 L 205.859375 242.4375 Z M 232.664062 322.648438 L 203.3125 243.402344 L 199.640625 233.492188 L 197.808594 228.542969 L 196.890625 226.066406 L 196.660156 225.445312 L 196.433594 224.898438 C 196.296875 224.527344 196.089844 224.199219 195.914062 223.851562 C 194.34375 221.140625 191.457031 219.207031 188.308594 218.804688 C 187.917969 218.730469 187.519531 218.734375 187.125 218.695312 C 186.730469 218.699219 186.328125 218.691406 185.933594 218.730469 C 185.179688 218.792969 184.257812 218.949219 183.398438 219.074219 L 178.171875 219.847656 C 177.304688 219.976562 176.398438 220.097656 175.652344 220.265625 C 174.871094 220.4375 174.117188 220.707031 173.390625 221.042969 C 171.941406 221.710938 170.648438 222.726562 169.644531 223.96875 C 167.613281 226.445312 166.765625 229.851562 167.578125 232.988281 L 172.570312 253.519531 L 172.789062 254.425781 L 171.882812 254.585938 L 171.878906 254.585938 L 159.917969 256.785156 L 160.628906 255.90625 L 160.628906 255.910156 C 160.777344 257.164062 161.359375 258.457031 162.023438 259.699219 C 162.707031 260.941406 163.523438 262.144531 164.382812 263.316406 C 166.121094 265.65625 167.996094 267.929688 169.9375 270.160156 L 175.800781 276.910156 C 176.773438 278.054688 177.742188 279.210938 178.6875 280.429688 C 179.164062 281.035156 179.628906 281.664062 180.082031 282.324219 C 180.527344 283.015625 180.984375 283.671875 181.367188 284.589844 C 181.464844 284.824219 181.550781 285.101562 181.636719 285.363281 L 181.78125 285.917969 L 182.066406 287 L 182.628906 289.164062 L 183.757812 293.492188 L 185.964844 302.164062 L 190.367188 319.5 L 192.519531 328.1875 L 193.570312 332.402344 C 193.921875 333.636719 194.476562 334.679688 195.242188 335.636719 C 196.769531 337.53125 199.070312 338.804688 201.511719 339.136719 C 201.816406 339.195312 202.125 339.199219 202.4375 339.21875 C 202.742188 339.25 203.054688 339.222656 203.363281 339.214844 C 203.671875 339.21875 203.980469 339.160156 204.289062 339.125 C 204.574219 339.097656 204.960938 339.027344 205.328125 338.960938 L 209.730469 338.175781 L 218.535156 336.613281 L 222.9375 335.828125 C 223.660156 335.695312 224.429688 335.570312 225.109375 335.433594 L 226.03125 335.21875 C 226.332031 335.125 226.621094 335.007812 226.921875 334.910156 C 229.25 334 231.253906 332.210938 232.320312 329.933594 C 233.394531 327.664062 233.519531 325.011719 232.664062 322.648438 Z M 232.664062 322.648438 " fill-opacity="1" fill-rule="nonzero"/><path fill="#ff89a9" d="M 176.277344 244.714844 L 169.960938 261.464844 C 168.109375 262.933594 164.761719 265.046875 160.871094 267.402344 C 151.734375 272.914062 139.617188 279.703125 136.957031 282.246094 L 103.613281 314.066406 L 102.105469 315.503906 C 101.425781 316.152344 100.691406 316.699219 99.90625 317.144531 C 95.617188 319.582031 90.011719 319 86.136719 315.414062 L 70.949219 301.398438 C 65.550781 296.414062 65.820312 287.921875 71.515625 283.613281 L 73.644531 282.007812 L 154.257812 221.078125 C 158.605469 217.792969 164.765625 218.078125 169 221.757812 L 175.613281 227.519531 C 180.851562 232.085938 181.160156 240.046875 176.277344 244.714844 Z M 176.277344 244.714844 " fill-opacity="1" fill-rule="nonzero"/><path fill="#f6f4f1" d="M 121.183594 253.535156 L 82.609375 280.941406 L 78.535156 280.296875 L 76.363281 279.949219 L 74.175781 279.609375 L 117.6875 246.96875 L 118.355469 248.21875 L 119.019531 249.472656 Z M 121.183594 253.535156 " fill-opacity="1" fill-rule="nonzero"/><path fill="#ff89a9" d="M 162.308594 264.039062 C 162.277344 264.226562 161.746094 265.453125 160.871094 267.402344 C 151.734375 272.914062 139.613281 279.703125 136.953125 282.246094 L 103.609375 314.066406 L 102.101562 315.503906 C 101.421875 316.152344 100.6875 316.699219 99.90625 317.144531 L 101.367188 292.964844 L 142.273438 261.527344 C 142.277344 261.527344 162.519531 262.789062 162.308594 264.039062 Z M 162.308594 264.039062 " fill-opacity="1" fill-rule="nonzero"/><path fill="#2b2b2b" d="M 175.523438 244.246094 L 175.46875 244.402344 L 169.257812 260.953125 C 168.976562 261.121094 168.703125 261.285156 168.4375 261.460938 L 168.035156 261.726562 L 167.554688 262.019531 C 166.917969 262.417969 166.285156 262.824219 165.628906 263.210938 C 164.34375 264 163.023438 264.753906 161.710938 265.515625 C 161.707031 265.515625 161.707031 265.519531 161.699219 265.519531 L 153.722656 270.015625 C 151.058594 271.507812 148.402344 273.03125 145.742188 274.566406 C 144.414062 275.324219 143.09375 276.117188 141.777344 276.917969 C 140.460938 277.730469 139.152344 278.542969 137.835938 279.453125 L 136.851562 280.15625 L 135.835938 280.992188 L 134.160156 282.5625 L 130.832031 285.722656 L 124.183594 292.042969 L 110.925781 304.726562 L 104.300781 311.070312 L 100.988281 314.238281 C 100.683594 314.527344 100.363281 314.800781 100.035156 315.046875 C 99.324219 315.578125 98.546875 316.007812 97.703125 316.3125 C 95.265625 317.238281 92.449219 317.113281 90.046875 316.023438 C 89.738281 315.902344 89.457031 315.742188 89.171875 315.578125 C 88.875 315.429688 88.609375 315.234375 88.335938 315.046875 C 88.054688 314.871094 87.808594 314.652344 87.554688 314.4375 C 87.308594 314.246094 87.027344 313.980469 86.742188 313.71875 L 83.371094 310.613281 L 76.621094 304.398438 L 73.25 301.292969 C 72.054688 300.207031 71.132812 299.355469 70.402344 298.238281 C 68.90625 296.050781 68.378906 293.25 68.890625 290.683594 C 69.144531 289.398438 69.65625 288.167969 70.398438 287.089844 C 70.601562 286.835938 70.765625 286.550781 70.988281 286.316406 C 71.214844 286.085938 71.429688 285.835938 71.664062 285.605469 L 72.410156 284.964844 C 72.679688 284.746094 73.011719 284.507812 73.308594 284.277344 L 78.539062 280.300781 L 119.019531 249.476562 L 131.691406 239.824219 L 146.269531 228.6875 L 153.558594 223.109375 L 154.46875 222.414062 L 154.921875 222.070312 L 155.351562 221.765625 C 155.621094 221.5625 155.917969 221.390625 156.21875 221.222656 C 156.507812 221.042969 156.828125 220.921875 157.136719 220.769531 C 158.394531 220.210938 159.773438 219.953125 161.144531 219.941406 C 162.527344 219.941406 163.917969 220.183594 165.203125 220.710938 C 165.839844 220.976562 166.46875 221.285156 167.046875 221.667969 C 167.34375 221.851562 167.632812 222.050781 167.898438 222.277344 L 168.3125 222.601562 L 168.746094 222.972656 L 172.222656 225.964844 L 173.964844 227.460938 L 174.832031 228.207031 C 175.109375 228.453125 175.339844 228.695312 175.601562 228.9375 C 177.574219 230.925781 178.761719 233.679688 178.792969 236.496094 L 178.792969 236.683594 C 178.792969 239.433594 177.667969 242.160156 175.679688 244.082031 Z M 177.066406 227.507812 C 176.773438 227.222656 176.46875 226.90625 176.179688 226.652344 L 175.320312 225.890625 L 173.601562 224.378906 L 170.15625 221.339844 L 169.726562 220.964844 L 169.246094 220.570312 C 168.933594 220.296875 168.589844 220.0625 168.238281 219.832031 C 167.546875 219.363281 166.796875 218.988281 166.035156 218.65625 C 164.496094 218.007812 162.820312 217.683594 161.148438 217.667969 C 159.472656 217.652344 157.78125 217.957031 156.226562 218.617188 C 155.84375 218.789062 155.449219 218.941406 155.082031 219.164062 C 154.710938 219.359375 154.347656 219.566406 154.003906 219.816406 L 153.488281 220.171875 L 153.027344 220.519531 L 152.109375 221.203125 L 144.753906 226.6875 L 130.066406 237.675781 L 117.683594 246.96875 L 74.175781 279.609375 L 71.371094 281.710938 C 71.058594 281.949219 70.769531 282.15625 70.445312 282.417969 L 69.449219 283.265625 C 69.140625 283.574219 68.84375 283.898438 68.546875 284.21875 C 68.246094 284.542969 68.015625 284.910156 67.75 285.261719 C 66.746094 286.699219 66.058594 288.34375 65.71875 290.054688 C 65.03125 293.46875 65.730469 297.152344 67.679688 300.035156 C 67.894531 300.414062 68.195312 300.734375 68.449219 301.078125 C 68.707031 301.433594 69.007812 301.75 69.308594 302.054688 L 69.761719 302.519531 C 69.917969 302.671875 70.042969 302.785156 70.191406 302.917969 L 71.03125 303.703125 L 74.398438 306.8125 L 81.125 313.042969 L 84.492188 316.160156 C 84.773438 316.417969 85.039062 316.671875 85.394531 316.960938 C 85.722656 317.238281 86.054688 317.527344 86.417969 317.761719 C 86.773438 318.007812 87.132812 318.265625 87.515625 318.46875 C 87.890625 318.679688 88.273438 318.894531 88.671875 319.058594 C 91.84375 320.507812 95.582031 320.6875 98.882812 319.460938 C 100.527344 318.855469 102.058594 317.882812 103.308594 316.675781 L 106.632812 313.515625 L 113.273438 307.195312 L 126.566406 294.546875 L 133.1875 288.199219 L 136.496094 285.023438 L 138.140625 283.433594 L 138.882812 282.800781 L 139.757812 282.15625 C 142.148438 280.441406 144.777344 278.851562 147.347656 277.234375 L 155.148438 272.429688 C 157.75 270.824219 160.351562 269.207031 162.921875 267.519531 C 164.207031 266.679688 165.492188 265.832031 166.757812 264.949219 C 167.394531 264.523438 168.027344 264.058594 168.648438 263.59375 L 169.117188 263.253906 L 169.640625 262.835938 C 169.988281 262.550781 170.328125 262.261719 170.660156 261.96875 L 177.019531 245.195312 C 179.34375 242.953125 180.695312 239.726562 180.683594 236.484375 C 180.707031 233.179688 179.375 229.882812 177.066406 227.507812 Z M 177.066406 227.507812 " fill-opacity="1" fill-rule="nonzero"/><path fill="#ff89a9" d="M 111.359375 240.890625 L 110.097656 246.546875 C 109.554688 248.996094 110.925781 251.464844 113.296875 252.28125 C 122.328125 255.398438 144.347656 262.75 162.046875 266.699219 C 179.800781 270.660156 203.792969 274.015625 213.617188 275.316406 C 216.152344 275.652344 218.515625 273.996094 219.074219 271.503906 L 221.414062 260.996094 C 222.023438 258.257812 220.234375 255.566406 217.472656 255.070312 L 117.039062 237.113281 C 114.441406 236.644531 111.9375 238.3125 111.359375 240.890625 Z M 111.359375 240.890625 " fill-opacity="1" fill-rule="nonzero"/><path fill="#ff89a9" d="M 111.625 238.226562 L 110.363281 243.886719 C 109.816406 246.335938 111.191406 248.800781 113.5625 249.617188 C 122.589844 252.734375 144.609375 260.089844 162.3125 264.039062 C 180.0625 268 204.054688 271.351562 213.882812 272.65625 C 216.414062 272.988281 218.78125 271.335938 219.335938 268.835938 L 221.679688 258.332031 C 222.289062 255.59375 220.496094 252.898438 217.738281 252.40625 L 117.304688 234.449219 C 114.703125 233.984375 112.199219 235.652344 111.625 238.226562 Z M 111.625 238.226562 " fill-opacity="1" fill-rule="nonzero"/><path fill="#2b2b2b" d="M 116.164062 237.898438 C 114.292969 237.898438 112.632812 239.191406 112.210938 241.078125 L 110.949219 246.734375 C 110.496094 248.753906 111.628906 250.78125 113.582031 251.457031 C 122.304688 254.464844 144.503906 261.890625 162.238281 265.847656 C 180.023438 269.816406 204.175781 273.1875 213.730469 274.449219 C 215.828125 274.726562 217.761719 273.378906 218.222656 271.308594 L 220.566406 260.804688 C 220.808594 259.714844 220.605469 258.601562 219.984375 257.671875 C 219.363281 256.738281 218.417969 256.121094 217.316406 255.925781 L 116.882812 237.96875 C 116.644531 237.921875 116.402344 237.898438 116.164062 237.898438 Z M 214.285156 276.226562 C 214.027344 276.226562 213.765625 276.210938 213.503906 276.175781 C 203.921875 274.90625 179.710938 271.527344 161.855469 267.546875 C 144.039062 263.570312 121.761719 256.121094 113.015625 253.101562 C 110.226562 252.136719 108.605469 249.238281 109.25 246.355469 L 110.511719 240.695312 C 111.191406 237.652344 114.125 235.699219 117.191406 236.246094 L 217.625 254.203125 C 219.195312 254.484375 220.546875 255.375 221.433594 256.703125 C 222.320312 258.03125 222.613281 259.621094 222.265625 261.175781 L 219.921875 271.683594 C 219.320312 274.386719 216.96875 276.226562 214.285156 276.226562 Z M 214.285156 276.226562 " fill-opacity="1" fill-rule="nonzero"/><path fill="#ff89a9" d="M 230.269531 255.03125 C 228.050781 264.339844 217.109375 267.375 204.847656 267.664062 C 186.699219 268.089844 165.644531 262.539062 165.644531 262.539062 C 165.644531 262.539062 144.222656 258.617188 127.984375 250.515625 C 121.535156 247.300781 115.894531 243.421875 112.742188 238.863281 C 110.53125 235.671875 109.535156 232.144531 110.339844 228.28125 C 114.027344 210.488281 142.089844 167.957031 155.066406 148.96875 C 159.050781 143.136719 161.613281 139.527344 161.613281 139.527344 L 191.167969 148.105469 L 221.578125 152.898438 C 221.578125 152.898438 235.785156 231.9375 230.269531 255.03125 Z M 230.269531 255.03125 " fill-opacity="1" fill-rule="nonzero"/><path fill="#ff89a9" d="M 169.6875 165.070312 C 169.6875 165.070312 164.96875 168.984375 160.863281 175.691406 C 156.765625 182.398438 139.574219 197.769531 132.984375 200.703125 C 126.398438 203.636719 111.894531 231.171875 113.117188 237.03125 C 113.292969 237.859375 113.136719 238.449219 112.742188 238.863281 C 110.53125 235.667969 109.535156 232.144531 110.339844 228.277344 C 114.027344 210.488281 142.089844 167.957031 155.066406 148.96875 Z M 169.6875 165.070312 " fill-opacity="1" fill-rule="nonzero"/><path fill="#2b2b2b" d="M 228.382812 254.582031 C 229.207031 250.660156 229.46875 246.429688 229.609375 242.222656 C 229.734375 238 229.65625 233.75 229.492188 229.496094 C 229.132812 220.980469 228.425781 212.460938 227.5625 203.953125 C 226.6875 195.441406 225.65625 186.945312 224.507812 178.460938 C 223.359375 169.976562 222.105469 161.5 220.722656 153.054688 L 221.445312 153.761719 L 191.039062 148.96875 L 190.984375 148.960938 L 190.929688 148.945312 L 161.375 140.359375 L 162.324219 140.027344 C 154.101562 151.851562 146.140625 163.871094 138.480469 176.0625 C 134.664062 182.167969 130.921875 188.320312 127.335938 194.550781 C 123.769531 200.792969 120.289062 207.09375 117.238281 213.566406 C 115.714844 216.796875 114.265625 220.070312 113.109375 223.410156 C 112.804688 224.238281 112.578125 225.082031 112.304688 225.917969 C 112.042969 226.757812 111.882812 227.597656 111.664062 228.4375 C 111.359375 230.050781 111.339844 231.667969 111.671875 233.246094 C 112.386719 236.40625 114.441406 239.226562 116.953125 241.554688 C 119.472656 243.894531 122.410156 245.855469 125.496094 247.558594 C 128.582031 249.273438 131.824219 250.734375 135.109375 252.089844 C 138.410156 253.421875 141.78125 254.597656 145.183594 255.683594 C 148.589844 256.765625 152.035156 257.730469 155.5 258.609375 C 158.960938 259.484375 162.476562 260.28125 165.945312 260.933594 L 165.996094 260.945312 L 166.066406 260.960938 C 168.835938 261.65625 171.699219 262.265625 174.535156 262.820312 C 177.382812 263.375 180.242188 263.875 183.109375 264.292969 C 188.835938 265.148438 194.601562 265.722656 200.351562 265.851562 C 203.222656 265.910156 206.089844 265.878906 208.921875 265.621094 C 211.75 265.371094 214.546875 264.941406 217.214844 264.195312 C 219.863281 263.4375 222.378906 262.332031 224.402344 260.746094 C 226.4375 259.171875 227.773438 257.011719 228.382812 254.582031 Z M 232.15625 255.480469 C 231.355469 258.722656 229.378906 261.761719 226.75 263.730469 C 224.140625 265.734375 221.171875 266.957031 218.207031 267.78125 C 215.226562 268.585938 212.214844 269.015625 209.21875 269.253906 C 206.21875 269.5 203.230469 269.503906 200.257812 269.421875 C 194.308594 269.234375 188.417969 268.59375 182.589844 267.667969 C 179.675781 267.214844 176.773438 266.6875 173.882812 266.09375 C 170.984375 265.5 168.128906 264.867188 165.234375 264.113281 L 165.355469 264.140625 C 161.742188 263.429688 158.230469 262.59375 154.707031 261.671875 C 151.191406 260.75 147.703125 259.742188 144.242188 258.605469 C 140.785156 257.46875 137.355469 256.238281 133.980469 254.839844 C 130.613281 253.421875 127.285156 251.886719 124.082031 250.066406 C 120.875 248.257812 117.78125 246.167969 115.035156 243.578125 C 113.683594 242.265625 112.378906 240.859375 111.347656 239.210938 C 110.3125 237.578125 109.433594 235.777344 109.039062 233.8125 C 108.636719 231.859375 108.683594 229.8125 109.074219 227.890625 C 109.316406 226.984375 109.507812 226.058594 109.789062 225.175781 C 110.082031 224.300781 110.335938 223.402344 110.660156 222.546875 C 111.894531 219.078125 113.398438 215.757812 114.980469 212.488281 C 118.136719 205.941406 121.695312 199.636719 125.335938 193.390625 C 128.996094 187.15625 132.804688 181.019531 136.6875 174.929688 C 144.480469 162.769531 152.550781 150.808594 160.902344 139.019531 L 160.90625 139.019531 L 161.261719 138.511719 L 161.855469 138.683594 L 191.414062 147.269531 L 191.308594 147.242188 L 221.71875 152.039062 L 222.328125 152.132812 L 222.4375 152.742188 C 224.019531 161.1875 225.464844 169.640625 226.8125 178.117188 C 228.15625 186.59375 229.386719 195.09375 230.464844 203.617188 C 231.523438 212.144531 232.433594 220.699219 232.996094 229.308594 C 233.257812 233.617188 233.4375 237.9375 233.410156 242.285156 C 233.375 246.640625 233.179688 251.023438 232.15625 255.480469 Z M 232.15625 255.480469 " fill-opacity="1" fill-rule="nonzero"/><path fill="#ff89a9" d="M 208.625 176.019531 C 208.625 176.019531 209.855469 213.484375 230.160156 222.652344 L 230.164062 222.652344 C 228.625 203.921875 225.589844 183.09375 223.46875 169.785156 C 218.035156 171.785156 208.625 176.019531 208.625 176.019531 Z M 208.625 176.019531 " fill-opacity="1" fill-rule="nonzero"/><path fill="#2b2b2b" d="M 209.523438 176.570312 C 209.785156 181.195312 212.171875 212.023438 229.167969 221.191406 C 227.652344 203.539062 224.902344 184.410156 222.777344 170.976562 C 218.148438 172.746094 211.457031 175.707031 209.523438 176.570312 Z M 231.132812 223.789062 L 229.800781 223.445312 C 209.238281 214.160156 207.808594 177.601562 207.753906 176.046875 L 207.734375 175.464844 L 208.265625 175.226562 C 208.359375 175.183594 217.765625 170.957031 223.164062 168.96875 L 224.15625 168.601562 L 224.324219 169.648438 C 226.539062 183.535156 229.5 203.992188 231.027344 222.578125 Z M 231.132812 223.789062 " fill-opacity="1" fill-rule="nonzero"/><path fill="#ff89a9" d="M 164.648438 163.316406 C 164.648438 163.316406 147.617188 196.707031 125.339844 196.375 L 125.335938 196.375 C 134.691406 180.074219 146.289062 162.507812 153.863281 151.363281 C 157.933594 155.484375 164.648438 163.316406 164.648438 163.316406 Z M 164.648438 163.316406 " fill-opacity="1" fill-rule="nonzero"/><path fill="#2b2b2b" d="M 153.984375 152.734375 C 146.347656 163.996094 135.730469 180.144531 126.855469 195.476562 C 146.136719 194.398438 161.398438 167.503906 163.601562 163.429688 C 162.214844 161.828125 157.417969 156.304688 153.984375 152.734375 Z M 125.671875 197.246094 C 125.554688 197.246094 125.441406 197.246094 125.328125 197.246094 L 125.167969 197.230469 L 123.984375 196.992188 L 124.578125 195.941406 C 133.863281 179.769531 145.234375 162.511719 153.140625 150.878906 L 153.738281 150.003906 L 154.480469 150.753906 C 158.527344 154.851562 165.242188 162.671875 165.308594 162.75 L 165.6875 163.191406 L 165.421875 163.710938 C 164.722656 165.085938 148.054688 197.246094 125.671875 197.246094 Z M 125.671875 197.246094 " fill-opacity="1" fill-rule="nonzero"/><path fill="#ff89a9" d="M 214.628906 223.804688 L 204.851562 267.660156 C 186.699219 268.089844 165.648438 262.535156 165.648438 262.535156 C 165.648438 262.535156 148.054688 259.316406 132.675781 252.6875 C 131.082031 252 129.511719 251.273438 127.988281 250.515625 L 137.765625 206.65625 C 138.683594 202.550781 142.753906 199.972656 146.84375 200.886719 L 155.65625 202.851562 L 208.863281 214.722656 C 212.964844 215.636719 215.546875 219.699219 214.628906 223.804688 Z M 214.628906 223.804688 " fill-opacity="1" fill-rule="nonzero"/><path fill="#ff89a9" d="M 159.042969 204.726562 C 159.042969 204.726562 144.675781 201.960938 142.273438 207.550781 C 140.261719 212.234375 134.5 242.855469 132.675781 252.6875 C 131.082031 252 129.507812 251.273438 127.984375 250.515625 L 137.765625 206.65625 C 138.679688 202.550781 142.75 199.972656 146.84375 200.886719 L 155.652344 202.851562 Z M 159.042969 204.726562 " fill-opacity="1" fill-rule="nonzero"/><path fill="#2b2b2b" d="M 213.566406 223.566406 C 213.800781 222.40625 213.773438 221.191406 213.375 220.074219 C 213.011719 218.949219 212.304688 217.945312 211.414062 217.175781 C 210.964844 216.796875 210.457031 216.484375 209.925781 216.230469 C 209.652344 216.125 209.382812 215.996094 209.097656 215.921875 L 208.671875 215.800781 L 208.171875 215.6875 L 204.136719 214.789062 L 187.988281 211.1875 L 155.6875 203.980469 L 147.617188 202.179688 L 146.605469 201.953125 C 146.3125 201.917969 146.027344 201.832031 145.730469 201.828125 C 145.140625 201.757812 144.550781 201.828125 143.96875 201.917969 C 143.390625 202.035156 142.828125 202.222656 142.292969 202.480469 C 141.773438 202.761719 141.265625 203.070312 140.835938 203.480469 C 140.402344 203.878906 140 204.320312 139.695312 204.828125 C 139.371094 205.320312 139.132812 205.867188 138.960938 206.429688 L 138.839844 206.859375 L 138.726562 207.355469 L 138.5 208.363281 L 138.050781 210.382812 L 136.246094 218.457031 L 132.5625 234.589844 L 130.71875 242.652344 L 128.832031 250.710938 L 128.367188 249.742188 L 128.371094 249.742188 C 131.3125 251.171875 134.3125 252.488281 137.378906 253.660156 C 140.449219 254.816406 143.550781 255.90625 146.691406 256.863281 C 149.835938 257.828125 153 258.722656 156.1875 259.527344 C 159.375 260.328125 162.59375 261.070312 165.800781 261.6875 L 165.835938 261.691406 L 165.867188 261.703125 C 169.03125 262.503906 172.257812 263.203125 175.484375 263.828125 C 178.714844 264.457031 181.957031 264.996094 185.210938 265.457031 C 188.464844 265.921875 191.734375 266.253906 195.007812 266.511719 C 198.277344 266.757812 201.554688 266.839844 204.824219 266.796875 L 203.996094 267.476562 L 206.351562 256.492188 L 208.757812 245.519531 Z M 215.695312 224.039062 L 210.722656 245.949219 L 208.234375 256.90625 L 205.699219 267.847656 L 205.539062 268.527344 L 204.871094 268.527344 C 201.53125 268.574219 198.199219 268.484375 194.882812 268.242188 C 191.566406 267.980469 188.261719 267.644531 184.976562 267.171875 C 181.6875 266.707031 178.414062 266.160156 175.15625 265.53125 C 171.894531 264.898438 168.664062 264.199219 165.425781 263.375 L 165.492188 263.394531 C 162.207031 262.757812 158.988281 262.015625 155.765625 261.207031 C 152.550781 260.390625 149.355469 259.496094 146.179688 258.519531 C 143.003906 257.546875 139.871094 256.453125 136.757812 255.277344 C 133.648438 254.089844 130.597656 252.75 127.597656 251.292969 L 127.59375 251.292969 L 126.988281 251.011719 L 127.132812 250.324219 L 128.84375 242.230469 L 130.601562 234.148438 L 134.125 217.980469 L 135.921875 209.90625 L 136.371094 207.886719 L 136.597656 206.875 L 136.710938 206.363281 L 136.867188 205.796875 C 137.09375 205.042969 137.417969 204.3125 137.851562 203.652344 C 138.261719 202.976562 138.792969 202.382812 139.371094 201.851562 C 139.949219 201.3125 140.625 200.890625 141.316406 200.527344 C 142.027344 200.179688 142.777344 199.925781 143.554688 199.769531 C 144.328125 199.644531 145.121094 199.566406 145.90625 199.652344 C 146.304688 199.664062 146.6875 199.765625 147.078125 199.824219 L 148.085938 200.050781 L 188.457031 209.054688 L 204.609375 212.65625 L 208.644531 213.558594 L 209.15625 213.671875 L 209.726562 213.828125 C 210.105469 213.929688 210.46875 214.09375 210.832031 214.242188 C 211.542969 214.582031 212.21875 215 212.824219 215.507812 C 214.015625 216.535156 214.953125 217.875 215.441406 219.375 C 215.96875 220.867188 216.019531 222.5 215.695312 224.039062 Z M 215.695312 224.039062 " fill-opacity="1" fill-rule="nonzero"/><path fill="#2b2b2b" d="M 122.84375 294.710938 C 114.5 270.285156 95.949219 267.382812 95.164062 267.273438 L 95.636719 263.851562 C 96.507812 263.96875 117.054688 267.066406 126.113281 293.59375 Z M 122.84375 294.710938 " fill-opacity="1" fill-rule="nonzero"/><path fill="#2b2b2b" d="M 185.125 302.542969 L 182.671875 300.109375 C 183.289062 299.484375 198.097656 284.90625 224.75 293.578125 L 223.679688 296.863281 C 199.136719 288.882812 185.683594 301.976562 185.125 302.542969 Z M 185.125 302.542969 " fill-opacity="1" fill-rule="nonzero"/><path fill="#ff89a9" d="M 103.085938 317.328125 C 97.046875 323.867188 87.40625 320.472656 77.671875 311.496094 C 76.425781 310.339844 75.230469 309.15625 74.132812 307.941406 C 69.066406 302.429688 65.605469 296.464844 65.457031 291.421875 C 65.382812 288.9375 66.113281 286.679688 67.847656 284.796875 C 71.152344 281.214844 76.472656 280.191406 82.210938 281.460938 C 86.964844 282.515625 91.988281 285.144531 96.394531 289.214844 C 97.6875 290.410156 98.855469 291.660156 99.90625 292.960938 C 106.765625 301.4375 108.320312 311.65625 103.085938 317.328125 Z M 103.085938 317.328125 " fill-opacity="1" fill-rule="nonzero"/><path fill="#f6f4f1" d="M 82.210938 281.464844 C 81.554688 281.613281 69.230469 284.492188 65.457031 291.421875 C 65.382812 288.9375 66.113281 286.679688 67.847656 284.796875 C 71.152344 281.21875 76.472656 280.191406 82.210938 281.464844 Z M 82.210938 281.464844 " fill-opacity="1" fill-rule="nonzero"/><path fill="#ff89a9" d="M 103.085938 317.328125 C 97.046875 323.867188 87.40625 320.472656 77.671875 311.496094 C 76.425781 310.339844 75.230469 309.15625 74.132812 307.941406 C 79.265625 310.898438 85.011719 311.484375 88.328125 312.476562 C 98.210938 315.429688 99.910156 292.960938 99.910156 292.960938 C 106.765625 301.4375 108.320312 311.65625 103.085938 317.328125 Z M 103.085938 317.328125 " fill-opacity="1" fill-rule="nonzero"/><g clip-path="url(#1692270ebd)"><path fill="#2b2b2b" d="M 101.839844 316.179688 C 103.351562 314.601562 104.300781 312.480469 104.570312 310.175781 C 104.867188 307.875 104.566406 305.449219 103.910156 303.113281 C 102.570312 298.417969 99.789062 294.078125 96.25 290.546875 C 92.722656 286.996094 88.375 284.15625 83.582031 282.734375 C 81.195312 282.023438 78.695312 281.671875 76.253906 281.886719 C 73.820312 282.089844 71.453125 282.90625 69.621094 284.414062 C 68.707031 285.175781 67.929688 286.074219 67.390625 287.082031 C 66.835938 288.089844 66.578125 289.230469 66.503906 290.386719 C 66.382812 292.71875 67.113281 295.113281 68.15625 297.328125 C 69.214844 299.554688 70.613281 301.644531 72.175781 303.605469 C 73.742188 305.5625 75.46875 307.40625 77.308594 309.132812 C 79.148438 310.859375 81.085938 312.480469 83.105469 313.941406 C 85.125 315.394531 87.253906 316.683594 89.472656 317.609375 C 91.683594 318.519531 94 319.046875 96.164062 318.910156 C 98.320312 318.742188 100.28125 317.789062 101.839844 316.179688 Z M 104.324219 318.476562 L 103.53125 319.246094 C 103.261719 319.503906 103.015625 319.773438 102.695312 319.984375 C 102.089844 320.429688 101.492188 320.890625 100.792969 321.207031 C 100.449219 321.371094 100.128906 321.582031 99.765625 321.695312 L 98.679688 322.0625 C 98.320312 322.199219 97.945312 322.230469 97.574219 322.304688 C 97.203125 322.359375 96.824219 322.453125 96.453125 322.46875 C 93.445312 322.679688 90.617188 321.875 88.113281 320.746094 C 85.597656 319.605469 83.328125 318.121094 81.210938 316.5 C 79.097656 314.867188 77.109375 313.113281 75.269531 311.21875 C 71.59375 307.4375 68.253906 303.230469 66.050781 298.285156 C 64.996094 295.816406 64.222656 293.089844 64.460938 290.242188 C 64.59375 288.832031 64.988281 287.414062 65.695312 286.160156 C 66.398438 284.90625 67.367188 283.839844 68.453125 282.972656 C 70.667969 281.238281 73.40625 280.332031 76.105469 280.128906 C 78.820312 279.921875 81.519531 280.3125 84.078125 281.046875 C 89.203125 282.566406 93.824219 285.425781 97.71875 289.023438 C 99.671875 290.832031 101.414062 292.867188 102.933594 295.074219 C 104.449219 297.285156 105.699219 299.707031 106.570312 302.292969 C 107.4375 304.878906 107.890625 307.667969 107.644531 310.511719 C 107.425781 313.335938 106.320312 316.238281 104.324219 318.476562 Z M 104.324219 318.476562 " fill-opacity="1" fill-rule="nonzero"/></g><path fill="#ff89a9" d="M 237.738281 331.757812 C 234.925781 336.507812 228.070312 339.746094 219.035156 341.40625 C 206.011719 343.800781 193.398438 342.003906 191.785156 333.25 C 190.667969 327.175781 194.777344 320.96875 201.75 316.9375 C 201.757812 316.933594 201.757812 316.933594 201.757812 316.933594 C 204.835938 315.15625 208.46875 313.796875 212.457031 313.066406 C 225.480469 310.671875 237.339844 315.828125 238.945312 324.578125 C 239.441406 327.261719 238.988281 329.664062 237.738281 331.757812 Z M 237.738281 331.757812 " fill-opacity="1" fill-rule="nonzero"/><path fill="#ff89a9" d="M 237.738281 331.757812 C 234.925781 336.507812 228.070312 339.746094 219.035156 341.40625 C 206.011719 343.800781 193.398438 342.003906 191.785156 333.25 C 190.667969 327.175781 194.777344 320.96875 201.75 316.9375 C 201.628906 317.296875 196.488281 332.417969 214.15625 334.625 C 224.546875 335.921875 232.714844 333.78125 237.738281 331.757812 Z M 237.738281 331.757812 " fill-opacity="1" fill-rule="nonzero"/><g clip-path="url(#56692433b0)"><path fill="#2b2b2b" d="M 237.8125 324.789062 C 237.429688 322.507812 236.226562 320.375 234.480469 318.714844 C 232.746094 317.042969 230.5625 315.789062 228.238281 314.929688 C 223.558594 313.199219 218.339844 312.992188 213.402344 313.851562 C 208.460938 314.710938 203.636719 316.582031 199.722656 319.625 C 197.777344 321.136719 196.0625 322.933594 194.828125 324.984375 C 193.589844 327.019531 192.898438 329.328125 193.011719 331.582031 C 193.082031 332.714844 193.332031 333.8125 193.789062 334.777344 C 194.242188 335.75 194.945312 336.582031 195.777344 337.292969 C 197.46875 338.71875 199.738281 339.574219 202.089844 340.070312 C 204.457031 340.566406 206.933594 340.738281 209.417969 340.707031 C 211.90625 340.660156 214.410156 340.449219 216.894531 340.074219 C 221.847656 339.300781 226.828125 338.164062 231.136719 335.867188 C 233.269531 334.714844 235.203125 333.226562 236.484375 331.328125 C 237.753906 329.429688 238.179688 327.109375 237.8125 324.789062 Z M 240.082031 324.375 L 240.222656 325.429688 C 240.265625 325.78125 240.335938 326.132812 240.3125 326.496094 C 240.304688 327.210938 240.320312 327.933594 240.160156 328.648438 C 239.972656 330.097656 239.371094 331.457031 238.65625 332.703125 C 237.113281 335.152344 234.898438 336.980469 232.5625 338.371094 C 230.210938 339.773438 227.699219 340.769531 225.152344 341.570312 C 222.605469 342.367188 220.015625 342.964844 217.398438 343.371094 C 212.167969 344.167969 206.765625 344.410156 201.390625 343.230469 C 200.050781 342.917969 198.71875 342.5 197.425781 341.921875 C 196.140625 341.332031 194.871094 340.605469 193.773438 339.609375 C 192.675781 338.613281 191.71875 337.390625 191.125 336 C 190.519531 334.605469 190.246094 333.128906 190.210938 331.683594 C 190.160156 328.757812 191.152344 325.945312 192.671875 323.636719 C 194.195312 321.308594 196.1875 319.390625 198.367188 317.8125 C 202.761719 314.683594 207.878906 312.800781 213.109375 312.011719 C 218.339844 311.242188 223.765625 311.511719 228.847656 313.230469 C 231.371094 314.109375 233.820312 315.378906 235.875 317.226562 C 237.9375 319.042969 239.519531 321.566406 240.082031 324.375 Z M 240.082031 324.375 " fill-opacity="1" fill-rule="nonzero"/></g><path fill="#2b2b2b" d="M 256.988281 197.628906 C 241.753906 188.960938 247.65625 169.167969 247.71875 168.972656 L 249.917969 169.648438 C 249.6875 170.390625 244.503906 187.882812 258.125 195.632812 Z M 256.988281 197.628906 " fill-opacity="1" fill-rule="nonzero"/><path fill="#2b2b2b" d="M 114.566406 164.082031 L 114.28125 161.800781 C 127.574219 160.152344 133.976562 142.554688 134.039062 142.378906 L 136.203125 143.148438 C 135.929688 143.925781 129.277344 162.257812 114.566406 164.082031 Z M 114.566406 164.082031 " fill-opacity="1" fill-rule="nonzero"/><path fill="#ff89a9" d="M 159.046875 219.042969 C 159.046875 223.675781 155.296875 227.429688 150.664062 227.429688 C 149.824219 227.429688 149.015625 227.308594 148.25 227.078125 C 144.792969 226.042969 142.277344 222.832031 142.277344 219.042969 C 142.277344 214.828125 145.386719 211.351562 149.429688 210.753906 C 149.832031 210.6875 150.25 210.660156 150.664062 210.660156 C 155.296875 210.660156 159.046875 214.414062 159.046875 219.042969 Z M 159.046875 219.042969 " fill-opacity="1" fill-rule="nonzero"/><path fill="#ff89a9" d="M 159.046875 219.042969 C 159.046875 223.675781 155.296875 227.429688 150.664062 227.429688 C 149.824219 227.429688 149.015625 227.308594 148.25 227.078125 C 154.566406 221.195312 151.21875 213.746094 149.429688 210.753906 C 149.832031 210.6875 150.25 210.660156 150.664062 210.660156 C 155.296875 210.660156 159.046875 214.414062 159.046875 219.042969 Z M 159.046875 219.042969 " fill-opacity="1" fill-rule="nonzero"/><path fill="#2b2b2b" d="M 150.664062 211.53125 C 146.519531 211.53125 143.148438 214.902344 143.148438 219.042969 C 143.148438 223.1875 146.519531 226.558594 150.664062 226.558594 C 154.808594 226.558594 158.179688 223.1875 158.179688 219.042969 C 158.179688 214.898438 154.804688 211.53125 150.664062 211.53125 Z M 150.664062 228.296875 C 145.558594 228.296875 141.410156 224.148438 141.410156 219.042969 C 141.410156 213.941406 145.558594 209.789062 150.664062 209.789062 C 155.765625 209.789062 159.917969 213.941406 159.917969 219.042969 C 159.917969 224.148438 155.765625 228.296875 150.664062 228.296875 Z M 150.664062 228.296875 " fill-opacity="1" fill-rule="nonzero"/><path fill="#ff89a9" d="M 124.753906 82.128906 L 131.988281 47.96875 L 135.960938 48.59375 L 131.425781 79.125 Z M 124.753906 82.128906 " fill-opacity="1" fill-rule="nonzero"/><path fill="#2b2b2b" d="M 132.667969 48.953125 L 125.960938 80.632812 L 130.636719 78.53125 L 134.976562 49.316406 Z M 123.550781 83.625 L 131.308594 46.976562 L 136.949219 47.867188 L 132.214844 79.722656 Z M 123.550781 83.625 " fill-opacity="1" fill-rule="nonzero"/><path fill="#ff89a9" d="M 131.210938 134.964844 C 131.210938 134.964844 130.265625 134.609375 128.863281 134 C 125.988281 132.753906 121.214844 130.425781 118.757812 127.859375 C 115.09375 124.027344 117.015625 93.421875 118.660156 88.058594 C 119.613281 84.933594 125.4375 81.484375 130.121094 79.160156 C 133.460938 77.5 136.222656 76.40625 136.222656 76.40625 Z M 131.210938 134.964844 " fill-opacity="1" fill-rule="nonzero"/><path fill="#ff89a9" d="M 131.210938 134.964844 C 131.210938 134.964844 130.265625 134.609375 128.863281 134 C 115.847656 118.667969 128.136719 81.40625 128.136719 81.40625 L 130.117188 79.15625 C 133.460938 77.496094 136.222656 76.402344 136.222656 76.402344 Z M 131.210938 134.964844 " fill-opacity="1" fill-rule="nonzero"/><path fill="#2b2b2b" d="M 136.542969 77.210938 C 133.691406 78.476562 130.839844 79.859375 128.136719 81.40625 C 126.777344 82.175781 125.460938 83.007812 124.203125 83.878906 C 122.957031 84.757812 121.753906 85.714844 120.835938 86.78125 C 120.386719 87.308594 120.023438 87.878906 119.867188 88.378906 C 119.679688 88.992188 119.550781 89.78125 119.429688 90.527344 C 119.195312 92.050781 119.03125 93.609375 118.886719 95.171875 C 118.585938 98.296875 118.386719 101.445312 118.257812 104.59375 C 118.117188 107.738281 118.042969 110.890625 118.085938 114.027344 C 118.132812 117.160156 118.230469 120.3125 118.664062 123.316406 C 118.722656 123.6875 118.769531 124.066406 118.851562 124.421875 L 118.960938 124.960938 L 119.097656 125.476562 C 119.136719 125.652344 119.191406 125.8125 119.25 125.964844 C 119.304688 126.109375 119.347656 126.296875 119.417969 126.40625 C 119.480469 126.519531 119.539062 126.6875 119.601562 126.761719 C 119.628906 126.796875 119.65625 126.835938 119.679688 126.875 L 119.714844 126.9375 L 119.808594 127.03125 C 120.773438 128.050781 122.011719 128.949219 123.289062 129.78125 C 125.859375 131.4375 128.679688 132.875 131.511719 134.148438 L 130.90625 135.777344 C 129.347656 135.273438 127.867188 134.683594 126.378906 134.042969 C 124.894531 133.402344 123.4375 132.6875 122.011719 131.863281 C 120.589844 131.035156 119.203125 130.109375 117.921875 128.878906 L 117.800781 128.769531 L 117.660156 128.59375 L 117.382812 128.230469 C 117.203125 127.984375 117.125 127.773438 116.996094 127.542969 C 116.863281 127.308594 116.8125 127.101562 116.722656 126.882812 C 116.636719 126.664062 116.558594 126.445312 116.503906 126.238281 L 116.324219 125.605469 L 116.179688 124.984375 C 116.078125 124.566406 116.015625 124.15625 115.9375 123.75 C 115.660156 122.109375 115.53125 120.492188 115.421875 118.878906 C 115.320312 117.265625 115.273438 115.660156 115.265625 114.054688 C 115.238281 110.847656 115.320312 107.648438 115.480469 104.457031 C 115.652344 101.265625 115.894531 98.078125 116.242188 94.894531 C 116.425781 93.300781 116.632812 91.707031 116.917969 90.101562 C 117.074219 89.285156 117.207031 88.503906 117.5 87.601562 C 117.851562 86.597656 118.417969 85.839844 119.003906 85.171875 C 120.199219 83.863281 121.535156 82.875 122.894531 81.953125 C 124.261719 81.046875 125.675781 80.25 127.105469 79.503906 C 129.976562 78.019531 132.890625 76.71875 135.910156 75.585938 Z M 136.542969 77.210938 " fill-opacity="1" fill-rule="nonzero"/><path fill="#ff89a9" d="M 285.90625 111.480469 L 291.183594 76.960938 L 287.242188 76.144531 L 280.722656 106.316406 Z M 285.90625 111.480469 " fill-opacity="1" fill-rule="nonzero"/><path fill="#2b2b2b" d="M 281.671875 106.035156 L 285.304688 109.65625 L 290.199219 77.644531 L 287.910156 77.171875 Z M 286.507812 113.304688 L 279.773438 106.597656 L 286.578125 75.117188 L 292.167969 76.273438 Z M 286.507812 113.304688 " fill-opacity="1" fill-rule="nonzero"/><path fill="#ff89a9" d="M 275.394531 156.386719 C 273.402344 157.34375 270.601562 157.894531 268.015625 158.214844 C 264.417969 158.65625 261.238281 158.648438 261.238281 158.648438 L 277.191406 102.078125 C 277.191406 102.078125 279.933594 104.5625 282.832031 107.796875 C 286.167969 111.503906 289.710938 116.183594 289.519531 119.175781 C 289.167969 124.773438 280.175781 154.09375 275.394531 156.386719 Z M 275.394531 156.386719 " fill-opacity="1" fill-rule="nonzero"/><path fill="#ff89a9" d="M 268.015625 158.214844 C 264.417969 158.65625 261.238281 158.648438 261.238281 158.648438 L 277.191406 102.078125 C 277.191406 102.078125 279.933594 104.5625 282.832031 107.796875 C 282.59375 113.972656 280.835938 140.933594 268.015625 158.214844 Z M 268.015625 158.214844 " fill-opacity="1" fill-rule="nonzero"/><path fill="#2b2b2b" d="M 261.238281 159.519531 L 261.242188 157.777344 C 261.335938 157.777344 270.480469 157.78125 275.019531 155.601562 C 279.09375 153.648438 288.257812 125.378906 288.652344 119.125 C 288.921875 114.882812 280.050781 105.84375 276.609375 102.71875 L 277.773438 101.429688 C 279.105469 102.636719 290.761719 113.390625 290.390625 119.234375 C 290.046875 124.640625 281.09375 154.621094 275.773438 157.171875 C 270.875 159.523438 261.628906 159.519531 261.238281 159.519531 Z M 261.238281 159.519531 " fill-opacity="1" fill-rule="nonzero"/><path fill="#ff89a9" d="M 261.261719 158.585938 C 260.605469 159.339844 259.9375 160.070312 259.238281 160.785156 C 257.695312 162.386719 256.046875 163.886719 254.308594 165.300781 C 250.597656 168.304688 246.472656 170.882812 241.925781 173.003906 C 228.339844 179.339844 211.054688 181.558594 190.425781 178.625 C 170.089844 174.097656 154.691406 165.925781 144.21875 155.207031 C 140.710938 151.617188 137.753906 147.75 135.34375 143.632812 C 135.183594 143.363281 135.027344 143.085938 134.875 142.8125 C 122.714844 121.226562 126.019531 93.082031 141.628906 63.304688 C 146.222656 54.550781 152.507812 47.90625 159.867188 43.070312 C 175.898438 32.546875 197.011719 30.601562 216.746094 34.097656 C 233.050781 37.152344 248.933594 44.019531 260.328125 55.105469 C 269.011719 63.539062 275.089844 74.429688 276.753906 87.917969 C 277.378906 92.988281 277.742188 97.917969 277.855469 102.699219 C 278.417969 125.664062 273.035156 145.027344 261.261719 158.585938 Z M 261.261719 158.585938 " fill-opacity="1" fill-rule="nonzero"/><path fill="#f6f4f1" d="M 260.328125 55.105469 C 251.601562 49.675781 237.214844 42.976562 214.316406 38.945312 C 192.449219 35.101562 173.054688 38.839844 159.871094 43.070312 C 175.898438 32.546875 197.015625 30.601562 216.746094 34.097656 C 233.054688 37.152344 248.9375 44.023438 260.328125 55.105469 Z M 260.328125 55.105469 " fill-opacity="1" fill-rule="nonzero"/><path fill="#ff89a9" d="M 259.238281 160.785156 C 257.695312 162.386719 256.046875 163.886719 254.308594 165.300781 C 250.597656 168.304688 246.472656 170.882812 241.925781 173.003906 C 228.339844 179.339844 211.054688 181.558594 190.425781 178.625 C 170.089844 174.097656 154.691406 165.925781 144.21875 155.207031 C 140.710938 151.617188 137.753906 147.75 135.34375 143.632812 C 135.183594 143.363281 135.027344 143.085938 134.875 142.8125 C 132.148438 131.371094 130.820312 109.921875 142.03125 88.40625 C 160.664062 52.660156 179.074219 46.671875 213.378906 52.917969 C 244.578125 58.601562 272.183594 80.757812 266.484375 129.863281 C 265.070312 142.042969 262.429688 152.28125 259.238281 160.785156 Z M 259.238281 160.785156 " fill-opacity="1" fill-rule="nonzero"/><path fill="#2b2b2b" d="M 260.296875 157.75 C 265.605469 151.589844 269.460938 144.265625 272.027344 136.527344 C 273.332031 132.660156 274.261719 128.667969 274.960938 124.636719 C 275.652344 120.605469 276.117188 116.523438 276.300781 112.425781 C 276.730469 104.230469 276.300781 95.972656 275.257812 87.820312 C 274.226562 79.789062 271.402344 72.015625 266.914062 65.289062 C 264.667969 61.925781 262.046875 58.816406 259.136719 55.992188 C 256.21875 53.175781 253.007812 50.660156 249.609375 48.414062 C 242.820312 43.914062 235.25 40.597656 227.433594 38.199219 C 223.519531 37 219.519531 36.050781 215.496094 35.355469 C 211.464844 34.679688 207.378906 34.230469 203.292969 34.039062 C 195.121094 33.675781 186.886719 34.328125 178.988281 36.332031 C 175.042969 37.339844 171.191406 38.6875 167.515625 40.402344 C 163.832031 42.113281 160.363281 44.246094 157.160156 46.722656 C 153.960938 49.195312 151.046875 52.042969 148.523438 55.210938 C 145.984375 58.382812 143.851562 61.8125 142.027344 65.496094 C 138.273438 72.824219 135.066406 80.441406 132.726562 88.3125 L 131.855469 91.265625 L 131.140625 94.257812 L 130.78125 95.753906 L 130.601562 96.5 L 130.464844 97.257812 L 129.917969 100.28125 C 129.828125 100.785156 129.730469 101.289062 129.648438 101.792969 L 129.46875 103.316406 L 129.101562 106.363281 C 128.992188 107.378906 128.972656 108.402344 128.902344 109.421875 L 128.816406 110.949219 L 128.773438 111.714844 L 128.78125 112.480469 C 128.824219 114.519531 128.761719 116.566406 128.992188 118.59375 C 129.089844 119.609375 129.136719 120.625 129.257812 121.636719 C 129.417969 122.640625 129.566406 123.648438 129.707031 124.660156 C 129.789062 125.164062 129.839844 125.671875 129.941406 126.167969 L 130.265625 127.660156 C 130.484375 128.652344 130.679688 129.660156 130.925781 130.648438 L 131.816406 133.574219 C 131.96875 134.058594 132.097656 134.554688 132.277344 135.035156 L 132.847656 136.457031 C 133.242188 137.398438 133.605469 138.355469 134.03125 139.28125 L 135.460938 141.996094 C 135.707031 142.445312 135.933594 142.902344 136.1875 143.34375 C 136.449219 143.785156 136.714844 144.222656 136.988281 144.65625 C 137.53125 145.519531 138.101562 146.371094 138.691406 147.207031 C 141.050781 150.546875 143.769531 153.636719 146.761719 156.433594 C 152.746094 162.039062 159.777344 166.476562 167.226562 169.933594 C 174.695312 173.394531 182.609375 175.839844 190.652344 177.648438 L 190.574219 177.636719 C 196.871094 178.492188 203.222656 178.953125 209.558594 178.816406 C 212.726562 178.765625 215.882812 178.511719 219.023438 178.15625 C 222.164062 177.777344 225.273438 177.207031 228.34375 176.484375 C 231.410156 175.761719 234.417969 174.796875 237.351562 173.667969 C 240.28125 172.53125 243.136719 171.199219 245.851562 169.625 C 251.285156 166.492188 256.214844 162.492188 260.296875 157.75 Z M 262.222656 159.425781 C 257.921875 164.367188 252.730469 168.511719 247.046875 171.71875 C 244.210938 173.335938 241.234375 174.699219 238.195312 175.855469 C 235.144531 177.003906 232.035156 177.976562 228.867188 178.699219 C 225.703125 179.421875 222.503906 179.984375 219.28125 180.351562 C 216.058594 180.691406 212.828125 180.929688 209.589844 180.953125 C 203.121094 181.054688 196.667969 180.523438 190.285156 179.632812 L 190.246094 179.625 L 190.210938 179.617188 C 182.058594 177.75 174.019531 175.230469 166.417969 171.667969 C 158.828125 168.109375 151.640625 163.539062 145.511719 157.75 C 142.449219 154.859375 139.664062 151.667969 137.246094 148.214844 C 136.640625 147.351562 136.058594 146.472656 135.5 145.578125 C 135.222656 145.128906 134.949219 144.679688 134.683594 144.226562 C 134.421875 143.769531 134.183594 143.296875 133.933594 142.832031 L 132.449219 140.039062 C 132.003906 139.082031 131.59375 138.113281 131.160156 137.148438 L 130.515625 135.699219 C 130.308594 135.214844 130.152344 134.710938 129.964844 134.214844 L 128.902344 131.226562 C 128.597656 130.214844 128.347656 129.1875 128.066406 128.167969 L 127.652344 126.628906 C 127.523438 126.117188 127.457031 125.59375 127.359375 125.074219 C 127.171875 124.03125 126.992188 122.988281 126.820312 121.941406 C 126.671875 120.894531 126.613281 119.835938 126.511719 118.785156 C 126.265625 116.675781 126.320312 114.5625 126.273438 112.449219 L 126.261719 111.65625 L 126.390625 109.289062 C 126.457031 108.234375 126.476562 107.175781 126.582031 106.128906 L 127.132812 101.417969 C 127.214844 100.898438 127.3125 100.382812 127.402344 99.863281 L 127.957031 96.753906 L 128.097656 95.976562 L 128.277344 95.210938 L 128.640625 93.671875 L 129.367188 90.605469 L 130.246094 87.578125 C 132.621094 79.515625 135.859375 71.746094 139.65625 64.28125 C 143.34375 56.699219 148.71875 49.75 155.476562 44.554688 C 158.835938 41.941406 162.480469 39.6875 166.328125 37.882812 C 170.171875 36.074219 174.1875 34.65625 178.289062 33.589844 C 186.503906 31.496094 195.011719 30.820312 203.425781 31.183594 C 207.636719 31.375 211.824219 31.832031 215.984375 32.519531 C 220.148438 33.238281 224.246094 34.207031 228.277344 35.433594 C 236.328125 37.894531 244.144531 41.300781 251.222656 45.976562 C 254.757812 48.308594 258.113281 50.929688 261.179688 53.878906 C 264.230469 56.835938 267 60.105469 269.371094 63.65625 C 274.132812 70.746094 277.09375 79.007812 278.164062 87.449219 C 279.21875 95.773438 279.589844 104.183594 279.113281 112.578125 C 278.90625 116.777344 278.410156 120.964844 277.671875 125.113281 C 276.929688 129.261719 275.949219 133.378906 274.578125 137.378906 C 271.875 145.378906 267.816406 153.007812 262.222656 159.425781 Z M 262.222656 159.425781 " fill-opacity="1" fill-rule="nonzero"/><path fill="#2b2b2b" d="M 264.117188 135.917969 C 261.355469 151.082031 253.214844 163.945312 241.929688 173.007812 C 228.34375 179.34375 211.058594 181.5625 190.429688 178.628906 C 170.089844 174.097656 154.695312 165.929688 144.214844 155.210938 C 136.851562 142.75 133.769531 127.84375 136.53125 112.679688 C 142.761719 78.472656 176.371094 55.953125 211.601562 62.371094 C 246.832031 68.789062 270.347656 101.710938 264.117188 135.917969 Z M 264.117188 135.917969 " fill-opacity="1" fill-rule="nonzero"/><path fill="#f6f4f1" d="M 145.402344 124.289062 C 143.363281 124.441406 145.472656 140.445312 155.210938 152.851562 C 166.203125 166.851562 185.515625 170.75 186.21875 168.210938 C 187.242188 164.519531 173.207031 164.019531 160.570312 151.710938 C 149.824219 141.242188 147.652344 124.121094 145.402344 124.289062 Z M 145.402344 124.289062 " fill-opacity="1" fill-rule="nonzero"/><path fill="#f6f4f1" d="M 255.96875 114.335938 C 257.421875 114.050781 257.363281 108.078125 254.96875 101.917969 C 252.433594 95.394531 246.652344 90.722656 245.457031 91.476562 C 244.617188 92.011719 245.925781 93.835938 249.183594 100.402344 C 253.757812 109.617188 254.644531 114.597656 255.96875 114.335938 Z M 255.96875 114.335938 " fill-opacity="1" fill-rule="nonzero"/><path fill="#f6f4f1" d="M 242.808594 86.773438 C 241.835938 84.835938 238.457031 84.539062 237.878906 85.429688 C 237.570312 85.90625 238.070312 86.726562 238.285156 87.074219 C 239.367188 88.835938 241.96875 89.742188 242.804688 88.953125 C 243.3125 88.476562 243.132812 87.414062 242.808594 86.773438 Z M 242.808594 86.773438 " fill-opacity="1" fill-rule="nonzero"/></svg>