<svg xmlns="http://www.w3.org/2000/svg" xmlns:xlink="http://www.w3.org/1999/xlink" width="500" zoomAndPan="magnify" viewBox="0 0 375 374.999991" height="500" preserveAspectRatio="xMidYMid meet" version="1.0"><defs><clipPath id="4e262f5b99"><path d="M 187.5 0 C 83.945312 0 0 83.945312 0 187.5 C 0 291.054688 83.945312 375 187.5 375 C 291.054688 375 375 291.054688 375 187.5 C 375 83.945312 291.054688 0 187.5 0 Z M 187.5 0 " clip-rule="nonzero"/></clipPath><clipPath id="e353a7d179"><path d="M 80.050781 268 L 118 268 L 118 306 L 80.050781 306 Z M 80.050781 268 " clip-rule="nonzero"/></clipPath></defs><g clip-path="url(#4e262f5b99)"><rect x="-37.5" width="450" fill="#f6f4f1" y="-37.499999" height="449.999989" fill-opacity="1"/><path stroke-linecap="butt" transform="matrix(0.75, 0, 0, 0.75, 0.0000045, 0)" fill="none" stroke-linejoin="miter" d="M 250.00001 0 C 111.927085 0 -0.000006 111.927091 -0.000006 250.000016 C -0.000006 388.072942 111.927085 500.000033 250.00001 500.000033 C 388.072936 500.000033 500.000027 388.072942 500.000027 250.000016 C 500.000027 111.927091 388.072936 0 250.00001 0 Z M 250.00001 0 " stroke="#000000" stroke-width="8" stroke-opacity="1" stroke-miterlimit="4"/></g><path fill="#ff89a9" d="M 288.171875 178.929688 C 287.441406 181.007812 286.144531 183.003906 284.339844 184.738281 C 278.519531 190.347656 238.230469 197.628906 223.085938 200.199219 C 219.523438 200.804688 217.351562 201.152344 217.351562 201.152344 L 205.933594 184.945312 C 205.933594 184.945312 265.519531 160.042969 278.082031 163.386719 C 287.488281 165.894531 290.351562 172.746094 288.171875 178.929688 Z M 288.171875 178.929688 " fill-opacity="1" fill-rule="nonzero"/><path fill="#ff89a9" d="M 288.171875 178.929688 C 287.441406 181.007812 286.144531 183.003906 284.339844 184.738281 C 278.519531 190.347656 238.230469 197.628906 223.085938 200.199219 C 222.832031 196.066406 222.453125 191.292969 222.453125 191.292969 C 222.453125 191.292969 271.171875 185.269531 282.03125 179.941406 C 283.839844 179.058594 285.964844 178.761719 288.171875 178.929688 Z M 288.171875 178.929688 " fill-opacity="1" fill-rule="nonzero"/><path fill="#2b2b2b" d="M 206.664062 185.160156 C 210.535156 190.371094 214.289062 195.464844 217.96875 200.714844 L 217.230469 200.402344 C 224.226562 198.527344 231.3125 197.242188 238.394531 195.933594 C 245.476562 194.601562 252.539062 193.1875 259.546875 191.582031 C 263.046875 190.777344 266.535156 189.921875 269.984375 188.96875 C 273.425781 188.011719 276.863281 186.980469 280.054688 185.617188 C 280.460938 185.457031 280.828125 185.257812 281.210938 185.074219 C 281.398438 184.980469 281.59375 184.890625 281.773438 184.792969 L 282.289062 184.480469 C 282.453125 184.378906 282.652344 184.28125 282.785156 184.171875 L 283.195312 183.84375 C 283.335938 183.757812 283.480469 183.597656 283.625 183.453125 C 283.769531 183.300781 283.921875 183.164062 284.054688 183.003906 C 285.167969 181.785156 286.082031 180.398438 286.679688 178.894531 C 287.289062 177.398438 287.550781 175.789062 287.433594 174.230469 C 287.316406 172.664062 286.757812 171.164062 285.890625 169.855469 C 284.996094 168.550781 283.773438 167.457031 282.367188 166.597656 C 280.953125 165.75 279.378906 165.113281 277.734375 164.660156 C 277.039062 164.476562 276.214844 164.398438 275.375 164.390625 C 274.539062 164.378906 273.675781 164.410156 272.808594 164.496094 C 271.078125 164.644531 269.328125 164.933594 267.582031 165.257812 C 264.09375 165.929688 260.617188 166.808594 257.160156 167.765625 C 253.703125 168.726562 250.265625 169.777344 246.839844 170.878906 C 239.992188 173.082031 233.183594 175.4375 226.417969 177.921875 C 223.035156 179.160156 219.660156 180.429688 216.292969 181.722656 L 211.25 183.664062 L 208.730469 184.652344 L 207.476562 185.152344 L 206.847656 185.402344 L 206.300781 185.621094 C 206.308594 185.617188 206.21875 185.65625 206.316406 185.613281 C 206.480469 185.535156 206.632812 185.328125 206.664062 185.160156 Z M 205.203125 184.738281 C 205.257812 184.5625 205.4375 184.34375 205.625 184.257812 L 205.71875 184.21875 L 205.796875 184.183594 L 206.265625 183.984375 L 206.886719 183.71875 L 208.136719 183.191406 L 210.636719 182.144531 L 215.648438 180.082031 C 219 178.730469 222.359375 177.402344 225.730469 176.097656 C 232.476562 173.5 239.261719 170.988281 246.125 168.691406 C 249.5625 167.550781 253.015625 166.453125 256.503906 165.445312 C 259.992188 164.441406 263.507812 163.507812 267.097656 162.78125 C 268.898438 162.425781 270.707031 162.105469 272.570312 161.921875 C 273.5 161.824219 274.449219 161.777344 275.410156 161.777344 C 276.378906 161.78125 277.367188 161.847656 278.417969 162.113281 C 280.257812 162.59375 282.070312 163.296875 283.761719 164.289062 C 285.441406 165.292969 286.992188 166.625 288.160156 168.296875 C 289.3125 169.96875 290.058594 171.960938 290.210938 174 C 290.371094 176.035156 290.035156 178.082031 289.289062 179.929688 C 288.558594 181.789062 287.457031 183.460938 286.144531 184.914062 C 285.988281 185.101562 285.808594 185.265625 285.636719 185.441406 C 285.46875 185.617188 285.308594 185.789062 285.074219 185.964844 L 284.429688 186.484375 C 284.210938 186.652344 284 186.757812 283.78125 186.894531 L 283.136719 187.285156 C 282.921875 187.402344 282.707031 187.5 282.492188 187.609375 C 282.0625 187.816406 281.632812 188.046875 281.199219 188.21875 C 277.75 189.707031 274.261719 190.753906 270.757812 191.746094 C 267.253906 192.726562 263.734375 193.601562 260.203125 194.425781 C 253.144531 196.070312 246.054688 197.515625 238.957031 198.878906 C 231.855469 200.246094 224.726562 201.472656 217.46875 201.902344 L 217.003906 201.976562 L 216.730469 201.589844 C 212.800781 196.03125 208.941406 190.328125 205.203125 184.738281 Z M 205.203125 184.738281 " fill-opacity="1" fill-rule="nonzero"/><path fill="#ff89a9" d="M 287.453125 184.648438 C 278.691406 193.820312 268.257812 188.640625 268.257812 188.640625 L 267.257812 187.753906 C 266.394531 186.980469 265.582031 186.175781 264.816406 185.335938 C 259.867188 179.894531 257.050781 173.113281 256.910156 166.113281 C 256.910156 166.113281 266.941406 157.40625 278.59375 158.433594 C 280.289062 158.578125 281.867188 159.042969 283.289062 159.761719 C 291.667969 163.964844 294.933594 176.8125 287.453125 184.648438 Z M 287.453125 184.648438 " fill-opacity="1" fill-rule="nonzero"/><path fill="#ff89a9" d="M 287.453125 184.648438 C 278.691406 193.820312 268.257812 188.640625 268.257812 188.640625 L 267.257812 187.753906 C 266.394531 186.980469 265.582031 186.175781 264.816406 185.335938 L 265.171875 184.585938 C 265.171875 184.585938 272.777344 186.242188 280.570312 181.804688 C 286.984375 178.160156 286.144531 166.722656 283.289062 159.761719 C 291.667969 163.964844 294.933594 176.8125 287.453125 184.648438 Z M 287.453125 184.648438 " fill-opacity="1" fill-rule="nonzero"/><path fill="#2b2b2b" d="M 257.402344 166.683594 C 257.925781 165.511719 257.546875 166.363281 257.667969 166.105469 L 257.667969 166.195312 L 257.671875 166.296875 L 257.683594 166.492188 L 257.703125 166.886719 C 257.71875 167.148438 257.722656 167.414062 257.75 167.675781 C 257.808594 168.199219 257.84375 168.726562 257.921875 169.25 C 258.074219 170.289062 258.269531 171.328125 258.539062 172.347656 C 259.070312 174.390625 259.835938 176.371094 260.800781 178.25 C 261.769531 180.128906 262.941406 181.902344 264.277344 183.539062 C 264.949219 184.359375 265.660156 185.144531 266.410156 185.894531 C 267.160156 186.640625 267.945312 187.351562 268.761719 188.074219 L 268.59375 187.960938 C 269.277344 188.183594 270.0625 188.390625 270.816406 188.527344 C 271.582031 188.679688 272.347656 188.777344 273.109375 188.84375 C 274.644531 188.960938 276.167969 188.878906 277.648438 188.621094 C 279.140625 188.378906 280.546875 187.832031 281.90625 187.203125 L 282.886719 186.644531 L 283.375 186.363281 L 283.835938 186.027344 L 284.75 185.351562 C 284.90625 185.25 285.046875 185.121094 285.183594 184.984375 L 285.601562 184.59375 C 287.929688 182.609375 289.460938 179.917969 290.070312 176.972656 C 290.691406 174.03125 290.328125 170.886719 289.195312 168.082031 C 288.027344 165.296875 286.109375 162.769531 283.535156 161.230469 C 282.261719 160.457031 280.851562 159.898438 279.378906 159.65625 C 279.003906 159.613281 278.648438 159.53125 278.253906 159.519531 L 277.089844 159.464844 L 276.507812 159.433594 C 276.316406 159.433594 276.121094 159.453125 275.925781 159.457031 L 274.753906 159.511719 C 268.519531 160.011719 262.425781 162.851562 257.402344 166.683594 Z M 256.410156 165.542969 C 258.992188 163.335938 261.816406 161.578125 264.859375 160.144531 C 265.625 159.800781 266.390625 159.449219 267.183594 159.167969 C 267.964844 158.847656 268.773438 158.605469 269.578125 158.355469 C 269.976562 158.214844 270.394531 158.125 270.804688 158.027344 L 272.042969 157.734375 L 273.304688 157.542969 C 273.726562 157.484375 274.140625 157.390625 274.570312 157.378906 L 275.851562 157.296875 C 276.066406 157.285156 276.277344 157.261719 276.492188 157.261719 L 277.136719 157.277344 L 278.417969 157.316406 C 278.847656 157.320312 279.296875 157.40625 279.734375 157.449219 C 281.492188 157.710938 283.195312 158.339844 284.726562 159.230469 C 286.265625 160.121094 287.625 161.292969 288.753906 162.644531 C 289.890625 163.992188 290.816406 165.511719 291.488281 167.132812 C 292.816406 170.371094 293.269531 174 292.5625 177.472656 C 292.21875 179.207031 291.59375 180.894531 290.707031 182.4375 C 289.832031 183.972656 288.667969 185.382812 287.367188 186.511719 L 286.890625 186.960938 C 286.734375 187.113281 286.574219 187.257812 286.394531 187.382812 L 285.339844 188.171875 L 284.8125 188.5625 L 284.238281 188.894531 L 283.09375 189.554688 C 282.699219 189.753906 282.285156 189.914062 281.878906 190.089844 L 281.269531 190.34375 C 281.0625 190.421875 280.84375 190.476562 280.632812 190.542969 C 280.210938 190.664062 279.785156 190.796875 279.359375 190.910156 L 278.050781 191.132812 C 276.304688 191.371094 274.53125 191.335938 272.820312 191.03125 C 271.96875 190.875 271.125 190.667969 270.3125 190.382812 C 269.484375 190.109375 268.71875 189.773438 267.917969 189.316406 L 267.808594 189.253906 L 267.75 189.203125 C 266.945312 188.488281 266.121094 187.746094 265.332031 186.964844 C 264.550781 186.175781 263.804688 185.355469 263.105469 184.496094 C 261.699219 182.777344 260.46875 180.914062 259.453125 178.941406 C 258.433594 176.964844 257.628906 174.878906 257.070312 172.726562 C 256.785156 171.648438 256.578125 170.554688 256.417969 169.453125 C 256.335938 168.902344 256.296875 168.347656 256.234375 167.792969 C 256.210938 167.515625 256.203125 167.238281 256.1875 166.960938 L 256.167969 166.542969 L 256.15625 166.332031 L 256.152344 166.230469 L 256.152344 166.175781 L 256.148438 166.152344 L 256.148438 166.132812 C 256.265625 165.871094 255.890625 166.71875 256.410156 165.542969 Z M 256.410156 165.542969 " fill-opacity="1" fill-rule="nonzero"/><path fill="#ff89a9" d="M 168.09375 173.949219 L 156.199219 181.257812 L 151.207031 184.328125 C 151.207031 184.328125 121.320312 165.460938 105.488281 152.453125 C 100.597656 148.4375 97.050781 144.976562 96.136719 142.804688 C 92.261719 133.597656 97.460938 123.765625 110.320312 125.648438 C 123.179688 127.539062 168.09375 173.949219 168.09375 173.949219 Z M 168.09375 173.949219 " fill-opacity="1" fill-rule="nonzero"/><path fill="#ff89a9" d="M 156.199219 181.257812 L 151.207031 184.328125 C 151.207031 184.328125 121.320312 165.460938 105.488281 152.453125 L 114.335938 150.824219 C 114.335938 150.820312 142.367188 172.214844 156.199219 181.257812 Z M 156.199219 181.257812 " fill-opacity="1" fill-rule="nonzero"/><path fill="#2b2b2b" d="M 168.84375 174.042969 C 163.203125 177.699219 157.40625 181.417969 151.605469 184.96875 L 151.199219 185.21875 L 150.804688 184.964844 L 150.800781 184.964844 C 144.652344 181.160156 138.589844 177.238281 132.558594 173.253906 C 126.53125 169.265625 120.566406 165.179688 114.707031 160.925781 C 111.78125 158.796875 108.882812 156.625 106.039062 154.363281 C 103.199219 152.09375 100.398438 149.773438 97.816406 147.078125 C 97.484375 146.753906 97.183594 146.378906 96.871094 146.023438 C 96.714844 145.839844 96.554688 145.667969 96.40625 145.480469 L 95.96875 144.878906 C 95.828125 144.671875 95.671875 144.496094 95.542969 144.261719 L 95.15625 143.550781 C 95.015625 143.304688 94.9375 143.085938 94.851562 142.859375 C 94.769531 142.632812 94.667969 142.414062 94.597656 142.179688 C 93.964844 140.351562 93.609375 138.402344 93.664062 136.429688 C 93.703125 134.460938 94.1875 132.472656 95.125 130.6875 C 96.054688 128.894531 97.5 127.375 99.191406 126.292969 C 100.898438 125.21875 102.828125 124.601562 104.757812 124.332031 C 106.691406 124.078125 108.628906 124.136719 110.507812 124.402344 C 111.570312 124.566406 112.503906 124.894531 113.394531 125.261719 C 114.28125 125.636719 115.132812 126.046875 115.949219 126.5 C 117.59375 127.390625 119.140625 128.390625 120.65625 129.417969 C 126.695312 133.566406 132.238281 138.25 137.660156 143.054688 C 143.074219 147.863281 148.359375 152.804688 153.5 157.890625 C 156.074219 160.429688 158.648438 162.96875 161.160156 165.566406 L 164.921875 169.46875 L 166.789062 171.433594 L 167.714844 172.425781 L 168.179688 172.921875 L 168.40625 173.171875 L 168.523438 173.296875 L 168.578125 173.359375 L 168.648438 173.433594 C 168.789062 173.585938 168.867188 173.859375 168.84375 174.042969 Z M 167.339844 173.851562 C 167.296875 174.015625 167.359375 174.265625 167.476562 174.402344 C 167.546875 174.480469 167.480469 174.40625 167.488281 174.417969 L 167.425781 174.359375 L 167.308594 174.238281 L 167.066406 174.003906 L 166.582031 173.53125 L 165.613281 172.59375 L 163.671875 170.707031 L 159.777344 166.960938 C 157.160156 164.480469 154.574219 161.96875 151.941406 159.511719 C 146.675781 154.59375 141.398438 149.691406 135.984375 144.957031 C 133.277344 142.585938 130.53125 140.269531 127.75 138.003906 C 124.96875 135.742188 122.140625 133.542969 119.210938 131.53125 C 117.746094 130.53125 116.257812 129.5625 114.730469 128.730469 C 113.96875 128.308594 113.195312 127.933594 112.417969 127.601562 C 111.648438 127.273438 110.859375 127.011719 110.136719 126.898438 C 108.445312 126.652344 106.742188 126.601562 105.09375 126.8125 C 103.453125 127.039062 101.875 127.550781 100.515625 128.394531 C 99.171875 129.257812 98.042969 130.429688 97.304688 131.84375 C 96.5625 133.253906 96.152344 134.859375 96.117188 136.5 C 96.0625 138.136719 96.355469 139.796875 96.898438 141.378906 C 96.957031 141.578125 97.046875 141.769531 97.117188 141.96875 C 97.191406 142.164062 97.265625 142.367188 97.359375 142.511719 L 97.613281 142.996094 C 97.695312 143.15625 97.84375 143.324219 97.953125 143.488281 L 98.304688 143.988281 C 98.433594 144.152344 98.578125 144.3125 98.714844 144.476562 C 98.996094 144.800781 99.253906 145.136719 99.566406 145.445312 C 101.953125 147.988281 104.699219 150.320312 107.472656 152.582031 C 110.253906 154.839844 113.113281 157.023438 116 159.167969 C 127.589844 167.703125 139.542969 175.796875 151.613281 183.679688 L 150.8125 183.675781 C 156.261719 180.3125 161.722656 177.113281 167.339844 173.851562 Z M 167.339844 173.851562 " fill-opacity="1" fill-rule="nonzero"/><path fill="#ff89a9" d="M 128.695312 136.519531 C 125.878906 142.734375 120.804688 147.753906 114.339844 150.824219 C 113.152344 151.386719 111.921875 151.882812 110.644531 152.3125 L 109.375 152.730469 C 109.375 152.730469 97.742188 153.375 93.316406 141.484375 C 91.050781 135.390625 93.042969 129.171875 97.027344 125.046875 C 100.8125 121.132812 106.390625 119.109375 111.804688 120.894531 C 122.910156 124.558594 128.695312 136.519531 128.695312 136.519531 Z M 128.695312 136.519531 " fill-opacity="1" fill-rule="nonzero"/><path fill="#ff89a9" d="M 116.105469 149.542969 L 114.339844 150.820312 C 113.152344 151.386719 111.921875 151.882812 110.644531 152.3125 L 109.375 152.730469 C 109.375 152.730469 97.742188 153.375 93.316406 141.484375 C 91.050781 135.390625 93.042969 129.171875 97.027344 125.046875 C 96.101562 130.273438 94.226562 149.335938 116.105469 149.542969 Z M 116.105469 149.542969 " fill-opacity="1" fill-rule="nonzero"/><path fill="#2b2b2b" d="M 107.761719 121.003906 C 104.105469 121.003906 100.417969 122.617188 97.550781 125.597656 C 93.394531 129.914062 92.042969 135.902344 94.023438 141.222656 C 98.035156 151.988281 108.0625 152.011719 109.234375 151.980469 L 110.402344 151.589844 C 118.234375 148.96875 124.574219 143.492188 127.851562 136.53125 C 126.855469 134.648438 121.242188 124.800781 111.566406 121.609375 C 110.328125 121.207031 109.046875 121.003906 107.761719 121.003906 Z M 109.148438 153.496094 C 107.332031 153.496094 96.792969 152.996094 92.605469 141.75 C 90.417969 135.878906 91.894531 129.289062 96.460938 124.546875 C 100.746094 120.09375 106.71875 118.417969 112.042969 120.171875 C 123.328125 123.894531 129.136719 135.6875 129.378906 136.183594 L 129.535156 136.503906 L 129.386719 136.828125 C 125.984375 144.328125 119.238281 150.230469 110.882812 153.027344 L 109.519531 153.484375 L 109.417969 153.488281 C 109.40625 153.492188 109.3125 153.496094 109.148438 153.496094 Z M 109.148438 153.496094 " fill-opacity="1" fill-rule="nonzero"/><path fill="#ff89a9" d="M 220.464844 318.117188 L 202.75 321.371094 C 201.023438 321.691406 199.316406 321.570312 197.757812 321.089844 C 194.578125 320.113281 191.992188 317.652344 191.035156 314.347656 C 191 314.230469 190.964844 314.117188 190.941406 314 L 180.753906 273.257812 C 179.644531 268.824219 163.496094 254.019531 163.316406 247.144531 L 164.296875 246.964844 L 173.746094 245.230469 L 169.265625 227.289062 C 167.839844 221.578125 171.773438 215.859375 177.761719 214.9375 L 185.316406 213.777344 C 190.152344 213.03125 194.820312 215.691406 196.492188 220.136719 L 226.972656 301.148438 L 228.328125 304.757812 C 230.523438 310.574219 226.765625 316.960938 220.464844 318.117188 Z M 220.464844 318.117188 " fill-opacity="1" fill-rule="nonzero"/><path fill="#ff89a9" d="M 201.628906 303.238281 L 197.757812 321.089844 C 194.578125 320.113281 191.992188 317.652344 191.035156 314.347656 C 191 314.230469 190.964844 314.117188 190.941406 314 L 180.753906 273.257812 C 179.644531 268.824219 163.496094 254.019531 163.316406 247.144531 L 164.296875 246.964844 L 184.316406 257.207031 Z M 201.628906 303.238281 " fill-opacity="1" fill-rule="nonzero"/><path fill="#2b2b2b" d="M 229.796875 304.199219 C 230.324219 305.609375 230.578125 307.125 230.523438 308.640625 C 230.472656 310.148438 230.109375 311.648438 229.484375 313.015625 C 228.234375 315.769531 225.867188 317.949219 223.082031 319.070312 C 222.726562 319.199219 222.375 319.335938 222.019531 319.449219 L 220.925781 319.71875 C 220.246094 319.863281 219.640625 319.96875 218.992188 320.09375 L 215.160156 320.820312 L 203.675781 323 C 203.355469 323.058594 203.054688 323.121094 202.65625 323.175781 C 202.285156 323.226562 201.910156 323.292969 201.527344 323.296875 C 201.148438 323.316406 200.769531 323.34375 200.390625 323.316406 C 200.007812 323.300781 199.628906 323.292969 199.253906 323.230469 C 196.230469 322.867188 193.351562 321.316406 191.410156 318.917969 C 191.160156 318.625 190.953125 318.296875 190.726562 317.988281 C 190.515625 317.664062 190.332031 317.324219 190.136719 316.992188 C 189.964844 316.644531 189.808594 316.292969 189.648438 315.941406 L 189.28125 314.875 C 189.152344 314.425781 189.085938 314.144531 189.003906 313.824219 L 188.765625 312.882812 L 188.289062 310.992188 L 186.382812 303.4375 L 182.65625 288.304688 L 179.019531 273.402344 C 178.859375 272.996094 178.554688 272.46875 178.25 271.976562 C 177.925781 271.46875 177.578125 270.957031 177.207031 270.453125 C 176.472656 269.433594 175.683594 268.421875 174.886719 267.414062 C 173.292969 265.386719 171.65625 263.355469 170.054688 261.285156 C 168.472656 259.199219 166.894531 257.089844 165.507812 254.816406 C 164.8125 253.679688 164.148438 252.515625 163.59375 251.269531 C 163.042969 250.027344 162.578125 248.679688 162.5625 247.167969 L 162.5625 247.164062 L 162.503906 246.523438 L 163.179688 246.398438 L 173.609375 244.484375 L 173.011719 245.414062 L 168.429688 227.574219 C 168.003906 225.972656 167.964844 224.238281 168.328125 222.605469 C 168.6875 220.964844 169.429688 219.421875 170.472656 218.109375 C 171.507812 216.792969 172.84375 215.71875 174.355469 214.988281 C 175.113281 214.628906 175.90625 214.335938 176.71875 214.144531 C 177.5625 213.945312 178.300781 213.847656 179.058594 213.722656 L 183.605469 212.996094 C 184.375 212.878906 185.082031 212.742188 185.953125 212.65625 C 186.371094 212.613281 186.792969 212.613281 187.214844 212.609375 C 187.632812 212.636719 188.058594 212.636719 188.476562 212.707031 C 191.832031 213.105469 194.96875 215.128906 196.714844 218.074219 C 196.914062 218.449219 197.136719 218.8125 197.292969 219.210938 L 197.542969 219.796875 L 197.746094 220.335938 L 198.570312 222.484375 L 200.214844 226.785156 L 203.5 235.386719 Z M 226.867188 305.304688 L 201.28125 236.226562 L 198.082031 227.589844 L 196.484375 223.273438 L 195.683594 221.117188 L 195.484375 220.574219 L 195.285156 220.097656 C 195.164062 219.777344 194.984375 219.488281 194.832031 219.183594 C 193.464844 216.824219 190.949219 215.140625 188.203125 214.785156 C 187.863281 214.722656 187.515625 214.722656 187.171875 214.691406 C 186.828125 214.695312 186.476562 214.691406 186.132812 214.722656 C 185.476562 214.777344 184.671875 214.914062 183.921875 215.023438 L 179.367188 215.699219 C 178.609375 215.808594 177.824219 215.914062 177.171875 216.0625 C 176.492188 216.210938 175.832031 216.445312 175.199219 216.738281 C 173.9375 217.320312 172.8125 218.207031 171.933594 219.289062 C 170.164062 221.445312 169.425781 224.417969 170.136719 227.152344 L 174.484375 245.046875 L 174.675781 245.835938 L 173.886719 245.976562 L 173.882812 245.976562 L 163.457031 247.894531 L 164.078125 247.128906 C 164.207031 248.222656 164.710938 249.351562 165.292969 250.433594 C 165.886719 251.515625 166.597656 252.566406 167.347656 253.585938 C 168.863281 255.625 170.496094 257.609375 172.1875 259.554688 L 177.300781 265.433594 C 178.148438 266.433594 178.992188 267.441406 179.820312 268.503906 C 180.230469 269.03125 180.636719 269.578125 181.03125 270.15625 C 181.421875 270.757812 181.820312 271.328125 182.152344 272.128906 C 182.238281 272.332031 182.3125 272.578125 182.386719 272.800781 L 182.515625 273.285156 L 182.761719 274.230469 L 183.253906 276.117188 L 184.238281 279.886719 L 186.160156 287.445312 L 190 302.5625 L 191.875 310.128906 L 192.789062 313.804688 C 193.097656 314.878906 193.578125 315.789062 194.25 316.625 C 195.578125 318.277344 197.582031 319.386719 199.714844 319.675781 C 199.976562 319.726562 200.25 319.730469 200.519531 319.746094 C 200.785156 319.773438 201.054688 319.75 201.324219 319.742188 C 201.59375 319.746094 201.863281 319.699219 202.132812 319.667969 C 202.382812 319.640625 202.71875 319.578125 203.039062 319.523438 L 206.875 318.839844 L 214.550781 317.472656 L 218.386719 316.792969 C 219.015625 316.675781 219.6875 316.566406 220.28125 316.449219 L 221.085938 316.257812 C 221.347656 316.179688 221.601562 316.078125 221.863281 315.992188 C 223.890625 315.199219 225.636719 313.636719 226.566406 311.652344 C 227.503906 309.675781 227.613281 307.363281 226.867188 305.304688 Z M 226.867188 305.304688 " fill-opacity="1" fill-rule="nonzero"/><path fill="#ff89a9" d="M 177.71875 237.371094 L 172.210938 251.972656 C 170.597656 253.253906 167.679688 255.097656 164.289062 257.148438 C 156.324219 261.953125 145.761719 267.871094 143.441406 270.085938 L 114.378906 297.824219 L 113.0625 299.078125 C 112.472656 299.640625 111.832031 300.117188 111.148438 300.507812 C 107.40625 302.632812 102.523438 302.121094 99.144531 299 L 85.90625 286.78125 C 81.203125 282.4375 81.433594 275.035156 86.402344 271.277344 L 88.253906 269.878906 L 158.523438 216.769531 C 162.3125 213.90625 167.683594 214.152344 171.371094 217.359375 L 177.136719 222.382812 C 181.703125 226.363281 181.972656 233.304688 177.71875 237.371094 Z M 177.71875 237.371094 " fill-opacity="1" fill-rule="nonzero"/><path fill="#f6f4f1" d="M 129.691406 245.0625 L 96.070312 268.949219 L 92.519531 268.390625 L 90.625 268.085938 L 88.71875 267.785156 L 126.644531 239.335938 L 127.226562 240.425781 L 127.804688 241.515625 Z M 129.691406 245.0625 " fill-opacity="1" fill-rule="nonzero"/><path fill="#ff89a9" d="M 165.539062 254.214844 C 165.515625 254.378906 165.050781 255.449219 164.285156 257.148438 C 156.324219 261.953125 145.757812 267.871094 143.4375 270.085938 L 114.375 297.824219 L 113.0625 299.078125 C 112.46875 299.640625 111.828125 300.117188 111.144531 300.507812 L 112.421875 279.429688 L 148.074219 252.027344 C 148.078125 252.027344 165.722656 253.125 165.539062 254.214844 Z M 165.539062 254.214844 " fill-opacity="1" fill-rule="nonzero"/><path fill="#2b2b2b" d="M 177.0625 236.964844 L 177.011719 237.101562 L 171.597656 251.527344 C 171.351562 251.671875 171.113281 251.8125 170.882812 251.96875 L 170.535156 252.199219 L 170.113281 252.453125 C 169.558594 252.804688 169.007812 253.15625 168.4375 253.496094 C 167.3125 254.183594 166.160156 254.839844 165.019531 255.5 C 165.015625 255.5 165.015625 255.503906 165.007812 255.503906 L 158.058594 259.425781 C 155.734375 260.726562 153.417969 262.054688 151.101562 263.390625 C 149.941406 264.054688 148.792969 264.742188 147.644531 265.441406 C 146.496094 266.152344 145.355469 266.859375 144.207031 267.652344 L 143.351562 268.261719 L 142.464844 268.996094 L 141.003906 270.363281 L 132.308594 278.625 L 120.753906 289.683594 L 114.976562 295.210938 L 112.089844 297.972656 C 111.824219 298.226562 111.546875 298.464844 111.257812 298.675781 C 110.636719 299.140625 109.960938 299.515625 109.226562 299.78125 C 107.101562 300.585938 104.644531 300.480469 102.550781 299.53125 C 102.285156 299.421875 102.035156 299.28125 101.789062 299.140625 C 101.53125 299.011719 101.296875 298.839844 101.0625 298.675781 C 100.816406 298.523438 100.601562 298.332031 100.378906 298.148438 C 100.167969 297.980469 99.917969 297.75 99.671875 297.519531 L 96.730469 294.8125 L 90.851562 289.398438 L 87.910156 286.6875 C 86.867188 285.742188 86.066406 285 85.429688 284.023438 C 84.125 282.121094 83.664062 279.679688 84.109375 277.441406 C 84.332031 276.320312 84.777344 275.25 85.425781 274.308594 C 85.601562 274.085938 85.746094 273.839844 85.941406 273.632812 C 86.136719 273.433594 86.324219 273.214844 86.527344 273.011719 L 87.179688 272.457031 C 87.414062 272.265625 87.703125 272.058594 87.960938 271.855469 L 92.519531 268.390625 L 127.808594 241.519531 L 138.851562 233.109375 L 151.5625 223.402344 L 157.914062 218.539062 L 158.707031 217.933594 L 159.101562 217.632812 L 159.472656 217.367188 C 159.710938 217.191406 159.96875 217.039062 160.230469 216.894531 C 160.484375 216.738281 160.761719 216.632812 161.03125 216.5 C 162.128906 216.015625 163.328125 215.789062 164.527344 215.777344 C 165.730469 215.777344 166.941406 215.988281 168.0625 216.449219 C 168.617188 216.679688 169.164062 216.949219 169.671875 217.285156 C 169.925781 217.445312 170.179688 217.617188 170.414062 217.8125 L 170.773438 218.097656 L 171.152344 218.421875 L 174.183594 221.027344 L 175.699219 222.332031 L 176.457031 222.980469 C 176.699219 223.195312 176.902344 223.410156 177.128906 223.621094 C 178.847656 225.355469 179.882812 227.753906 179.90625 230.207031 L 179.90625 230.371094 C 179.90625 232.765625 178.925781 235.144531 177.195312 236.820312 Z M 178.40625 222.371094 C 178.148438 222.125 177.882812 221.851562 177.632812 221.625 L 175.382812 219.644531 L 172.378906 217 L 172.007812 216.667969 L 171.585938 216.324219 C 171.3125 216.089844 171.015625 215.882812 170.707031 215.683594 C 170.105469 215.273438 169.453125 214.945312 168.789062 214.660156 C 167.449219 214.09375 165.988281 213.808594 164.527344 213.792969 C 163.066406 213.785156 161.59375 214.046875 160.238281 214.625 C 159.90625 214.773438 159.5625 214.90625 159.242188 215.097656 C 158.917969 215.269531 158.601562 215.453125 158.300781 215.667969 L 157.851562 215.976562 L 157.449219 216.28125 L 156.648438 216.875 L 150.238281 221.65625 L 137.433594 231.234375 L 126.640625 239.335938 L 88.71875 267.785156 L 86.273438 269.621094 C 86 269.828125 85.746094 270.007812 85.464844 270.238281 L 84.597656 270.976562 C 84.328125 271.242188 84.070312 271.527344 83.8125 271.804688 C 83.550781 272.089844 83.347656 272.410156 83.117188 272.714844 C 82.242188 273.96875 81.640625 275.402344 81.347656 276.894531 C 80.746094 279.871094 81.359375 283.078125 83.054688 285.59375 C 83.242188 285.921875 83.503906 286.203125 83.726562 286.503906 C 83.949219 286.8125 84.214844 287.085938 84.476562 287.351562 L 84.871094 287.757812 C 85.007812 287.890625 85.117188 287.988281 85.246094 288.105469 L 85.976562 288.789062 L 88.910156 291.5 L 94.777344 296.929688 L 97.710938 299.648438 C 97.953125 299.871094 98.1875 300.09375 98.496094 300.347656 C 98.78125 300.589844 99.070312 300.839844 99.390625 301.042969 C 99.699219 301.261719 100.011719 301.484375 100.34375 301.660156 C 100.671875 301.84375 101.007812 302.03125 101.355469 302.175781 C 104.117188 303.4375 107.375 303.59375 110.253906 302.523438 C 111.6875 302 113.019531 301.148438 114.113281 300.097656 L 117.007812 297.34375 L 134.386719 280.808594 L 140.15625 275.273438 L 143.039062 272.507812 L 144.476562 271.121094 L 145.121094 270.570312 L 145.882812 270.007812 C 147.964844 268.511719 150.257812 267.128906 152.496094 265.71875 L 159.296875 261.527344 C 161.566406 260.128906 163.835938 258.722656 166.074219 257.25 C 167.195312 256.519531 168.3125 255.777344 169.417969 255.011719 C 169.976562 254.636719 170.527344 254.230469 171.066406 253.828125 L 171.476562 253.53125 L 171.929688 253.167969 C 172.234375 252.917969 172.53125 252.664062 172.820312 252.414062 L 178.363281 237.792969 C 180.390625 235.835938 181.566406 233.023438 181.554688 230.195312 C 181.578125 227.316406 180.414062 224.445312 178.40625 222.371094 Z M 178.40625 222.371094 " fill-opacity="1" fill-rule="nonzero"/><path fill="#ff89a9" d="M 121.132812 234.039062 L 120.03125 238.96875 C 119.554688 241.105469 120.753906 243.253906 122.820312 243.96875 C 130.691406 246.683594 149.882812 253.09375 165.3125 256.535156 C 180.785156 259.988281 201.699219 262.910156 210.265625 264.046875 C 212.472656 264.335938 214.535156 262.894531 215.019531 260.722656 L 217.0625 251.5625 C 217.59375 249.179688 216.03125 246.828125 213.625 246.398438 L 126.082031 230.746094 C 123.816406 230.335938 121.632812 231.789062 121.132812 234.039062 Z M 121.132812 234.039062 " fill-opacity="1" fill-rule="nonzero"/><path fill="#ff89a9" d="M 121.359375 231.71875 L 120.261719 236.652344 C 119.785156 238.785156 120.984375 240.933594 123.050781 241.644531 C 130.917969 244.363281 150.113281 250.773438 165.542969 254.214844 C 181.015625 257.667969 201.929688 260.589844 210.496094 261.726562 C 212.703125 262.015625 214.765625 260.574219 215.25 258.398438 L 217.292969 249.242188 C 217.824219 246.855469 216.261719 244.507812 213.855469 244.078125 L 126.3125 228.425781 C 124.046875 228.019531 121.863281 229.472656 121.359375 231.71875 Z M 121.359375 231.71875 " fill-opacity="1" fill-rule="nonzero"/><path fill="#2b2b2b" d="M 125.316406 231.429688 C 123.6875 231.429688 122.238281 232.554688 121.871094 234.203125 L 120.769531 239.132812 C 120.378906 240.894531 121.367188 242.660156 123.066406 243.25 C 130.671875 245.871094 150.019531 252.34375 165.476562 255.792969 C 180.980469 259.25 202.03125 262.1875 210.363281 263.292969 C 212.191406 263.53125 213.878906 262.355469 214.277344 260.554688 L 216.320312 251.394531 C 216.535156 250.449219 216.355469 249.476562 215.8125 248.664062 C 215.273438 247.851562 214.449219 247.3125 213.488281 247.144531 L 125.945312 231.492188 C 125.734375 231.449219 125.527344 231.429688 125.316406 231.429688 Z M 210.847656 264.839844 C 210.621094 264.839844 210.394531 264.824219 210.164062 264.792969 C 201.8125 263.691406 180.707031 260.742188 165.148438 257.273438 C 149.613281 253.808594 130.199219 247.3125 122.574219 244.679688 C 120.140625 243.84375 118.730469 241.316406 119.289062 238.800781 L 120.390625 233.867188 C 120.984375 231.21875 123.539062 229.515625 126.214844 229.992188 L 213.757812 245.644531 C 215.128906 245.886719 216.304688 246.664062 217.078125 247.820312 C 217.847656 248.980469 218.105469 250.363281 217.804688 251.722656 L 215.761719 260.878906 C 215.234375 263.234375 213.1875 264.839844 210.847656 264.839844 Z M 210.847656 264.839844 " fill-opacity="1" fill-rule="nonzero"/><path fill="#ff89a9" d="M 224.777344 246.363281 C 222.84375 254.476562 213.308594 257.121094 202.621094 257.375 C 186.800781 257.746094 168.449219 252.90625 168.449219 252.90625 C 168.449219 252.90625 149.773438 249.492188 135.621094 242.429688 C 130 239.625 125.082031 236.246094 122.335938 232.273438 C 120.410156 229.488281 119.539062 226.414062 120.242188 223.046875 C 123.457031 207.539062 147.914062 170.464844 159.230469 153.914062 C 162.699219 148.832031 164.933594 145.683594 164.933594 145.683594 L 190.695312 153.160156 L 217.203125 157.339844 C 217.203125 157.339844 229.589844 226.234375 224.777344 246.363281 Z M 224.777344 246.363281 " fill-opacity="1" fill-rule="nonzero"/><path fill="#ff89a9" d="M 171.972656 167.949219 C 171.972656 167.949219 167.859375 171.363281 164.28125 177.207031 C 160.707031 183.054688 145.722656 196.453125 139.976562 199.007812 C 134.238281 201.566406 121.597656 225.566406 122.664062 230.675781 C 122.816406 231.398438 122.679688 231.910156 122.335938 232.269531 C 120.410156 229.488281 119.539062 226.414062 120.242188 223.042969 C 123.457031 207.539062 147.914062 170.464844 159.230469 153.914062 Z M 171.972656 167.949219 " fill-opacity="1" fill-rule="nonzero"/><path fill="#2b2b2b" d="M 223.132812 245.972656 C 223.851562 242.554688 224.082031 238.867188 224.203125 235.199219 C 224.3125 231.519531 224.246094 227.8125 224.101562 224.105469 C 223.789062 216.683594 223.171875 209.257812 222.421875 201.839844 C 221.65625 194.421875 220.757812 187.015625 219.757812 179.621094 C 218.757812 172.226562 217.664062 164.835938 216.457031 157.476562 L 217.085938 158.089844 L 190.582031 153.914062 L 190.535156 153.90625 L 190.488281 153.890625 L 164.726562 146.410156 L 165.554688 146.121094 L 165.550781 146.121094 C 158.386719 156.425781 151.449219 166.90625 144.769531 177.53125 C 141.441406 182.851562 138.183594 188.214844 135.054688 193.648438 C 131.949219 199.089844 128.914062 204.578125 126.253906 210.21875 C 124.925781 213.039062 123.664062 215.890625 122.65625 218.800781 C 122.386719 219.523438 122.191406 220.257812 121.953125 220.988281 C 121.726562 221.71875 121.585938 222.453125 121.394531 223.183594 C 121.128906 224.589844 121.113281 226 121.402344 227.375 C 122.027344 230.132812 123.816406 232.589844 126.003906 234.617188 C 128.203125 236.65625 130.761719 238.367188 133.453125 239.851562 C 136.140625 241.34375 138.96875 242.621094 141.832031 243.800781 C 144.710938 244.960938 147.648438 245.984375 150.613281 246.933594 C 153.582031 247.878906 156.585938 248.714844 159.605469 249.484375 C 162.621094 250.246094 165.6875 250.941406 168.707031 251.507812 L 168.757812 251.519531 L 168.816406 251.535156 C 171.230469 252.136719 173.726562 252.671875 176.199219 253.15625 C 178.679688 253.640625 181.171875 254.070312 183.667969 254.4375 C 188.664062 255.183594 193.691406 255.683594 198.699219 255.796875 C 201.203125 255.847656 203.703125 255.820312 206.171875 255.59375 C 208.636719 255.378906 211.074219 255.003906 213.398438 254.351562 C 215.707031 253.691406 217.902344 252.730469 219.664062 251.34375 C 221.4375 249.972656 222.601562 248.089844 223.132812 245.972656 Z M 226.421875 246.757812 C 225.726562 249.582031 224 252.230469 221.710938 253.945312 C 219.4375 255.695312 216.847656 256.761719 214.261719 257.480469 C 211.664062 258.179688 209.039062 258.554688 206.429688 258.761719 C 203.8125 258.976562 201.210938 258.980469 198.617188 258.90625 C 193.433594 258.742188 188.300781 258.183594 183.21875 257.378906 C 180.675781 256.984375 178.148438 256.523438 175.628906 256.007812 C 173.101562 255.488281 170.613281 254.9375 168.089844 254.28125 L 168.195312 254.304688 C 165.046875 253.683594 161.988281 252.957031 158.914062 252.152344 C 155.851562 251.347656 152.808594 250.46875 149.792969 249.480469 C 146.777344 248.488281 143.789062 247.417969 140.847656 246.199219 C 137.914062 244.960938 135.011719 243.621094 132.21875 242.039062 C 129.425781 240.460938 126.726562 238.640625 124.335938 236.382812 C 123.15625 235.234375 122.019531 234.011719 121.117188 232.574219 C 120.21875 231.152344 119.453125 229.582031 119.109375 227.871094 C 118.757812 226.164062 118.796875 224.382812 119.140625 222.707031 C 119.347656 221.917969 119.515625 221.109375 119.761719 220.339844 C 120.015625 219.578125 120.234375 218.796875 120.519531 218.046875 C 121.597656 215.027344 122.910156 212.132812 124.285156 209.28125 C 127.035156 203.574219 130.140625 198.078125 133.3125 192.632812 C 136.503906 187.199219 139.824219 181.851562 143.207031 176.542969 C 150 165.941406 157.035156 155.515625 164.316406 145.242188 L 164.628906 144.800781 L 165.148438 144.949219 L 190.910156 152.429688 L 190.820312 152.410156 L 217.324219 156.589844 L 217.855469 156.671875 L 217.949219 157.203125 C 219.332031 164.5625 220.59375 171.929688 221.765625 179.320312 C 222.9375 186.710938 224.011719 194.117188 224.949219 201.550781 C 225.871094 208.980469 226.664062 216.4375 227.15625 223.941406 C 227.382812 227.695312 227.539062 231.464844 227.519531 235.253906 C 227.484375 239.050781 227.316406 242.871094 226.421875 246.757812 Z M 226.421875 246.757812 " fill-opacity="1" fill-rule="nonzero"/><path fill="#ff89a9" d="M 205.914062 177.492188 C 205.914062 177.492188 206.984375 210.148438 224.683594 218.140625 L 224.6875 218.140625 C 223.34375 201.8125 220.699219 183.660156 218.851562 172.058594 C 214.113281 173.800781 205.914062 177.492188 205.914062 177.492188 Z M 205.914062 177.492188 " fill-opacity="1" fill-rule="nonzero"/><path fill="#2b2b2b" d="M 206.695312 177.972656 C 206.925781 182.003906 209.003906 208.875 223.820312 216.867188 C 222.496094 201.480469 220.101562 184.808594 218.246094 173.097656 C 214.214844 174.636719 208.378906 177.21875 206.695312 177.972656 Z M 225.53125 219.132812 L 224.371094 218.832031 C 206.449219 210.738281 205.199219 178.871094 205.15625 177.519531 L 205.136719 177.007812 L 205.601562 176.800781 C 205.683594 176.765625 213.878906 173.082031 218.585938 171.347656 L 219.453125 171.027344 L 219.597656 171.9375 C 221.527344 184.042969 224.109375 201.875 225.441406 218.078125 Z M 225.53125 219.132812 " fill-opacity="1" fill-rule="nonzero"/><path fill="#ff89a9" d="M 167.582031 166.417969 C 167.582031 166.417969 152.734375 195.523438 133.316406 195.238281 L 133.3125 195.234375 C 141.464844 181.027344 151.574219 165.714844 158.179688 156.003906 C 161.726562 159.59375 167.582031 166.417969 167.582031 166.417969 Z M 167.582031 166.417969 " fill-opacity="1" fill-rule="nonzero"/><path fill="#2b2b2b" d="M 158.285156 157.195312 C 151.628906 167.011719 142.371094 181.089844 134.636719 194.453125 C 151.441406 193.511719 164.746094 170.070312 166.667969 166.519531 C 165.460938 165.125 161.277344 160.308594 158.285156 157.195312 Z M 133.605469 195.996094 C 133.503906 195.996094 133.40625 195.996094 133.304688 195.992188 L 133.167969 195.980469 L 132.132812 195.773438 L 132.652344 194.859375 C 140.742188 180.761719 150.65625 165.71875 157.550781 155.578125 L 158.070312 154.816406 L 158.71875 155.472656 C 162.242188 159.039062 168.097656 165.859375 168.15625 165.925781 L 168.484375 166.3125 L 168.253906 166.761719 C 167.644531 167.960938 153.117188 195.996094 133.605469 195.996094 Z M 133.605469 195.996094 " fill-opacity="1" fill-rule="nonzero"/><path fill="#ff89a9" d="M 211.148438 219.144531 L 202.621094 257.375 C 186.800781 257.746094 168.453125 252.90625 168.453125 252.90625 C 168.453125 252.90625 153.117188 250.101562 139.710938 244.324219 C 138.324219 243.722656 136.953125 243.089844 135.625 242.429688 L 144.148438 204.199219 C 144.945312 200.621094 148.492188 198.371094 152.0625 199.167969 L 159.742188 200.882812 L 206.117188 211.230469 C 209.695312 212.027344 211.945312 215.566406 211.148438 219.144531 Z M 211.148438 219.144531 " fill-opacity="1" fill-rule="nonzero"/><path fill="#ff89a9" d="M 162.695312 202.515625 C 162.695312 202.515625 150.171875 200.105469 148.078125 204.976562 C 146.324219 209.058594 141.300781 235.753906 139.710938 244.324219 C 138.320312 243.722656 136.949219 243.089844 135.621094 242.429688 L 144.144531 204.199219 C 144.945312 200.621094 148.492188 198.371094 152.058594 199.167969 L 159.738281 200.882812 Z M 162.695312 202.515625 " fill-opacity="1" fill-rule="nonzero"/><path fill="#2b2b2b" d="M 210.21875 218.9375 C 210.425781 217.929688 210.398438 216.867188 210.054688 215.894531 C 209.738281 214.914062 209.121094 214.035156 208.34375 213.367188 C 207.949219 213.035156 207.511719 212.765625 207.046875 212.542969 C 206.808594 212.449219 206.574219 212.339844 206.324219 212.273438 L 205.953125 212.171875 L 205.519531 212.070312 L 202 211.285156 L 187.921875 208.148438 L 159.769531 201.867188 L 152.734375 200.296875 L 151.855469 200.097656 C 151.597656 200.066406 151.347656 199.992188 151.089844 199.988281 C 150.574219 199.929688 150.058594 199.988281 149.554688 200.066406 C 149.050781 200.167969 148.558594 200.335938 148.09375 200.558594 C 147.640625 200.804688 147.199219 201.074219 146.820312 201.429688 C 146.445312 201.777344 146.097656 202.164062 145.828125 202.601562 C 145.546875 203.03125 145.339844 203.507812 145.1875 204 L 145.085938 204.375 L 144.984375 204.808594 L 144.398438 207.445312 L 142.820312 214.484375 L 139.613281 228.542969 L 138.003906 235.574219 L 136.359375 242.597656 L 135.957031 241.753906 C 138.519531 243 141.136719 244.148438 143.808594 245.167969 C 146.484375 246.175781 149.1875 247.125 151.929688 247.960938 C 154.667969 248.804688 157.425781 249.582031 160.207031 250.285156 C 162.984375 250.980469 165.789062 251.628906 168.582031 252.167969 L 168.613281 252.171875 L 168.640625 252.179688 C 171.398438 252.878906 174.214844 253.488281 177.023438 254.035156 C 179.839844 254.582031 182.667969 255.050781 185.503906 255.449219 C 188.339844 255.859375 191.191406 256.148438 194.042969 256.371094 C 196.894531 256.585938 199.75 256.65625 202.601562 256.621094 L 201.878906 257.210938 L 203.933594 247.636719 L 206.027344 238.070312 Z M 212.078125 219.351562 L 207.738281 238.449219 L 205.570312 247.996094 L 203.359375 257.535156 L 203.222656 258.128906 L 202.636719 258.128906 C 199.730469 258.167969 196.824219 258.09375 193.933594 257.878906 C 191.042969 257.652344 188.160156 257.359375 185.296875 256.945312 C 182.433594 256.542969 179.578125 256.0625 176.738281 255.515625 C 173.898438 254.964844 171.082031 254.355469 168.257812 253.640625 L 168.3125 253.652344 C 165.453125 253.101562 162.644531 252.453125 159.839844 251.746094 C 157.035156 251.039062 154.25 250.257812 151.484375 249.40625 C 148.714844 248.558594 145.980469 247.601562 143.269531 246.578125 C 140.558594 245.542969 137.898438 244.375 135.28125 243.105469 L 134.75 242.863281 L 134.878906 242.261719 L 136.371094 235.207031 L 137.902344 228.160156 L 140.972656 214.066406 L 142.539062 207.027344 L 142.929688 205.269531 L 143.128906 204.390625 L 143.230469 203.945312 L 143.363281 203.449219 C 143.5625 202.792969 143.84375 202.15625 144.222656 201.578125 C 144.578125 200.992188 145.042969 200.472656 145.546875 200.011719 C 146.050781 199.539062 146.640625 199.171875 147.242188 198.855469 C 147.863281 198.554688 148.515625 198.332031 149.191406 198.195312 C 149.867188 198.085938 150.558594 198.015625 151.246094 198.09375 C 151.589844 198.101562 151.921875 198.191406 152.261719 198.242188 L 153.144531 198.4375 L 160.179688 200.007812 L 188.335938 206.289062 L 202.410156 209.429688 L 205.929688 210.214844 L 206.375 210.3125 L 206.871094 210.449219 C 207.203125 210.539062 207.519531 210.683594 207.835938 210.808594 C 208.457031 211.105469 209.046875 211.46875 209.570312 211.914062 C 210.613281 212.808594 211.425781 213.976562 211.855469 215.285156 C 212.3125 216.582031 212.355469 218.011719 212.078125 219.351562 Z M 212.078125 219.351562 " fill-opacity="1" fill-rule="nonzero"/><path fill="#2b2b2b" d="M 131.140625 280.953125 C 123.867188 259.660156 107.699219 257.132812 107.015625 257.035156 L 107.425781 254.050781 C 108.183594 254.15625 126.09375 256.855469 133.988281 279.980469 Z M 131.140625 280.953125 " fill-opacity="1" fill-rule="nonzero"/><path fill="#2b2b2b" d="M 185.429688 287.777344 L 183.289062 285.65625 C 183.828125 285.113281 196.734375 272.40625 219.96875 279.964844 L 219.035156 282.828125 C 197.640625 275.871094 185.914062 287.285156 185.429688 287.777344 Z M 185.429688 287.777344 " fill-opacity="1" fill-rule="nonzero"/><path fill="#ff89a9" d="M 113.917969 300.664062 C 108.652344 306.363281 100.25 303.410156 91.765625 295.582031 C 90.679688 294.574219 89.640625 293.542969 88.679688 292.484375 C 84.265625 287.679688 81.246094 282.480469 81.121094 278.082031 C 81.054688 275.917969 81.691406 273.949219 83.203125 272.3125 C 86.082031 269.1875 90.71875 268.296875 95.722656 269.402344 C 99.867188 270.320312 104.246094 272.613281 108.085938 276.160156 C 109.210938 277.203125 110.230469 278.292969 111.148438 279.425781 C 117.125 286.816406 118.480469 295.722656 113.917969 300.664062 Z M 113.917969 300.664062 " fill-opacity="1" fill-rule="nonzero"/><path fill="#f6f4f1" d="M 95.722656 269.402344 C 95.152344 269.535156 84.410156 272.046875 81.121094 278.082031 C 81.054688 275.917969 81.691406 273.949219 83.203125 272.3125 C 86.082031 269.191406 90.71875 268.296875 95.722656 269.402344 Z M 95.722656 269.402344 " fill-opacity="1" fill-rule="nonzero"/><path fill="#ff89a9" d="M 113.917969 300.664062 C 108.652344 306.363281 100.25 303.410156 91.765625 295.582031 C 90.679688 294.574219 89.640625 293.542969 88.679688 292.484375 C 93.15625 295.058594 98.164062 295.574219 101.054688 296.4375 C 109.667969 299.011719 111.148438 279.425781 111.148438 279.425781 C 117.125 286.816406 118.480469 295.722656 113.917969 300.664062 Z M 113.917969 300.664062 " fill-opacity="1" fill-rule="nonzero"/><g clip-path="url(#e353a7d179)"><path fill="#2b2b2b" d="M 112.832031 299.664062 C 114.152344 298.289062 114.976562 296.441406 115.214844 294.433594 C 115.472656 292.425781 115.207031 290.3125 114.636719 288.273438 C 113.46875 284.183594 111.046875 280.398438 107.960938 277.320312 C 104.882812 274.226562 101.097656 271.75 96.917969 270.511719 C 94.835938 269.890625 92.65625 269.585938 90.53125 269.773438 C 88.410156 269.949219 86.34375 270.664062 84.746094 271.976562 C 83.953125 272.640625 83.273438 273.421875 82.804688 274.300781 C 82.320312 275.179688 82.097656 276.175781 82.03125 277.179688 C 81.925781 279.214844 82.5625 281.300781 83.472656 283.230469 C 84.394531 285.171875 85.613281 286.992188 86.972656 288.703125 C 88.34375 290.410156 89.847656 292.019531 91.449219 293.519531 C 93.050781 295.027344 94.738281 296.441406 96.5 297.714844 C 98.261719 298.980469 100.117188 300.105469 102.050781 300.910156 C 103.980469 301.707031 105.996094 302.164062 107.886719 302.046875 C 109.765625 301.898438 111.472656 301.070312 112.832031 299.664062 Z M 115 301.664062 L 114.308594 302.339844 C 114.074219 302.5625 113.855469 302.800781 113.578125 302.980469 C 113.050781 303.367188 112.53125 303.773438 111.921875 304.046875 C 111.621094 304.1875 111.339844 304.375 111.023438 304.472656 L 110.078125 304.792969 C 109.765625 304.914062 109.4375 304.9375 109.113281 305.003906 C 108.789062 305.050781 108.460938 305.132812 108.136719 305.144531 C 105.515625 305.332031 103.050781 304.628906 100.867188 303.644531 C 98.671875 302.652344 96.695312 301.355469 94.851562 299.945312 C 93.007812 298.519531 91.277344 296.992188 89.671875 295.339844 C 86.464844 292.046875 83.554688 288.375 81.636719 284.066406 C 80.714844 281.914062 80.042969 279.535156 80.25 277.054688 C 80.367188 275.828125 80.710938 274.589844 81.324219 273.5 C 81.941406 272.402344 82.785156 271.476562 83.730469 270.71875 C 85.660156 269.207031 88.046875 268.417969 90.402344 268.242188 C 92.769531 268.0625 95.117188 268.402344 97.351562 269.042969 C 101.816406 270.363281 105.847656 272.855469 109.242188 275.996094 C 110.941406 277.570312 112.460938 279.34375 113.785156 281.269531 C 115.105469 283.195312 116.195312 285.304688 116.953125 287.5625 C 117.710938 289.8125 118.105469 292.246094 117.894531 294.722656 C 117.699219 297.1875 116.738281 299.71875 115 301.664062 Z M 115 301.664062 " fill-opacity="1" fill-rule="nonzero"/></g><path fill="#ff89a9" d="M 231.289062 313.246094 C 228.839844 317.382812 222.859375 320.207031 214.988281 321.65625 C 203.632812 323.742188 192.640625 322.171875 191.234375 314.546875 C 190.257812 309.25 193.839844 303.839844 199.921875 300.328125 C 199.925781 300.320312 199.925781 300.320312 199.925781 300.320312 C 202.609375 298.773438 205.777344 297.589844 209.253906 296.953125 C 220.605469 294.863281 230.941406 299.359375 232.34375 306.988281 C 232.773438 309.324219 232.378906 311.417969 231.289062 313.246094 Z M 231.289062 313.246094 " fill-opacity="1" fill-rule="nonzero"/><path fill="#ff89a9" d="M 231.289062 313.246094 C 228.839844 317.382812 222.859375 320.207031 214.988281 321.65625 C 203.632812 323.742188 192.640625 322.171875 191.234375 314.546875 C 190.257812 309.25 193.839844 303.839844 199.921875 300.328125 C 199.816406 300.640625 195.332031 313.816406 210.734375 315.742188 C 219.792969 316.875 226.910156 315.007812 231.289062 313.246094 Z M 231.289062 313.246094 " fill-opacity="1" fill-rule="nonzero"/><path fill="#2b2b2b" d="M 231.355469 307.167969 C 231.019531 305.179688 229.972656 303.320312 228.449219 301.875 C 226.9375 300.417969 225.035156 299.324219 223.007812 298.578125 C 218.929688 297.066406 214.382812 296.886719 210.078125 297.636719 C 205.769531 298.386719 201.5625 300.015625 198.152344 302.667969 C 196.457031 303.988281 194.960938 305.554688 193.882812 307.339844 C 192.808594 309.113281 192.203125 311.125 192.300781 313.09375 C 192.363281 314.078125 192.582031 315.035156 192.980469 315.875 C 193.375 316.722656 193.988281 317.449219 194.714844 318.070312 C 196.1875 319.3125 198.167969 320.054688 200.214844 320.488281 C 202.277344 320.921875 204.4375 321.074219 206.605469 321.042969 C 208.773438 321.003906 210.953125 320.820312 213.121094 320.492188 C 217.4375 319.820312 221.777344 318.828125 225.535156 316.828125 C 227.394531 315.820312 229.078125 314.523438 230.195312 312.871094 C 231.300781 311.214844 231.671875 309.191406 231.355469 307.167969 Z M 233.332031 306.808594 L 233.457031 307.726562 C 233.492188 308.035156 233.554688 308.339844 233.53125 308.65625 C 233.527344 309.28125 233.539062 309.910156 233.398438 310.535156 C 233.234375 311.796875 232.710938 312.980469 232.089844 314.070312 C 230.746094 316.203125 228.816406 317.792969 226.777344 319.011719 C 224.730469 320.230469 222.535156 321.097656 220.320312 321.796875 C 218.097656 322.492188 215.839844 323.011719 213.558594 323.367188 C 209.003906 324.0625 204.292969 324.273438 199.605469 323.246094 C 198.4375 322.972656 197.277344 322.605469 196.152344 322.101562 C 195.03125 321.589844 193.925781 320.953125 192.964844 320.085938 C 192.011719 319.222656 191.175781 318.152344 190.660156 316.941406 C 190.128906 315.726562 189.890625 314.4375 189.859375 313.179688 C 189.816406 310.628906 190.683594 308.179688 192.007812 306.164062 C 193.335938 304.136719 195.070312 302.464844 196.972656 301.085938 C 200.800781 298.359375 205.261719 296.722656 209.820312 296.03125 C 214.378906 295.359375 219.109375 295.597656 223.539062 297.09375 C 225.742188 297.859375 227.875 298.96875 229.664062 300.578125 C 231.460938 302.160156 232.84375 304.359375 233.332031 306.808594 Z M 233.332031 306.808594 " fill-opacity="1" fill-rule="nonzero"/><path fill="#2b2b2b" d="M 248.066406 196.332031 C 234.789062 188.773438 239.933594 171.523438 239.988281 171.347656 L 241.90625 171.941406 C 241.707031 172.585938 237.1875 187.832031 249.058594 194.589844 Z M 248.066406 196.332031 " fill-opacity="1" fill-rule="nonzero"/><path fill="#2b2b2b" d="M 123.925781 167.085938 L 123.679688 165.097656 C 135.265625 163.660156 140.84375 148.324219 140.898438 148.167969 L 142.785156 148.839844 C 142.546875 149.519531 136.746094 165.496094 123.925781 167.085938 Z M 123.925781 167.085938 " fill-opacity="1" fill-rule="nonzero"/><path fill="#ff89a9" d="M 162.695312 214.996094 C 162.695312 219.035156 159.425781 222.308594 155.390625 222.308594 C 154.660156 222.308594 153.953125 222.199219 153.285156 222 C 150.273438 221.09375 148.082031 218.296875 148.082031 214.996094 C 148.082031 211.320312 150.789062 208.289062 154.316406 207.769531 C 154.664062 207.714844 155.027344 207.6875 155.390625 207.6875 C 159.425781 207.6875 162.695312 210.957031 162.695312 214.996094 Z M 162.695312 214.996094 " fill-opacity="1" fill-rule="nonzero"/><path fill="#ff89a9" d="M 162.695312 214.996094 C 162.695312 219.035156 159.425781 222.308594 155.390625 222.308594 C 154.660156 222.308594 153.953125 222.199219 153.285156 222 C 158.792969 216.871094 155.871094 210.378906 154.316406 207.769531 C 154.664062 207.714844 155.027344 207.6875 155.390625 207.6875 C 159.425781 207.6875 162.695312 210.957031 162.695312 214.996094 Z M 162.695312 214.996094 " fill-opacity="1" fill-rule="nonzero"/><path fill="#2b2b2b" d="M 155.390625 208.445312 C 151.777344 208.445312 148.839844 211.386719 148.839844 214.996094 C 148.839844 218.605469 151.777344 221.546875 155.390625 221.546875 C 159.003906 221.546875 161.941406 218.605469 161.941406 214.996094 C 161.941406 211.382812 159 208.445312 155.390625 208.445312 Z M 155.390625 223.0625 C 150.941406 223.0625 147.324219 219.445312 147.324219 214.996094 C 147.324219 210.546875 150.941406 206.929688 155.390625 206.929688 C 159.839844 206.929688 163.457031 210.546875 163.457031 214.996094 C 163.457031 219.445312 159.835938 223.0625 155.390625 223.0625 Z M 155.390625 223.0625 " fill-opacity="1" fill-rule="nonzero"/><path fill="#ff89a9" d="M 132.804688 95.652344 L 139.109375 65.875 L 142.574219 66.417969 L 138.621094 93.035156 Z M 132.804688 95.652344 " fill-opacity="1" fill-rule="nonzero"/><path fill="#2b2b2b" d="M 139.703125 66.734375 L 133.859375 94.347656 L 137.933594 92.515625 L 141.714844 67.050781 Z M 131.753906 96.957031 L 138.519531 65.011719 L 143.433594 65.789062 L 139.308594 93.554688 Z M 131.753906 96.957031 " fill-opacity="1" fill-rule="nonzero"/><path fill="#ff89a9" d="M 138.433594 141.707031 C 138.433594 141.707031 137.609375 141.398438 136.386719 140.867188 C 133.882812 139.777344 129.722656 137.753906 127.578125 135.511719 C 124.386719 132.175781 126.058594 105.496094 127.492188 100.820312 C 128.324219 98.097656 133.398438 95.089844 137.484375 93.0625 C 140.394531 91.617188 142.804688 90.664062 142.804688 90.664062 Z M 138.433594 141.707031 " fill-opacity="1" fill-rule="nonzero"/><path fill="#ff89a9" d="M 138.433594 141.707031 C 138.433594 141.707031 137.609375 141.398438 136.386719 140.867188 C 125.042969 127.503906 135.753906 95.023438 135.753906 95.023438 L 137.480469 93.0625 C 140.394531 91.613281 142.800781 90.660156 142.800781 90.660156 Z M 138.433594 141.707031 " fill-opacity="1" fill-rule="nonzero"/><path fill="#2b2b2b" d="M 143.082031 91.367188 C 140.59375 92.46875 138.113281 93.675781 135.753906 95.023438 C 134.570312 95.695312 133.421875 96.417969 132.324219 97.175781 C 131.238281 97.945312 130.191406 98.777344 129.390625 99.707031 C 129 100.167969 128.679688 100.664062 128.542969 101.101562 C 128.382812 101.632812 128.269531 102.324219 128.164062 102.972656 C 127.960938 104.300781 127.816406 105.660156 127.691406 107.019531 C 127.429688 109.746094 127.253906 112.488281 127.140625 115.234375 C 127.019531 117.976562 126.957031 120.722656 126.992188 123.457031 C 127.035156 126.1875 127.121094 128.933594 127.496094 131.554688 C 127.546875 131.878906 127.589844 132.207031 127.660156 132.515625 L 127.753906 132.988281 L 127.875 133.4375 C 127.910156 133.589844 127.957031 133.730469 128.007812 133.859375 C 128.058594 133.988281 128.09375 134.152344 128.15625 134.246094 C 128.210938 134.34375 128.257812 134.492188 128.3125 134.554688 C 128.339844 134.585938 128.363281 134.621094 128.382812 134.65625 L 128.414062 134.710938 L 128.492188 134.792969 C 129.335938 135.679688 130.417969 136.460938 131.527344 137.191406 C 133.769531 138.632812 136.226562 139.886719 138.695312 140.996094 L 138.167969 142.414062 C 136.8125 141.976562 135.519531 141.460938 134.222656 140.902344 C 132.925781 140.347656 131.65625 139.722656 130.417969 139.003906 C 129.175781 138.28125 127.964844 137.476562 126.851562 136.402344 L 126.746094 136.304688 L 126.621094 136.152344 L 126.378906 135.835938 C 126.222656 135.625 126.152344 135.441406 126.042969 135.238281 C 125.925781 135.03125 125.882812 134.851562 125.804688 134.660156 C 125.730469 134.472656 125.660156 134.28125 125.613281 134.101562 L 125.457031 133.550781 L 125.332031 133.007812 C 125.242188 132.640625 125.1875 132.289062 125.121094 131.929688 C 124.878906 130.503906 124.765625 129.09375 124.671875 127.6875 C 124.582031 126.28125 124.539062 124.878906 124.53125 123.480469 C 124.511719 120.683594 124.582031 117.898438 124.722656 115.113281 C 124.871094 112.332031 125.082031 109.554688 125.382812 106.777344 C 125.546875 105.390625 125.726562 104.003906 125.976562 102.601562 C 126.113281 101.886719 126.226562 101.210938 126.480469 100.425781 C 126.789062 99.546875 127.285156 98.886719 127.792969 98.304688 C 128.832031 97.164062 130 96.300781 131.1875 95.5 C 132.375 94.707031 133.609375 94.011719 134.855469 93.363281 C 137.355469 92.070312 139.894531 90.933594 142.527344 89.949219 Z M 143.082031 91.367188 " fill-opacity="1" fill-rule="nonzero"/><path fill="#ff89a9" d="M 273.277344 121.238281 L 277.875 91.144531 L 274.441406 90.4375 L 268.757812 116.734375 Z M 273.277344 121.238281 " fill-opacity="1" fill-rule="nonzero"/><path fill="#2b2b2b" d="M 269.585938 116.492188 L 272.753906 119.644531 L 277.015625 91.742188 L 275.023438 91.332031 Z M 273.800781 122.828125 L 267.929688 116.980469 L 273.859375 89.539062 L 278.734375 90.550781 Z M 273.800781 122.828125 " fill-opacity="1" fill-rule="nonzero"/><path fill="#ff89a9" d="M 264.113281 160.378906 C 262.375 161.214844 259.933594 161.695312 257.683594 161.972656 C 254.542969 162.355469 251.773438 162.351562 251.773438 162.351562 L 265.679688 113.042969 C 265.679688 113.042969 268.070312 115.207031 270.59375 118.023438 C 273.503906 121.257812 276.589844 125.335938 276.425781 127.945312 C 276.117188 132.824219 268.28125 158.382812 264.113281 160.378906 Z M 264.113281 160.378906 " fill-opacity="1" fill-rule="nonzero"/><path fill="#ff89a9" d="M 257.683594 161.972656 C 254.542969 162.355469 251.773438 162.351562 251.773438 162.351562 L 265.679688 113.042969 C 265.679688 113.042969 268.070312 115.207031 270.59375 118.023438 C 270.386719 123.410156 268.855469 146.910156 257.683594 161.972656 Z M 257.683594 161.972656 " fill-opacity="1" fill-rule="nonzero"/><path fill="#2b2b2b" d="M 251.773438 163.109375 L 251.777344 161.59375 C 251.859375 161.59375 259.832031 161.59375 263.785156 159.695312 C 267.335938 157.992188 275.324219 133.351562 275.671875 127.898438 C 275.90625 124.203125 268.171875 116.324219 265.171875 113.601562 L 266.1875 112.476562 C 267.347656 113.527344 277.507812 122.902344 277.183594 127.996094 C 276.886719 132.707031 269.082031 158.839844 264.445312 161.0625 C 260.171875 163.113281 252.113281 163.109375 251.773438 163.109375 Z M 251.773438 163.109375 " fill-opacity="1" fill-rule="nonzero"/><path fill="#ff89a9" d="M 251.792969 162.296875 C 251.222656 162.953125 250.640625 163.589844 250.027344 164.214844 C 248.6875 165.609375 247.25 166.917969 245.730469 168.152344 C 242.5 170.769531 238.902344 173.015625 234.9375 174.863281 C 223.097656 180.386719 208.03125 182.320312 190.046875 179.765625 C 172.324219 175.816406 158.902344 168.695312 149.769531 159.351562 C 146.714844 156.222656 144.136719 152.851562 142.035156 149.265625 C 141.894531 149.027344 141.757812 148.789062 141.625 148.546875 C 131.027344 129.730469 133.910156 105.199219 147.515625 79.246094 C 151.519531 71.613281 156.996094 65.820312 163.414062 61.605469 C 177.382812 52.433594 195.789062 50.734375 212.992188 53.785156 C 227.203125 56.445312 241.046875 62.433594 250.980469 72.097656 C 258.550781 79.449219 263.847656 88.941406 265.296875 100.699219 C 265.84375 105.117188 266.160156 109.414062 266.257812 113.582031 C 266.746094 133.601562 262.054688 150.480469 251.792969 162.296875 Z M 251.792969 162.296875 " fill-opacity="1" fill-rule="nonzero"/><path fill="#f6f4f1" d="M 250.980469 72.097656 C 243.375 67.363281 230.832031 61.527344 210.871094 58.011719 C 191.8125 54.660156 174.90625 57.917969 163.414062 61.605469 C 177.386719 52.433594 195.792969 50.734375 212.992188 53.785156 C 227.207031 56.449219 241.050781 62.4375 250.980469 72.097656 Z M 250.980469 72.097656 " fill-opacity="1" fill-rule="nonzero"/><path fill="#ff89a9" d="M 250.027344 164.214844 C 248.6875 165.609375 247.25 166.917969 245.730469 168.152344 C 242.5 170.769531 238.902344 173.015625 234.9375 174.863281 C 223.097656 180.386719 208.03125 182.320312 190.046875 179.765625 C 172.324219 175.816406 158.902344 168.695312 149.769531 159.351562 C 146.714844 156.222656 144.136719 152.851562 142.035156 149.265625 C 141.894531 149.027344 141.757812 148.789062 141.625 148.546875 C 139.253906 138.574219 138.09375 119.878906 147.867188 101.125 C 164.105469 69.964844 180.15625 64.746094 210.054688 70.191406 C 237.25 75.144531 261.316406 94.457031 256.34375 137.261719 C 255.113281 147.878906 252.8125 156.800781 250.027344 164.214844 Z M 250.027344 164.214844 " fill-opacity="1" fill-rule="nonzero"/><path fill="#2b2b2b" d="M 250.949219 161.566406 C 255.578125 156.199219 258.941406 149.8125 261.175781 143.070312 C 262.316406 139.699219 263.125 136.21875 263.734375 132.703125 C 264.335938 129.191406 264.742188 125.632812 264.902344 122.058594 C 265.277344 114.917969 264.902344 107.722656 263.996094 100.613281 C 263.09375 93.613281 260.632812 86.835938 256.71875 80.972656 C 254.765625 78.042969 252.476562 75.332031 249.941406 72.871094 C 247.398438 70.414062 244.597656 68.222656 241.636719 66.265625 C 235.71875 62.339844 229.121094 59.453125 222.308594 57.359375 C 218.898438 56.316406 215.410156 55.488281 211.902344 54.878906 C 208.386719 54.292969 204.828125 53.902344 201.265625 53.734375 C 194.140625 53.417969 186.964844 53.984375 180.078125 55.730469 C 176.640625 56.609375 173.28125 57.785156 170.078125 59.28125 C 166.867188 60.773438 163.84375 62.632812 161.054688 64.789062 C 158.261719 66.945312 155.722656 69.425781 153.523438 72.191406 C 151.3125 74.953125 149.453125 77.941406 147.863281 81.152344 C 144.589844 87.539062 141.796875 94.179688 139.753906 101.042969 L 138.996094 103.617188 L 138.058594 107.53125 L 137.902344 108.179688 L 137.78125 108.839844 L 137.304688 111.476562 C 137.230469 111.914062 137.140625 112.351562 137.070312 112.792969 L 136.914062 114.121094 L 136.59375 116.777344 C 136.5 117.664062 136.484375 118.554688 136.421875 119.441406 L 136.347656 120.773438 L 136.308594 121.441406 L 136.316406 122.109375 C 136.351562 123.886719 136.296875 125.667969 136.5 127.4375 C 136.585938 128.320312 136.625 129.210938 136.734375 130.089844 C 136.871094 130.964844 137 131.84375 137.125 132.722656 C 137.195312 133.164062 137.238281 133.605469 137.328125 134.039062 L 137.609375 135.339844 C 137.800781 136.207031 137.96875 137.082031 138.183594 137.945312 L 138.960938 140.496094 C 139.09375 140.917969 139.207031 141.351562 139.363281 141.769531 L 139.863281 143.007812 C 140.203125 143.828125 140.519531 144.664062 140.890625 145.46875 L 142.136719 147.835938 C 142.351562 148.226562 142.550781 148.625 142.773438 149.011719 C 143 149.394531 143.230469 149.777344 143.46875 150.152344 C 143.945312 150.90625 144.441406 151.648438 144.953125 152.378906 C 147.011719 155.289062 149.382812 157.980469 151.988281 160.421875 C 157.203125 165.308594 163.332031 169.175781 169.828125 172.1875 C 176.335938 175.203125 183.234375 177.335938 190.246094 178.914062 L 190.179688 178.902344 C 195.664062 179.648438 201.203125 180.050781 206.726562 179.929688 C 209.484375 179.886719 212.238281 179.664062 214.976562 179.355469 C 217.714844 179.023438 220.421875 178.53125 223.097656 177.898438 C 225.773438 177.265625 228.394531 176.425781 230.953125 175.441406 C 233.503906 174.453125 235.992188 173.289062 238.359375 171.917969 C 243.097656 169.1875 247.394531 165.703125 250.949219 161.566406 Z M 252.632812 163.027344 C 248.882812 167.335938 244.355469 170.949219 239.40625 173.746094 C 236.933594 175.15625 234.339844 176.34375 231.6875 177.347656 C 229.03125 178.351562 226.316406 179.199219 223.558594 179.828125 C 220.796875 180.457031 218.007812 180.949219 215.199219 181.269531 C 212.390625 181.5625 209.574219 181.769531 206.753906 181.792969 C 201.113281 181.882812 195.492188 181.417969 189.925781 180.640625 L 189.890625 180.636719 L 189.859375 180.628906 C 182.753906 179 175.75 176.804688 169.121094 173.699219 C 162.503906 170.597656 156.242188 166.617188 150.898438 161.566406 C 148.230469 159.050781 145.800781 156.265625 143.695312 153.257812 C 143.164062 152.503906 142.660156 151.738281 142.171875 150.957031 C 141.929688 150.566406 141.691406 150.175781 141.460938 149.78125 C 141.230469 149.382812 141.027344 148.96875 140.808594 148.5625 L 139.511719 146.128906 C 139.125 145.296875 138.765625 144.449219 138.390625 143.609375 L 137.824219 142.347656 C 137.648438 141.925781 137.507812 141.484375 137.347656 141.054688 L 136.421875 138.449219 C 136.15625 137.566406 135.9375 136.671875 135.691406 135.78125 L 135.332031 134.441406 C 135.21875 133.996094 135.164062 133.539062 135.074219 133.085938 C 134.910156 132.175781 134.753906 131.265625 134.605469 130.355469 C 134.476562 129.441406 134.425781 128.519531 134.339844 127.605469 C 134.121094 125.765625 134.171875 123.921875 134.128906 122.082031 L 134.121094 121.390625 L 134.15625 120.703125 L 134.230469 119.324219 C 134.289062 118.40625 134.304688 117.484375 134.398438 116.574219 L 134.71875 113.835938 L 134.878906 112.46875 C 134.949219 112.015625 135.035156 111.5625 135.117188 111.109375 L 135.597656 108.398438 L 135.71875 107.722656 L 135.878906 107.054688 L 136.191406 105.714844 L 136.824219 103.039062 L 137.59375 100.402344 C 139.660156 93.375 142.488281 86.601562 145.792969 80.09375 C 149.007812 73.488281 153.695312 67.425781 159.585938 62.898438 C 162.515625 60.621094 165.691406 58.65625 169.042969 57.085938 C 172.394531 55.507812 175.894531 54.269531 179.46875 53.34375 C 186.632812 51.519531 194.042969 50.925781 201.378906 51.246094 C 205.050781 51.414062 208.699219 51.808594 212.328125 52.410156 C 215.957031 53.035156 219.527344 53.878906 223.042969 54.949219 C 230.058594 57.097656 236.875 60.066406 243.042969 64.140625 C 246.125 66.171875 249.050781 68.457031 251.71875 71.027344 C 254.382812 73.605469 256.792969 76.457031 258.863281 79.550781 C 263.011719 85.730469 265.59375 92.933594 266.527344 100.289062 C 267.445312 107.546875 267.769531 114.875 267.355469 122.195312 C 267.171875 125.855469 266.742188 129.503906 266.097656 133.121094 C 265.453125 136.734375 264.597656 140.324219 263.402344 143.8125 C 261.046875 150.785156 257.507812 157.433594 252.632812 163.027344 Z M 252.632812 163.027344 " fill-opacity="1" fill-rule="nonzero"/><path fill="#2b2b2b" d="M 254.28125 142.535156 C 251.875 155.753906 244.777344 166.96875 234.941406 174.867188 C 223.101562 180.390625 208.035156 182.324219 190.050781 179.765625 C 172.320312 175.820312 158.90625 168.699219 149.769531 159.355469 C 143.351562 148.496094 140.664062 135.5 143.070312 122.28125 C 148.503906 92.464844 177.796875 72.835938 208.507812 78.429688 C 239.214844 84.023438 259.710938 112.722656 254.28125 142.535156 Z M 254.28125 142.535156 " fill-opacity="1" fill-rule="nonzero"/><path fill="#f6f4f1" d="M 150.804688 132.398438 C 149.027344 132.53125 150.863281 146.484375 159.355469 157.296875 C 168.933594 169.5 185.769531 172.898438 186.382812 170.6875 C 187.273438 167.46875 175.039062 167.03125 164.027344 156.304688 C 154.660156 147.179688 152.765625 132.253906 150.804688 132.398438 Z M 150.804688 132.398438 " fill-opacity="1" fill-rule="nonzero"/><path fill="#f6f4f1" d="M 247.179688 123.726562 C 248.445312 123.476562 248.398438 118.269531 246.308594 112.902344 C 244.097656 107.214844 239.058594 103.144531 238.019531 103.800781 C 237.285156 104.265625 238.425781 105.859375 241.265625 111.578125 C 245.253906 119.613281 246.027344 123.953125 247.179688 123.726562 Z M 247.179688 123.726562 " fill-opacity="1" fill-rule="nonzero"/><path fill="#f6f4f1" d="M 235.710938 99.699219 C 234.863281 98.011719 231.914062 97.75 231.410156 98.527344 C 231.144531 98.945312 231.578125 99.65625 231.765625 99.964844 C 232.707031 101.5 234.976562 102.289062 235.707031 101.601562 C 236.148438 101.183594 235.992188 100.257812 235.710938 99.699219 Z M 235.710938 99.699219 " fill-opacity="1" fill-rule="nonzero"/></svg>