<svg xmlns="http://www.w3.org/2000/svg" xmlns:xlink="http://www.w3.org/1999/xlink" width="500" zoomAndPan="magnify" viewBox="0 0 375 374.999991" height="500" preserveAspectRatio="xMidYMid meet" version="1.0"><defs><g/><clipPath id="13b68c5acf"><path d="M 206 164 L 219.75 164 L 219.75 171 L 206 171 Z M 206 164 " clip-rule="nonzero"/></clipPath><clipPath id="0cd7ff1f3e"><path d="M 209 167 L 219.75 167 L 219.75 171 L 209 171 Z M 209 167 " clip-rule="nonzero"/></clipPath><clipPath id="186d5fe347"><path d="M 206 164 L 219.75 164 L 219.75 171 L 206 171 Z M 206 164 " clip-rule="nonzero"/></clipPath><clipPath id="9799a5f969"><path d="M 214 164 L 219.75 164 L 219.75 169 L 214 169 Z M 214 164 " clip-rule="nonzero"/></clipPath><clipPath id="10a06f3ddb"><path d="M 215 164 L 219.75 164 L 219.75 169 L 215 169 Z M 215 164 " clip-rule="nonzero"/></clipPath><clipPath id="78425031fe"><path d="M 214 163 L 219.75 163 L 219.75 170 L 214 170 Z M 214 163 " clip-rule="nonzero"/></clipPath><clipPath id="ca3e37a9c3"><path d="M 200 172 L 211 172 L 211 188.992188 L 200 188.992188 Z M 200 172 " clip-rule="nonzero"/></clipPath><clipPath id="dad1111258"><path d="M 200 177 L 206 177 L 206 188.992188 L 200 188.992188 Z M 200 177 " clip-rule="nonzero"/></clipPath><clipPath id="ac4f7c6d64"><path d="M 200 172 L 211 172 L 211 188.992188 L 200 188.992188 Z M 200 172 " clip-rule="nonzero"/></clipPath><clipPath id="4f4c0b1af0"><path d="M 187.5 172 L 203 172 L 203 186 L 187.5 186 Z M 187.5 172 " clip-rule="nonzero"/></clipPath><clipPath id="9f6dd5857e"><path d="M 187.5 172 L 203 172 L 203 187 L 187.5 187 Z M 187.5 172 " clip-rule="nonzero"/></clipPath><clipPath id="520b20f36b"><path d="M 187.5 180 L 194 180 L 194 187 L 187.5 187 Z M 187.5 180 " clip-rule="nonzero"/></clipPath><clipPath id="bb520497a0"><path d="M 187.5 180 L 190 180 L 190 183 L 187.5 183 Z M 187.5 180 " clip-rule="nonzero"/></clipPath><clipPath id="6fc86bf985"><path d="M 187.5 180 L 194 180 L 194 187 L 187.5 187 Z M 187.5 180 " clip-rule="nonzero"/></clipPath><clipPath id="d76e0f24bf"><path d="M 204 185 L 211 185 L 211 188.992188 L 204 188.992188 Z M 204 185 " clip-rule="nonzero"/></clipPath><clipPath id="2cb7e08fcd"><path d="M 204 184 L 211 184 L 211 188.992188 L 204 188.992188 Z M 204 184 " clip-rule="nonzero"/></clipPath><clipPath id="1d43fa8704"><path d="M 195 147.742188 L 216 147.742188 L 216 168 L 195 168 Z M 195 147.742188 " clip-rule="nonzero"/></clipPath><clipPath id="f8a256445b"><path d="M 200 147.742188 L 214 147.742188 L 214 151 L 200 151 Z M 200 147.742188 " clip-rule="nonzero"/></clipPath><clipPath id="38c9ba8325"><path d="M 195 147.742188 L 216 147.742188 L 216 168 L 195 168 Z M 195 147.742188 " clip-rule="nonzero"/></clipPath></defs><g fill="#f6f4f1" fill-opacity="1"><g transform="translate(14.357283, 208.810681)"><g><path d="M 19.890625 -34.53125 C 24.398438 -34.53125 28.222656 -33.644531 31.359375 -31.875 C 34.492188 -30.101562 36.0625 -27.363281 36.0625 -23.65625 L 24.234375 -23.65625 C 24.234375 -24.894531 23.675781 -25.769531 22.5625 -26.28125 C 21.800781 -26.707031 20.84375 -26.921875 19.6875 -26.921875 C 16.625 -26.921875 15.09375 -26.195312 15.09375 -24.75 C 15.09375 -23.9375 15.625 -23.359375 16.6875 -23.015625 C 17.75 -22.671875 19.5 -22.3125 21.9375 -21.9375 C 24.914062 -21.507812 27.40625 -21.003906 29.40625 -20.421875 C 31.414062 -19.847656 33.164062 -18.828125 34.65625 -17.359375 C 36.144531 -15.890625 36.890625 -13.832031 36.890625 -11.1875 C 36.890625 -6.882812 35.28125 -3.816406 32.0625 -1.984375 C 28.84375 -0.148438 24.632812 0.765625 19.4375 0.765625 C 16.457031 0.765625 13.644531 0.351562 11 -0.46875 C 8.351562 -1.300781 6.195312 -2.59375 4.53125 -4.34375 C 2.875 -6.09375 2.046875 -8.3125 2.046875 -11 L 13.875 -11 L 13.875 -10.734375 C 13.914062 -9.285156 14.519531 -8.273438 15.6875 -7.703125 C 16.863281 -7.128906 18.113281 -6.84375 19.4375 -6.84375 C 22.976562 -6.84375 24.75 -7.671875 24.75 -9.328125 C 24.75 -10.179688 24.191406 -10.800781 23.078125 -11.1875 C 21.972656 -11.570312 20.160156 -11.976562 17.640625 -12.40625 C 14.617188 -12.914062 12.132812 -13.46875 10.1875 -14.0625 C 8.25 -14.664062 6.554688 -15.679688 5.109375 -17.109375 C 3.660156 -18.535156 2.9375 -20.523438 2.9375 -23.078125 C 2.9375 -27.210938 4.503906 -30.15625 7.640625 -31.90625 C 10.773438 -33.65625 14.859375 -34.53125 19.890625 -34.53125 Z M 19.890625 -34.53125 "/></g></g></g><g fill="#f6f4f1" fill-opacity="1"><g transform="translate(46.892354, 208.810681)"><g><path d="M 21.296875 -34.53125 C 27.210938 -34.53125 31.863281 -33.023438 35.25 -30.015625 C 38.644531 -27.015625 40.34375 -22.632812 40.34375 -16.875 C 40.34375 -11.125 38.644531 -6.742188 35.25 -3.734375 C 31.863281 -0.734375 27.210938 0.765625 21.296875 0.765625 C 15.367188 0.765625 10.71875 -0.722656 7.34375 -3.703125 C 3.976562 -6.691406 2.296875 -11.082031 2.296875 -16.875 C 2.296875 -22.675781 3.976562 -27.066406 7.34375 -30.046875 C 10.71875 -33.035156 15.367188 -34.53125 21.296875 -34.53125 Z M 21.296875 -25.890625 C 17.117188 -25.890625 15.03125 -23.484375 15.03125 -18.671875 L 15.03125 -15.03125 C 15.03125 -10.25 17.117188 -7.859375 21.296875 -7.859375 C 25.515625 -7.859375 27.625 -10.25 27.625 -15.03125 L 27.625 -18.671875 C 27.625 -23.484375 25.515625 -25.890625 21.296875 -25.890625 Z M 21.296875 -25.890625 "/></g></g></g><g fill="#f6f4f1" fill-opacity="1"><g transform="translate(83.00708, 208.810681)"><g><path d="M 28.328125 0 L 27.5 -5.109375 C 26.175781 -3.273438 24.4375 -1.835938 22.28125 -0.796875 C 20.125 0.242188 17.851562 0.765625 15.46875 0.765625 C 11.550781 0.765625 8.609375 -0.316406 6.640625 -2.484375 C 4.679688 -4.660156 3.703125 -7.796875 3.703125 -11.890625 L 3.703125 -33.765625 L 16.4375 -33.765625 L 16.4375 -13.421875 C 16.4375 -11.972656 16.804688 -10.8125 17.546875 -9.9375 C 18.296875 -9.0625 19.351562 -8.625 20.71875 -8.625 C 22.289062 -8.625 23.566406 -9.132812 24.546875 -10.15625 C 25.523438 -11.1875 26.015625 -12.445312 26.015625 -13.9375 L 26.015625 -33.765625 L 38.75 -33.765625 L 38.75 0 Z M 28.328125 0 "/></g></g></g><g fill="#f6f4f1" fill-opacity="1"><g transform="translate(119.121806, 208.810681)"><g><path d="M 27.109375 -34.53125 C 31.023438 -34.53125 33.960938 -33.441406 35.921875 -31.265625 C 37.890625 -29.085938 38.875 -25.953125 38.875 -21.859375 L 38.875 0 L 26.15625 0 L 26.15625 -20.328125 C 26.15625 -21.773438 25.78125 -22.9375 25.03125 -23.8125 C 24.28125 -24.6875 23.222656 -25.125 21.859375 -25.125 C 20.285156 -25.125 19.007812 -24.613281 18.03125 -23.59375 C 17.050781 -22.570312 16.5625 -21.316406 16.5625 -19.828125 L 16.5625 0 L 3.84375 0 L 3.84375 -33.765625 L 14.265625 -33.765625 L 15.09375 -28.640625 C 16.414062 -30.429688 18.148438 -31.859375 20.296875 -32.921875 C 22.453125 -33.992188 24.722656 -34.53125 27.109375 -34.53125 Z M 27.109375 -34.53125 "/></g></g></g><g fill="#f6f4f1" fill-opacity="1"><g transform="translate(155.236535, 208.810681)"><g><path d="M 28.390625 0 L 27.296875 -4.796875 C 24.828125 -1.085938 21.25 0.765625 16.5625 0.765625 C 12 0.765625 8.476562 -0.722656 6 -3.703125 C 3.53125 -6.691406 2.296875 -11.101562 2.296875 -16.9375 C 2.296875 -22.738281 3.53125 -27.117188 6 -30.078125 C 8.476562 -33.046875 12 -34.53125 16.5625 -34.53125 C 20.4375 -34.53125 23.585938 -33.226562 26.015625 -30.625 L 26.015625 -46.359375 L 38.75 -46.359375 L 38.75 0 Z M 20.53125 -25.125 C 16.863281 -25.125 15.03125 -22.929688 15.03125 -18.546875 L 15.03125 -15.15625 C 15.03125 -10.800781 16.863281 -8.625 20.53125 -8.625 C 22.40625 -8.625 23.8125 -9.285156 24.75 -10.609375 C 25.6875 -11.929688 26.15625 -13.660156 26.15625 -15.796875 L 26.15625 -17.90625 C 26.15625 -20.03125 25.6875 -21.765625 24.75 -23.109375 C 23.8125 -24.453125 22.40625 -25.125 20.53125 -25.125 Z M 20.53125 -25.125 "/></g></g></g><g fill="#f6f4f1" fill-opacity="1"><g transform="translate(191.351255, 208.810681)"><g><path d="M 19.890625 -34.53125 C 24.398438 -34.53125 28.222656 -33.644531 31.359375 -31.875 C 34.492188 -30.101562 36.0625 -27.363281 36.0625 -23.65625 L 24.234375 -23.65625 C 24.234375 -24.894531 23.675781 -25.769531 22.5625 -26.28125 C 21.800781 -26.707031 20.84375 -26.921875 19.6875 -26.921875 C 16.625 -26.921875 15.09375 -26.195312 15.09375 -24.75 C 15.09375 -23.9375 15.625 -23.359375 16.6875 -23.015625 C 17.75 -22.671875 19.5 -22.3125 21.9375 -21.9375 C 24.914062 -21.507812 27.40625 -21.003906 29.40625 -20.421875 C 31.414062 -19.847656 33.164062 -18.828125 34.65625 -17.359375 C 36.144531 -15.890625 36.890625 -13.832031 36.890625 -11.1875 C 36.890625 -6.882812 35.28125 -3.816406 32.0625 -1.984375 C 28.84375 -0.148438 24.632812 0.765625 19.4375 0.765625 C 16.457031 0.765625 13.644531 0.351562 11 -0.46875 C 8.351562 -1.300781 6.195312 -2.59375 4.53125 -4.34375 C 2.875 -6.09375 2.046875 -8.3125 2.046875 -11 L 13.875 -11 L 13.875 -10.734375 C 13.914062 -9.285156 14.519531 -8.273438 15.6875 -7.703125 C 16.863281 -7.128906 18.113281 -6.84375 19.4375 -6.84375 C 22.976562 -6.84375 24.75 -7.671875 24.75 -9.328125 C 24.75 -10.179688 24.191406 -10.800781 23.078125 -11.1875 C 21.972656 -11.570312 20.160156 -11.976562 17.640625 -12.40625 C 14.617188 -12.914062 12.132812 -13.46875 10.1875 -14.0625 C 8.25 -14.664062 6.554688 -15.679688 5.109375 -17.109375 C 3.660156 -18.535156 2.9375 -20.523438 2.9375 -23.078125 C 2.9375 -27.210938 4.503906 -30.15625 7.640625 -31.90625 C 10.773438 -33.65625 14.859375 -34.53125 19.890625 -34.53125 Z M 19.890625 -34.53125 "/></g></g></g><g fill="#f6f4f1" fill-opacity="1"><g transform="translate(223.886328, 208.810681)"><g><path d="M 21.296875 -34.53125 C 26.835938 -34.53125 31.320312 -33.34375 34.75 -30.96875 C 38.175781 -28.601562 39.890625 -24.992188 39.890625 -20.140625 L 27.5625 -20.140625 C 27.5625 -23.972656 25.472656 -25.890625 21.296875 -25.890625 C 17.117188 -25.890625 15.03125 -23.484375 15.03125 -18.671875 L 15.03125 -15.03125 C 15.03125 -10.25 17.203125 -7.859375 21.546875 -7.859375 C 25.890625 -7.859375 28.0625 -9.820312 28.0625 -13.75 L 39.890625 -13.75 C 39.890625 -8.84375 38.175781 -5.195312 34.75 -2.8125 C 31.320312 -0.425781 26.835938 0.765625 21.296875 0.765625 C 15.367188 0.765625 10.71875 -0.722656 7.34375 -3.703125 C 3.976562 -6.691406 2.296875 -11.082031 2.296875 -16.875 C 2.296875 -22.675781 3.976562 -27.066406 7.34375 -30.046875 C 10.71875 -33.035156 15.367188 -34.53125 21.296875 -34.53125 Z M 21.296875 -34.53125 "/></g></g></g><g fill="#f6f4f1" fill-opacity="1"><g transform="translate(260.001057, 208.810681)"><g><path d="M 24.359375 -34.59375 C 25.335938 -34.59375 26.207031 -34.472656 26.96875 -34.234375 C 27.738281 -34.003906 28.125 -33.867188 28.125 -33.828125 L 28.125 -23.140625 L 24.046875 -23.140625 C 21.398438 -23.140625 19.488281 -22.457031 18.3125 -21.09375 C 17.144531 -19.726562 16.5625 -17.707031 16.5625 -15.03125 L 16.5625 0 L 3.84375 0 L 3.84375 -33.765625 L 14.265625 -33.765625 L 15.09375 -28.640625 C 15.851562 -30.597656 17.066406 -32.078125 18.734375 -33.078125 C 20.398438 -34.085938 22.273438 -34.59375 24.359375 -34.59375 Z M 24.359375 -34.59375 "/></g></g></g><g fill="#f6f4f1" fill-opacity="1"><g transform="translate(281.861141, 208.810681)"><g><path d="M 28.328125 0 L 27.5 -5.109375 C 26.175781 -3.273438 24.4375 -1.835938 22.28125 -0.796875 C 20.125 0.242188 17.851562 0.765625 15.46875 0.765625 C 11.550781 0.765625 8.609375 -0.316406 6.640625 -2.484375 C 4.679688 -4.660156 3.703125 -7.796875 3.703125 -11.890625 L 3.703125 -33.765625 L 16.4375 -33.765625 L 16.4375 -13.421875 C 16.4375 -11.972656 16.804688 -10.8125 17.546875 -9.9375 C 18.296875 -9.0625 19.351562 -8.625 20.71875 -8.625 C 22.289062 -8.625 23.566406 -9.132812 24.546875 -10.15625 C 25.523438 -11.1875 26.015625 -12.445312 26.015625 -13.9375 L 26.015625 -33.765625 L 38.75 -33.765625 L 38.75 0 Z M 28.328125 0 "/></g></g></g><g fill="#f6f4f1" fill-opacity="1"><g transform="translate(317.97587, 208.810681)"><g><path d="M 16.625 -30.625 C 19.050781 -33.226562 22.207031 -34.53125 26.09375 -34.53125 C 30.644531 -34.53125 34.15625 -33.046875 36.625 -30.078125 C 39.101562 -27.117188 40.34375 -22.738281 40.34375 -16.9375 C 40.34375 -11.101562 39.101562 -6.691406 36.625 -3.703125 C 34.15625 -0.722656 30.644531 0.765625 26.09375 0.765625 C 21.394531 0.765625 17.8125 -1.085938 15.34375 -4.796875 L 14.265625 0 L 3.90625 0 L 3.90625 -46.359375 L 16.625 -46.359375 Z M 22.125 -25.125 C 20.25 -25.125 18.84375 -24.453125 17.90625 -23.109375 C 16.96875 -21.765625 16.5 -20.03125 16.5 -17.90625 L 16.5 -15.796875 C 16.5 -13.660156 16.96875 -11.929688 17.90625 -10.609375 C 18.84375 -9.285156 20.25 -8.625 22.125 -8.625 C 25.789062 -8.625 27.625 -10.800781 27.625 -15.15625 L 27.625 -18.546875 C 27.625 -22.929688 25.789062 -25.125 22.125 -25.125 Z M 22.125 -25.125 "/></g></g></g><g clip-path="url(#13b68c5acf)"><path fill="#ff89a9" d="M 219.085938 167.199219 C 218.972656 167.515625 218.777344 167.820312 218.503906 168.082031 C 217.621094 168.933594 211.503906 170.039062 209.207031 170.429688 C 208.667969 170.519531 208.335938 170.574219 208.335938 170.574219 L 206.605469 168.113281 C 206.605469 168.113281 215.648438 164.335938 217.554688 164.84375 C 218.980469 165.222656 219.414062 166.261719 219.085938 167.199219 Z M 219.085938 167.199219 " fill-opacity="1" fill-rule="nonzero"/></g><g clip-path="url(#0cd7ff1f3e)"><path fill="#ff89a9" d="M 219.085938 167.199219 C 218.972656 167.515625 218.777344 167.820312 218.503906 168.082031 C 217.621094 168.933594 211.503906 170.039062 209.207031 170.429688 C 209.167969 169.800781 209.113281 169.078125 209.113281 169.078125 C 209.113281 169.078125 216.503906 168.164062 218.152344 167.355469 C 218.425781 167.21875 218.75 167.175781 219.085938 167.199219 Z M 219.085938 167.199219 " fill-opacity="1" fill-rule="nonzero"/></g><g clip-path="url(#186d5fe347)"><path fill="#2b2b2b" d="M 206.714844 168.144531 C 207.304688 168.9375 207.871094 169.710938 208.429688 170.507812 L 208.320312 170.460938 C 209.378906 170.175781 210.457031 169.980469 211.53125 169.78125 C 212.605469 169.578125 213.675781 169.363281 214.742188 169.121094 C 215.273438 169 215.800781 168.867188 216.324219 168.722656 C 216.847656 168.578125 217.367188 168.421875 217.851562 168.214844 C 217.914062 168.191406 217.96875 168.160156 218.027344 168.132812 C 218.058594 168.117188 218.085938 168.105469 218.113281 168.089844 L 218.191406 168.042969 C 218.21875 168.027344 218.246094 168.011719 218.269531 167.996094 L 218.328125 167.945312 C 218.351562 167.933594 218.375 167.910156 218.394531 167.886719 C 218.417969 167.863281 218.441406 167.84375 218.460938 167.820312 C 218.628906 167.632812 218.769531 167.421875 218.859375 167.195312 C 218.953125 166.96875 218.992188 166.722656 218.972656 166.488281 C 218.957031 166.25 218.871094 166.023438 218.738281 165.824219 C 218.601562 165.625 218.417969 165.460938 218.203125 165.328125 C 217.988281 165.199219 217.75 165.105469 217.5 165.035156 C 217.394531 165.007812 217.269531 164.996094 217.144531 164.992188 C 217.015625 164.992188 216.886719 164.996094 216.753906 165.011719 C 216.492188 165.03125 216.226562 165.078125 215.960938 165.125 C 215.429688 165.226562 214.902344 165.359375 214.378906 165.507812 C 213.855469 165.652344 213.332031 165.8125 212.8125 165.980469 C 211.773438 166.3125 210.738281 166.671875 209.714844 167.046875 C 209.199219 167.234375 208.6875 167.429688 208.175781 167.625 L 207.410156 167.917969 L 207.027344 168.070312 L 206.839844 168.144531 L 206.742188 168.183594 L 206.695312 168.203125 L 206.660156 168.214844 C 206.660156 168.214844 206.648438 168.222656 206.664062 168.214844 C 206.6875 168.203125 206.710938 168.171875 206.714844 168.144531 Z M 206.492188 168.082031 C 206.5 168.054688 206.527344 168.023438 206.558594 168.007812 L 206.582031 168 L 206.605469 167.988281 L 206.65625 167.96875 L 206.75 167.925781 L 206.9375 167.847656 L 207.316406 167.6875 L 208.078125 167.375 C 208.585938 167.171875 209.097656 166.96875 209.609375 166.769531 C 210.632812 166.375 211.660156 165.996094 212.703125 165.648438 C 213.226562 165.472656 213.75 165.308594 214.277344 165.152344 C 214.808594 165 215.34375 164.859375 215.886719 164.75 C 216.160156 164.695312 216.433594 164.648438 216.71875 164.621094 C 216.859375 164.605469 217.003906 164.597656 217.148438 164.597656 C 217.296875 164.597656 217.445312 164.609375 217.605469 164.648438 C 217.882812 164.722656 218.160156 164.828125 218.414062 164.980469 C 218.671875 165.132812 218.90625 165.332031 219.082031 165.585938 C 219.257812 165.839844 219.371094 166.144531 219.394531 166.453125 C 219.417969 166.761719 219.367188 167.074219 219.253906 167.351562 C 219.144531 167.636719 218.976562 167.886719 218.777344 168.109375 C 218.753906 168.136719 218.726562 168.164062 218.699219 168.1875 C 218.675781 168.214844 218.648438 168.242188 218.613281 168.269531 L 218.515625 168.347656 C 218.484375 168.371094 218.453125 168.386719 218.417969 168.410156 L 218.320312 168.46875 C 218.289062 168.488281 218.253906 168.5 218.222656 168.519531 C 218.15625 168.550781 218.09375 168.585938 218.027344 168.609375 C 217.503906 168.835938 216.972656 168.996094 216.441406 169.144531 C 215.910156 169.292969 215.375 169.425781 214.839844 169.550781 C 213.769531 169.800781 212.691406 170.019531 211.617188 170.226562 C 210.539062 170.4375 209.457031 170.621094 208.355469 170.6875 L 208.285156 170.699219 L 208.242188 170.640625 C 207.648438 169.796875 207.0625 168.929688 206.492188 168.082031 Z M 206.492188 168.082031 " fill-opacity="1" fill-rule="nonzero"/></g><g clip-path="url(#9799a5f969)"><path fill="#ff89a9" d="M 218.976562 168.070312 C 217.644531 169.460938 216.0625 168.675781 216.0625 168.675781 L 215.910156 168.539062 C 215.78125 168.421875 215.65625 168.300781 215.539062 168.171875 C 214.789062 167.347656 214.363281 166.316406 214.339844 165.253906 C 214.339844 165.253906 215.863281 163.933594 217.632812 164.089844 C 217.886719 164.113281 218.128906 164.183594 218.34375 164.292969 C 219.617188 164.929688 220.113281 166.878906 218.976562 168.070312 Z M 218.976562 168.070312 " fill-opacity="1" fill-rule="nonzero"/></g><g clip-path="url(#10a06f3ddb)"><path fill="#ff89a9" d="M 218.976562 168.070312 C 217.644531 169.460938 216.0625 168.675781 216.0625 168.675781 L 215.910156 168.539062 C 215.78125 168.421875 215.65625 168.300781 215.539062 168.171875 L 215.59375 168.058594 C 215.59375 168.058594 216.75 168.308594 217.929688 167.636719 C 218.90625 167.082031 218.777344 165.347656 218.34375 164.292969 C 219.617188 164.929688 220.113281 166.878906 218.976562 168.070312 Z M 218.976562 168.070312 " fill-opacity="1" fill-rule="nonzero"/></g><g clip-path="url(#78425031fe)"><path fill="#2b2b2b" d="M 214.414062 165.34375 C 214.496094 165.164062 214.4375 165.292969 214.457031 165.253906 L 214.457031 165.3125 L 214.460938 165.371094 C 214.464844 165.414062 214.464844 165.453125 214.46875 165.492188 C 214.476562 165.574219 214.480469 165.652344 214.492188 165.730469 C 214.515625 165.890625 214.546875 166.046875 214.589844 166.203125 C 214.667969 166.511719 214.785156 166.8125 214.929688 167.097656 C 215.078125 167.382812 215.257812 167.652344 215.457031 167.898438 C 215.5625 168.023438 215.667969 168.144531 215.78125 168.257812 C 215.894531 168.371094 216.015625 168.476562 216.140625 168.589844 L 216.113281 168.570312 C 216.21875 168.605469 216.335938 168.636719 216.453125 168.65625 C 216.566406 168.679688 216.683594 168.695312 216.800781 168.703125 C 217.03125 168.722656 217.261719 168.710938 217.488281 168.671875 C 217.714844 168.636719 217.925781 168.550781 218.132812 168.457031 L 218.355469 168.328125 L 218.566406 168.175781 C 218.589844 168.160156 218.609375 168.140625 218.632812 168.121094 L 218.695312 168.058594 C 219.046875 167.757812 219.28125 167.351562 219.371094 166.902344 C 219.46875 166.457031 219.414062 165.980469 219.238281 165.554688 C 219.0625 165.132812 218.773438 164.75 218.382812 164.515625 C 218.1875 164.398438 217.972656 164.3125 217.75 164.277344 C 217.695312 164.269531 217.640625 164.257812 217.578125 164.253906 L 217.402344 164.246094 L 217.316406 164.242188 C 217.285156 164.242188 217.257812 164.246094 217.226562 164.246094 L 217.046875 164.253906 C 216.101562 164.328125 215.179688 164.761719 214.414062 165.34375 Z M 214.265625 165.167969 C 214.65625 164.835938 215.085938 164.566406 215.546875 164.351562 C 215.664062 164.296875 215.78125 164.246094 215.898438 164.203125 C 216.019531 164.152344 216.140625 164.117188 216.261719 164.078125 C 216.324219 164.058594 216.386719 164.042969 216.449219 164.027344 L 216.636719 163.984375 L 216.828125 163.953125 C 216.894531 163.945312 216.957031 163.933594 217.019531 163.929688 L 217.214844 163.917969 C 217.246094 163.914062 217.28125 163.914062 217.3125 163.914062 L 217.410156 163.914062 L 217.605469 163.921875 C 217.671875 163.921875 217.738281 163.933594 217.804688 163.941406 C 218.070312 163.980469 218.328125 164.074219 218.5625 164.210938 C 218.796875 164.347656 219.003906 164.523438 219.171875 164.730469 C 219.347656 164.933594 219.488281 165.164062 219.589844 165.410156 C 219.789062 165.902344 219.859375 166.453125 219.75 166.980469 C 219.699219 167.242188 219.605469 167.5 219.46875 167.734375 C 219.335938 167.964844 219.160156 168.179688 218.960938 168.351562 L 218.890625 168.417969 C 218.867188 168.441406 218.84375 168.464844 218.816406 168.484375 L 218.65625 168.601562 L 218.574219 168.664062 L 218.488281 168.710938 L 218.3125 168.8125 C 218.253906 168.84375 218.191406 168.867188 218.128906 168.894531 L 218.039062 168.933594 C 218.003906 168.945312 217.972656 168.953125 217.941406 168.960938 C 217.875 168.980469 217.8125 169 217.746094 169.019531 L 217.550781 169.050781 C 217.285156 169.089844 217.015625 169.082031 216.753906 169.039062 C 216.625 169.011719 216.5 168.980469 216.375 168.9375 C 216.25 168.898438 216.132812 168.847656 216.011719 168.777344 L 215.996094 168.765625 L 215.984375 168.757812 C 215.863281 168.652344 215.738281 168.539062 215.617188 168.417969 C 215.5 168.300781 215.386719 168.175781 215.28125 168.046875 C 215.066406 167.785156 214.878906 167.5 214.726562 167.203125 C 214.570312 166.902344 214.449219 166.585938 214.363281 166.257812 C 214.320312 166.09375 214.289062 165.929688 214.265625 165.761719 C 214.253906 165.679688 214.246094 165.59375 214.238281 165.511719 C 214.234375 165.46875 214.234375 165.425781 214.230469 165.382812 L 214.226562 165.320312 L 214.226562 165.257812 C 214.242188 165.21875 214.1875 165.347656 214.265625 165.167969 Z M 214.265625 165.167969 " fill-opacity="1" fill-rule="nonzero"/></g><path fill="#ff89a9" d="M 200.863281 166.445312 L 199.054688 167.554688 L 198.300781 168.019531 C 198.300781 168.019531 193.761719 165.15625 191.359375 163.183594 C 190.617188 162.574219 190.082031 162.046875 189.941406 161.71875 C 189.351562 160.320312 190.140625 158.828125 192.09375 159.113281 C 194.046875 159.402344 200.863281 166.445312 200.863281 166.445312 Z M 200.863281 166.445312 " fill-opacity="1" fill-rule="nonzero"/><path fill="#ff89a9" d="M 199.054688 167.554688 L 198.300781 168.019531 C 198.300781 168.019531 193.761719 165.15625 191.359375 163.183594 L 192.703125 162.933594 C 192.703125 162.933594 196.957031 166.179688 199.054688 167.554688 Z M 199.054688 167.554688 " fill-opacity="1" fill-rule="nonzero"/><path fill="#2b2b2b" d="M 200.976562 166.460938 C 200.121094 167.015625 199.238281 167.578125 198.359375 168.117188 L 198.296875 168.15625 L 198.238281 168.117188 C 197.304688 167.539062 196.382812 166.945312 195.46875 166.339844 C 194.554688 165.734375 193.648438 165.113281 192.761719 164.46875 C 192.316406 164.144531 191.875 163.816406 191.445312 163.472656 C 191.011719 163.128906 190.589844 162.777344 190.195312 162.367188 C 190.144531 162.316406 190.101562 162.261719 190.050781 162.207031 C 190.027344 162.179688 190.003906 162.152344 189.980469 162.125 L 189.917969 162.035156 C 189.894531 162 189.871094 161.976562 189.851562 161.9375 L 189.792969 161.832031 C 189.773438 161.792969 189.757812 161.761719 189.746094 161.726562 C 189.734375 161.691406 189.71875 161.660156 189.707031 161.625 C 189.613281 161.347656 189.558594 161.050781 189.566406 160.75 C 189.570312 160.453125 189.644531 160.148438 189.789062 159.878906 C 189.929688 159.605469 190.148438 159.375 190.40625 159.210938 C 190.664062 159.050781 190.957031 158.957031 191.25 158.914062 C 191.542969 158.875 191.835938 158.886719 192.121094 158.925781 C 192.285156 158.949219 192.425781 159 192.558594 159.054688 C 192.695312 159.113281 192.824219 159.175781 192.949219 159.242188 C 193.199219 159.378906 193.433594 159.53125 193.664062 159.6875 C 194.578125 160.316406 195.421875 161.027344 196.242188 161.757812 C 197.066406 162.484375 197.867188 163.234375 198.648438 164.007812 C 199.039062 164.394531 199.429688 164.777344 199.808594 165.171875 L 200.664062 166.0625 L 200.804688 166.214844 L 200.875 166.289062 L 200.910156 166.328125 L 200.9375 166.355469 L 200.945312 166.367188 C 200.96875 166.390625 200.980469 166.429688 200.976562 166.460938 Z M 200.746094 166.429688 C 200.742188 166.453125 200.75 166.492188 200.769531 166.511719 C 200.777344 166.523438 200.769531 166.515625 200.769531 166.515625 L 200.707031 166.453125 L 200.632812 166.382812 L 200.484375 166.238281 L 200.191406 165.953125 L 199.597656 165.382812 C 199.203125 165.007812 198.808594 164.625 198.410156 164.253906 C 197.609375 163.507812 196.808594 162.761719 195.988281 162.042969 C 195.578125 161.683594 195.160156 161.332031 194.738281 160.988281 C 194.316406 160.648438 193.886719 160.3125 193.441406 160.007812 C 193.222656 159.855469 192.996094 159.707031 192.761719 159.582031 C 192.648438 159.519531 192.53125 159.460938 192.414062 159.410156 C 192.296875 159.363281 192.175781 159.320312 192.066406 159.304688 C 191.808594 159.265625 191.550781 159.257812 191.300781 159.292969 C 191.050781 159.324219 190.8125 159.402344 190.605469 159.53125 C 190.402344 159.660156 190.230469 159.839844 190.117188 160.054688 C 190.007812 160.269531 189.945312 160.511719 189.9375 160.761719 C 189.929688 161.011719 189.976562 161.261719 190.058594 161.5 C 190.066406 161.53125 190.078125 161.5625 190.089844 161.589844 C 190.101562 161.621094 190.113281 161.652344 190.125 161.675781 L 190.164062 161.746094 C 190.179688 161.773438 190.199219 161.796875 190.21875 161.820312 L 190.269531 161.898438 C 190.289062 161.921875 190.3125 161.949219 190.332031 161.972656 C 190.375 162.019531 190.414062 162.070312 190.460938 162.117188 C 190.824219 162.503906 191.242188 162.859375 191.660156 163.203125 C 192.082031 163.542969 192.519531 163.875 192.957031 164.203125 C 194.714844 165.496094 196.527344 166.726562 198.359375 167.921875 L 198.238281 167.921875 C 199.066406 167.410156 199.894531 166.925781 200.746094 166.429688 Z M 200.746094 166.429688 " fill-opacity="1" fill-rule="nonzero"/><path fill="#ff89a9" d="M 194.882812 160.765625 C 194.453125 161.707031 193.683594 162.46875 192.703125 162.933594 C 192.523438 163.019531 192.335938 163.097656 192.144531 163.160156 L 191.949219 163.226562 C 191.949219 163.226562 190.183594 163.324219 189.511719 161.519531 C 189.167969 160.59375 189.472656 159.648438 190.078125 159.023438 C 190.652344 158.429688 191.496094 158.121094 192.320312 158.394531 C 194.003906 158.949219 194.882812 160.765625 194.882812 160.765625 Z M 194.882812 160.765625 " fill-opacity="1" fill-rule="nonzero"/><path fill="#ff89a9" d="M 192.972656 162.742188 L 192.703125 162.933594 C 192.523438 163.019531 192.335938 163.09375 192.144531 163.160156 L 191.949219 163.226562 C 191.949219 163.226562 190.183594 163.320312 189.511719 161.519531 C 189.167969 160.59375 189.472656 159.648438 190.078125 159.023438 C 189.9375 159.816406 189.652344 162.710938 192.972656 162.742188 Z M 192.972656 162.742188 " fill-opacity="1" fill-rule="nonzero"/><path fill="#2b2b2b" d="M 191.707031 158.410156 C 191.152344 158.410156 190.589844 158.65625 190.15625 159.105469 C 189.523438 159.761719 189.320312 160.671875 189.621094 161.476562 C 190.230469 163.113281 191.75 163.117188 191.929688 163.109375 L 192.105469 163.050781 C 193.296875 162.652344 194.257812 161.824219 194.753906 160.765625 C 194.601562 160.480469 193.75 158.984375 192.28125 158.5 C 192.09375 158.441406 191.902344 158.410156 191.707031 158.410156 Z M 191.917969 163.339844 C 191.640625 163.339844 190.042969 163.265625 189.40625 161.558594 C 189.074219 160.667969 189.296875 159.667969 189.992188 158.949219 C 190.640625 158.269531 191.546875 158.015625 192.355469 158.285156 C 194.066406 158.847656 194.949219 160.636719 194.984375 160.714844 L 195.011719 160.761719 L 194.988281 160.8125 C 194.472656 161.949219 193.449219 162.84375 192.179688 163.269531 L 191.972656 163.339844 L 191.957031 163.339844 C 191.957031 163.339844 191.941406 163.339844 191.917969 163.339844 Z M 191.917969 163.339844 " fill-opacity="1" fill-rule="nonzero"/><g clip-path="url(#ca3e37a9c3)"><path fill="#ff89a9" d="M 208.808594 188.324219 L 206.121094 188.816406 C 205.859375 188.867188 205.601562 188.847656 205.363281 188.773438 C 204.882812 188.625 204.488281 188.253906 204.34375 187.75 C 204.339844 187.734375 204.332031 187.714844 204.328125 187.699219 L 202.78125 181.515625 C 202.613281 180.84375 200.164062 178.597656 200.136719 177.554688 L 200.285156 177.527344 L 201.71875 177.261719 L 201.039062 174.539062 C 200.824219 173.671875 201.421875 172.804688 202.328125 172.664062 L 203.476562 172.488281 C 204.210938 172.375 204.917969 172.78125 205.171875 173.453125 L 209.796875 185.75 L 210.003906 186.296875 C 210.335938 187.179688 209.765625 188.148438 208.808594 188.324219 Z M 208.808594 188.324219 " fill-opacity="1" fill-rule="nonzero"/></g><g clip-path="url(#dad1111258)"><path fill="#ff89a9" d="M 205.949219 186.066406 L 205.363281 188.773438 C 204.882812 188.625 204.488281 188.253906 204.34375 187.75 C 204.339844 187.734375 204.332031 187.714844 204.328125 187.699219 L 202.78125 181.515625 C 202.613281 180.84375 200.164062 178.597656 200.136719 177.554688 L 200.285156 177.527344 L 203.324219 179.082031 Z M 205.949219 186.066406 " fill-opacity="1" fill-rule="nonzero"/></g><g clip-path="url(#ac4f7c6d64)"><path fill="#2b2b2b" d="M 210.226562 186.210938 C 210.304688 186.425781 210.34375 186.65625 210.335938 186.886719 C 210.328125 187.113281 210.273438 187.34375 210.179688 187.550781 C 209.988281 187.96875 209.628906 188.296875 209.207031 188.46875 C 209.152344 188.488281 209.097656 188.507812 209.046875 188.527344 L 208.878906 188.566406 C 208.777344 188.589844 208.683594 188.605469 208.585938 188.625 L 208.003906 188.734375 L 206.84375 188.953125 L 206.261719 189.066406 C 206.214844 189.074219 206.167969 189.082031 206.105469 189.089844 C 206.050781 189.097656 205.992188 189.109375 205.9375 189.109375 C 205.878906 189.113281 205.820312 189.117188 205.761719 189.113281 C 205.707031 189.109375 205.648438 189.109375 205.589844 189.101562 C 205.132812 189.046875 204.695312 188.808594 204.398438 188.445312 C 204.363281 188.402344 204.332031 188.351562 204.296875 188.304688 C 204.265625 188.253906 204.238281 188.203125 204.207031 188.152344 C 204.179688 188.101562 204.15625 188.046875 204.132812 187.992188 L 204.078125 187.832031 C 204.058594 187.761719 204.046875 187.722656 204.035156 187.671875 L 204 187.53125 L 203.925781 187.242188 L 203.636719 186.097656 L 203.070312 183.800781 L 202.519531 181.539062 C 202.496094 181.476562 202.449219 181.394531 202.402344 181.320312 C 202.355469 181.246094 202.300781 181.167969 202.246094 181.089844 C 202.132812 180.9375 202.015625 180.78125 201.894531 180.628906 C 201.652344 180.320312 201.402344 180.011719 201.160156 179.699219 C 200.917969 179.382812 200.679688 179.0625 200.46875 178.71875 C 200.363281 178.542969 200.261719 178.367188 200.179688 178.179688 C 200.09375 177.992188 200.023438 177.785156 200.023438 177.554688 L 200.015625 177.457031 L 200.117188 177.441406 L 201.699219 177.148438 L 201.609375 177.289062 L 200.914062 174.582031 C 200.847656 174.339844 200.84375 174.078125 200.898438 173.828125 C 200.953125 173.582031 201.066406 173.34375 201.222656 173.148438 C 201.378906 172.945312 201.582031 172.785156 201.8125 172.671875 C 201.925781 172.617188 202.046875 172.574219 202.171875 172.542969 C 202.300781 172.515625 202.410156 172.5 202.527344 172.480469 L 203.214844 172.371094 C 203.332031 172.351562 203.441406 172.332031 203.570312 172.320312 C 203.636719 172.3125 203.699219 172.3125 203.761719 172.3125 C 203.828125 172.316406 203.890625 172.316406 203.953125 172.328125 C 204.464844 172.386719 204.941406 172.695312 205.207031 173.140625 C 205.234375 173.199219 205.269531 173.253906 205.292969 173.3125 L 205.332031 173.402344 L 205.363281 173.484375 L 205.488281 173.808594 L 205.734375 174.464844 L 206.234375 175.769531 Z M 209.78125 186.378906 L 205.898438 175.894531 L 205.414062 174.585938 L 205.050781 173.601562 L 205.019531 173.519531 L 204.988281 173.449219 C 204.96875 173.398438 204.941406 173.355469 204.917969 173.308594 C 204.710938 172.953125 204.332031 172.695312 203.914062 172.640625 C 203.863281 172.632812 203.808594 172.632812 203.757812 172.628906 C 203.703125 172.628906 203.652344 172.628906 203.597656 172.632812 C 203.5 172.640625 203.378906 172.660156 203.265625 172.679688 L 202.574219 172.78125 C 202.457031 172.796875 202.339844 172.8125 202.238281 172.835938 C 202.136719 172.859375 202.035156 172.894531 201.941406 172.9375 C 201.75 173.027344 201.578125 173.160156 201.445312 173.324219 C 201.175781 173.652344 201.0625 174.105469 201.171875 174.519531 L 201.832031 177.234375 L 201.859375 177.355469 L 201.742188 177.375 L 200.15625 177.667969 L 200.253906 177.550781 C 200.273438 177.714844 200.347656 177.886719 200.4375 178.050781 C 200.527344 178.214844 200.636719 178.375 200.75 178.53125 C 200.976562 178.839844 201.226562 179.140625 201.484375 179.4375 L 202.257812 180.328125 C 202.386719 180.480469 202.515625 180.632812 202.640625 180.792969 C 202.703125 180.875 202.765625 180.957031 202.824219 181.046875 C 202.882812 181.136719 202.945312 181.222656 202.996094 181.34375 C 203.007812 181.375 203.019531 181.414062 203.03125 181.445312 L 203.050781 181.519531 L 203.085938 181.664062 L 203.164062 181.949219 L 203.3125 182.523438 L 203.605469 183.667969 L 204.1875 185.964844 L 204.46875 187.113281 L 204.609375 187.667969 C 204.65625 187.832031 204.730469 187.96875 204.832031 188.097656 C 205.03125 188.347656 205.335938 188.515625 205.660156 188.558594 C 205.699219 188.566406 205.742188 188.570312 205.78125 188.570312 C 205.824219 188.574219 205.863281 188.570312 205.90625 188.570312 C 205.945312 188.570312 205.988281 188.5625 206.027344 188.558594 C 206.066406 188.554688 206.117188 188.546875 206.164062 188.539062 L 206.746094 188.433594 L 207.910156 188.226562 L 208.496094 188.121094 C 208.589844 188.105469 208.691406 188.089844 208.78125 188.070312 L 208.902344 188.042969 C 208.945312 188.03125 208.980469 188.015625 209.023438 188 C 209.328125 187.882812 209.59375 187.644531 209.734375 187.34375 C 209.878906 187.042969 209.894531 186.691406 209.78125 186.378906 Z M 209.78125 186.378906 " fill-opacity="1" fill-rule="nonzero"/></g><g clip-path="url(#4f4c0b1af0)"><path fill="#ff89a9" d="M 202.320312 176.070312 L 201.488281 178.285156 C 201.242188 178.480469 200.796875 178.757812 200.285156 179.070312 C 199.074219 179.800781 197.472656 180.699219 197.121094 181.035156 L 192.710938 185.242188 L 192.511719 185.433594 C 192.421875 185.519531 192.324219 185.59375 192.21875 185.652344 C 191.652344 185.972656 190.910156 185.894531 190.398438 185.421875 L 188.390625 183.566406 C 187.675781 182.910156 187.710938 181.785156 188.464844 181.214844 L 188.746094 181.003906 L 199.410156 172.941406 C 199.984375 172.507812 200.800781 172.546875 201.359375 173.03125 L 202.234375 173.796875 C 202.925781 174.398438 202.96875 175.453125 202.320312 176.070312 Z M 202.320312 176.070312 " fill-opacity="1" fill-rule="nonzero"/></g><path fill="#f6f4f1" d="M 195.035156 177.238281 L 189.929688 180.863281 L 189.390625 180.777344 L 189.105469 180.730469 L 188.816406 180.6875 L 194.570312 176.367188 L 194.660156 176.535156 L 194.746094 176.699219 Z M 195.035156 177.238281 " fill-opacity="1" fill-rule="nonzero"/><path fill="#ff89a9" d="M 200.472656 178.625 C 200.46875 178.652344 200.398438 178.8125 200.285156 179.070312 C 199.074219 179.800781 197.472656 180.699219 197.121094 181.035156 L 192.710938 185.242188 L 192.511719 185.433594 C 192.421875 185.519531 192.324219 185.59375 192.21875 185.652344 L 192.414062 182.453125 L 197.824219 178.292969 C 197.824219 178.292969 200.503906 178.460938 200.472656 178.625 Z M 200.472656 178.625 " fill-opacity="1" fill-rule="nonzero"/><g clip-path="url(#9f6dd5857e)"><path fill="#2b2b2b" d="M 202.222656 176.007812 L 202.214844 176.027344 L 201.394531 178.21875 C 201.355469 178.242188 201.320312 178.261719 201.285156 178.285156 L 201.230469 178.320312 L 201.167969 178.359375 C 201.085938 178.410156 201 178.464844 200.914062 178.515625 C 200.742188 178.621094 200.570312 178.722656 200.394531 178.820312 L 199.339844 179.417969 C 198.984375 179.613281 198.632812 179.816406 198.28125 180.019531 C 198.105469 180.121094 197.933594 180.222656 197.757812 180.328125 C 197.585938 180.4375 197.410156 180.542969 197.238281 180.664062 L 197.105469 180.757812 L 196.972656 180.867188 L 196.75 181.078125 L 196.3125 181.496094 L 195.429688 182.332031 L 193.675781 184.007812 L 192.800781 184.847656 L 192.363281 185.265625 C 192.324219 185.304688 192.28125 185.339844 192.238281 185.375 C 192.140625 185.445312 192.039062 185.5 191.929688 185.542969 C 191.605469 185.664062 191.234375 185.648438 190.914062 185.503906 C 190.875 185.488281 190.835938 185.464844 190.800781 185.445312 C 190.761719 185.425781 190.726562 185.398438 190.6875 185.375 C 190.652344 185.351562 190.621094 185.320312 190.585938 185.292969 C 190.554688 185.269531 190.515625 185.234375 190.476562 185.199219 L 190.03125 184.789062 L 189.140625 183.964844 L 188.691406 183.554688 C 188.535156 183.410156 188.414062 183.296875 188.316406 183.148438 C 188.117188 182.859375 188.046875 182.492188 188.117188 182.152344 C 188.148438 181.980469 188.21875 181.816406 188.316406 181.675781 C 188.34375 181.640625 188.363281 181.605469 188.394531 181.574219 C 188.425781 181.542969 188.453125 181.507812 188.484375 181.480469 L 188.582031 181.394531 C 188.617188 181.367188 188.660156 181.335938 188.699219 181.304688 L 189.394531 180.777344 L 194.746094 176.699219 L 196.425781 175.421875 L 198.351562 173.949219 L 199.316406 173.210938 L 199.4375 173.121094 L 199.496094 173.074219 L 199.554688 173.035156 C 199.589844 173.007812 199.628906 172.984375 199.667969 172.960938 C 199.707031 172.9375 199.75 172.921875 199.789062 172.902344 C 199.957031 172.828125 200.136719 172.792969 200.320312 172.792969 C 200.503906 172.792969 200.6875 172.824219 200.855469 172.894531 C 200.941406 172.929688 201.023438 172.96875 201.101562 173.019531 C 201.140625 173.046875 201.179688 173.070312 201.214844 173.101562 L 201.269531 173.144531 L 201.324219 173.195312 L 201.785156 173.589844 L 202.015625 173.789062 L 202.132812 173.886719 C 202.167969 173.917969 202.199219 173.949219 202.234375 173.984375 C 202.492188 174.246094 202.652344 174.609375 202.65625 174.984375 L 202.65625 175.007812 C 202.65625 175.371094 202.503906 175.730469 202.242188 175.988281 Z M 202.425781 173.792969 C 202.386719 173.753906 202.347656 173.714844 202.308594 173.679688 L 202.195312 173.578125 L 201.96875 173.378906 L 201.511719 172.976562 L 201.457031 172.929688 L 201.390625 172.875 C 201.351562 172.839844 201.304688 172.808594 201.257812 172.777344 C 201.167969 172.714844 201.066406 172.667969 200.96875 172.621094 C 200.765625 172.535156 200.542969 172.492188 200.320312 172.492188 C 200.097656 172.488281 199.875 172.53125 199.667969 172.617188 C 199.617188 172.640625 199.566406 172.660156 199.519531 172.691406 C 199.46875 172.714844 199.421875 172.742188 199.375 172.777344 L 199.308594 172.824219 L 199.246094 172.867188 L 199.125 172.960938 L 198.152344 173.683594 L 196.207031 175.136719 L 194.570312 176.367188 L 188.816406 180.6875 L 188.445312 180.964844 C 188.402344 180.996094 188.363281 181.023438 188.320312 181.058594 L 188.191406 181.167969 C 188.148438 181.210938 188.109375 181.253906 188.070312 181.296875 C 188.03125 181.339844 188 181.386719 187.964844 181.433594 C 187.832031 181.625 187.742188 181.839844 187.695312 182.066406 C 187.605469 182.519531 187.699219 183.007812 187.957031 183.386719 C 187.984375 183.4375 188.023438 183.480469 188.058594 183.527344 C 188.09375 183.574219 188.132812 183.613281 188.171875 183.65625 L 188.230469 183.714844 C 188.253906 183.738281 188.269531 183.75 188.289062 183.769531 L 188.398438 183.871094 L 188.84375 184.285156 L 189.734375 185.109375 L 190.179688 185.519531 C 190.21875 185.554688 190.253906 185.589844 190.300781 185.625 C 190.34375 185.664062 190.386719 185.703125 190.433594 185.734375 C 190.480469 185.765625 190.53125 185.800781 190.578125 185.828125 C 190.628906 185.855469 190.679688 185.882812 190.734375 185.90625 C 191.152344 186.097656 191.648438 186.121094 192.082031 185.957031 C 192.300781 185.878906 192.503906 185.75 192.667969 185.589844 L 193.109375 185.171875 L 193.988281 184.335938 L 195.746094 182.660156 L 196.621094 181.820312 L 197.058594 181.402344 L 197.277344 181.191406 L 197.375 181.109375 L 197.492188 181.023438 C 197.808594 180.796875 198.15625 180.585938 198.496094 180.371094 L 199.527344 179.734375 C 199.871094 179.523438 200.214844 179.308594 200.554688 179.085938 C 200.726562 178.976562 200.894531 178.863281 201.0625 178.746094 C 201.148438 178.691406 201.230469 178.628906 201.3125 178.566406 L 201.375 178.523438 L 201.445312 178.46875 C 201.488281 178.429688 201.535156 178.390625 201.578125 178.351562 L 202.421875 176.132812 C 202.726562 175.835938 202.90625 175.410156 202.90625 174.980469 C 202.910156 174.542969 202.730469 174.109375 202.425781 173.792969 Z M 202.425781 173.792969 " fill-opacity="1" fill-rule="nonzero"/></g><path fill="#ff89a9" d="M 193.734375 175.5625 L 193.566406 176.3125 C 193.496094 176.636719 193.675781 176.960938 193.992188 177.070312 C 195.183594 177.484375 198.097656 178.457031 200.441406 178.976562 C 202.789062 179.5 205.960938 179.945312 207.261719 180.117188 C 207.597656 180.164062 207.910156 179.941406 207.984375 179.613281 L 208.292969 178.222656 C 208.375 177.863281 208.136719 177.503906 207.773438 177.441406 L 194.484375 175.0625 C 194.140625 175.003906 193.8125 175.222656 193.734375 175.5625 Z M 193.734375 175.5625 " fill-opacity="1" fill-rule="nonzero"/><path fill="#ff89a9" d="M 193.769531 175.210938 L 193.601562 175.960938 C 193.53125 176.285156 193.710938 176.609375 194.027344 176.71875 C 195.21875 177.128906 198.132812 178.105469 200.472656 178.625 C 202.824219 179.148438 205.996094 179.59375 207.296875 179.765625 C 207.632812 179.808594 207.945312 179.589844 208.019531 179.261719 L 208.328125 177.871094 C 208.410156 177.507812 208.171875 177.152344 207.804688 177.085938 L 194.519531 174.710938 C 194.175781 174.652344 193.84375 174.871094 193.769531 175.210938 Z M 193.769531 175.210938 " fill-opacity="1" fill-rule="nonzero"/><path fill="#2b2b2b" d="M 194.371094 175.167969 C 194.121094 175.167969 193.902344 175.339844 193.847656 175.589844 L 193.679688 176.335938 C 193.621094 176.605469 193.769531 176.871094 194.027344 176.960938 C 195.183594 177.359375 198.117188 178.34375 200.464844 178.867188 C 202.816406 179.390625 206.011719 179.835938 207.277344 180.003906 C 207.554688 180.039062 207.808594 179.863281 207.871094 179.589844 L 208.179688 178.199219 C 208.214844 178.054688 208.1875 177.90625 208.105469 177.785156 C 208.023438 177.660156 207.898438 177.578125 207.75 177.554688 L 194.464844 175.175781 C 194.433594 175.171875 194.402344 175.167969 194.371094 175.167969 Z M 207.351562 180.238281 C 207.316406 180.238281 207.28125 180.234375 207.246094 180.230469 C 205.980469 180.0625 202.777344 179.617188 200.414062 179.089844 C 198.058594 178.5625 195.109375 177.578125 193.953125 177.179688 C 193.585938 177.050781 193.371094 176.667969 193.457031 176.285156 L 193.621094 175.539062 C 193.710938 175.136719 194.101562 174.878906 194.507812 174.949219 L 207.792969 177.324219 C 208 177.363281 208.179688 177.480469 208.296875 177.65625 C 208.414062 177.832031 208.453125 178.042969 208.40625 178.246094 L 208.097656 179.636719 C 208.015625 179.996094 207.703125 180.238281 207.351562 180.238281 Z M 207.351562 180.238281 " fill-opacity="1" fill-rule="nonzero"/><path fill="#ff89a9" d="M 209.464844 177.433594 C 209.171875 178.664062 207.722656 179.066406 206.101562 179.105469 C 203.699219 179.164062 200.914062 178.425781 200.914062 178.425781 C 200.914062 178.425781 198.082031 177.910156 195.933594 176.835938 C 195.082031 176.410156 194.335938 175.898438 193.917969 175.296875 C 193.625 174.875 193.492188 174.40625 193.601562 173.894531 C 194.085938 171.542969 197.800781 165.917969 199.515625 163.40625 C 200.042969 162.632812 200.382812 162.15625 200.382812 162.15625 L 204.292969 163.289062 L 208.316406 163.925781 C 208.316406 163.925781 210.195312 174.378906 209.464844 177.433594 Z M 209.464844 177.433594 " fill-opacity="1" fill-rule="nonzero"/><path fill="#ff89a9" d="M 201.449219 165.535156 C 201.449219 165.535156 200.824219 166.050781 200.28125 166.9375 C 199.742188 167.828125 197.46875 169.859375 196.59375 170.246094 C 195.722656 170.636719 193.804688 174.277344 193.96875 175.054688 C 193.988281 175.164062 193.96875 175.242188 193.917969 175.296875 C 193.625 174.875 193.492188 174.40625 193.601562 173.894531 C 194.085938 171.542969 197.800781 165.917969 199.515625 163.402344 Z M 201.449219 165.535156 " fill-opacity="1" fill-rule="nonzero"/><path fill="#2b2b2b" d="M 209.214844 177.375 C 209.324219 176.855469 209.359375 176.296875 209.378906 175.738281 C 209.394531 175.183594 209.382812 174.621094 209.363281 174.054688 C 209.3125 172.929688 209.21875 171.804688 209.105469 170.675781 C 208.992188 169.550781 208.855469 168.429688 208.703125 167.304688 C 208.550781 166.183594 208.382812 165.0625 208.203125 163.945312 L 208.296875 164.039062 L 204.273438 163.402344 L 204.261719 163.402344 L 200.351562 162.265625 L 200.476562 162.222656 C 199.386719 163.785156 198.335938 165.375 197.324219 166.988281 C 196.816406 167.796875 196.324219 168.609375 195.847656 169.433594 C 195.375 170.261719 194.914062 171.09375 194.511719 171.949219 C 194.308594 172.375 194.117188 172.808594 193.964844 173.25 C 193.925781 173.359375 193.894531 173.472656 193.859375 173.582031 C 193.824219 173.695312 193.804688 173.804688 193.773438 173.917969 C 193.734375 174.128906 193.730469 174.34375 193.777344 174.554688 C 193.871094 174.972656 194.140625 175.34375 194.472656 175.652344 C 194.808594 175.960938 195.195312 176.222656 195.605469 176.445312 C 196.011719 176.671875 196.441406 176.867188 196.875 177.046875 C 197.3125 177.222656 197.757812 177.378906 198.210938 177.519531 C 198.660156 177.664062 199.113281 177.792969 199.574219 177.90625 C 200.03125 178.023438 200.496094 178.128906 200.957031 178.214844 L 200.960938 178.21875 L 200.972656 178.21875 C 201.335938 178.3125 201.714844 178.390625 202.09375 178.464844 C 202.46875 178.539062 202.847656 178.605469 203.226562 178.660156 C 203.984375 178.773438 204.746094 178.847656 205.507812 178.867188 C 205.886719 178.875 206.265625 178.871094 206.640625 178.835938 C 207.015625 178.800781 207.382812 178.746094 207.738281 178.648438 C 208.085938 178.546875 208.421875 178.402344 208.6875 178.191406 C 208.957031 177.980469 209.132812 177.695312 209.214844 177.375 Z M 209.714844 177.492188 C 209.609375 177.921875 209.347656 178.324219 209 178.585938 C 208.652344 178.851562 208.261719 179.011719 207.867188 179.121094 C 207.472656 179.226562 207.074219 179.285156 206.679688 179.316406 C 206.28125 179.347656 205.886719 179.347656 205.496094 179.339844 C 204.707031 179.3125 203.929688 179.226562 203.15625 179.105469 C 202.769531 179.046875 202.386719 178.976562 202.003906 178.898438 C 201.621094 178.820312 201.246094 178.734375 200.859375 178.636719 L 200.878906 178.640625 C 200.398438 178.546875 199.933594 178.433594 199.46875 178.3125 C 199.003906 178.191406 198.542969 178.058594 198.085938 177.90625 C 197.625 177.757812 197.171875 177.59375 196.726562 177.410156 C 196.28125 177.222656 195.839844 177.019531 195.417969 176.777344 C 194.992188 176.539062 194.582031 176.261719 194.222656 175.917969 C 194.042969 175.746094 193.871094 175.558594 193.734375 175.339844 C 193.597656 175.125 193.480469 174.886719 193.425781 174.628906 C 193.375 174.367188 193.378906 174.097656 193.433594 173.84375 C 193.464844 173.726562 193.488281 173.601562 193.527344 173.484375 C 193.566406 173.371094 193.597656 173.25 193.640625 173.136719 C 193.804688 172.679688 194.003906 172.238281 194.214844 171.808594 C 194.632812 170.941406 195.101562 170.105469 195.582031 169.28125 C 196.066406 168.457031 196.570312 167.644531 197.085938 166.839844 C 198.117188 165.230469 199.183594 163.648438 200.289062 162.089844 L 200.335938 162.019531 L 200.414062 162.042969 L 204.324219 163.179688 L 204.308594 163.175781 L 208.332031 163.808594 L 208.414062 163.824219 L 208.429688 163.902344 C 208.636719 165.019531 208.828125 166.136719 209.007812 167.261719 C 209.183594 168.382812 209.347656 169.503906 209.488281 170.632812 C 209.628906 171.761719 209.75 172.894531 209.824219 174.03125 C 209.859375 174.601562 209.882812 175.171875 209.878906 175.75 C 209.875 176.324219 209.847656 176.90625 209.714844 177.492188 Z M 209.714844 177.492188 " fill-opacity="1" fill-rule="nonzero"/><path fill="#ff89a9" d="M 206.601562 166.984375 C 206.601562 166.984375 206.765625 171.9375 209.449219 173.152344 C 209.246094 170.671875 208.84375 167.917969 208.566406 166.15625 C 207.847656 166.421875 206.601562 166.984375 206.601562 166.984375 Z M 206.601562 166.984375 " fill-opacity="1" fill-rule="nonzero"/><path fill="#2b2b2b" d="M 206.71875 167.054688 C 206.753906 167.667969 207.070312 171.746094 209.320312 172.957031 C 209.117188 170.625 208.753906 168.09375 208.472656 166.316406 C 207.859375 166.550781 206.976562 166.941406 206.71875 167.054688 Z M 209.578125 173.300781 L 209.402344 173.257812 C 206.683594 172.027344 206.492188 167.191406 206.484375 166.988281 L 206.484375 166.910156 L 206.554688 166.878906 C 206.566406 166.871094 207.808594 166.3125 208.523438 166.050781 L 208.65625 166 L 208.679688 166.140625 C 208.972656 167.976562 209.363281 170.683594 209.566406 173.140625 Z M 209.578125 173.300781 " fill-opacity="1" fill-rule="nonzero"/><path fill="#ff89a9" d="M 200.785156 165.300781 C 200.785156 165.300781 198.53125 169.71875 195.582031 169.675781 C 196.820312 167.519531 198.355469 165.195312 199.355469 163.722656 C 199.894531 164.265625 200.785156 165.300781 200.785156 165.300781 Z M 200.785156 165.300781 " fill-opacity="1" fill-rule="nonzero"/><path fill="#2b2b2b" d="M 199.371094 163.902344 C 198.363281 165.390625 196.957031 167.527344 195.785156 169.554688 C 198.335938 169.414062 200.355469 165.855469 200.644531 165.316406 C 200.460938 165.105469 199.828125 164.375 199.371094 163.902344 Z M 195.628906 169.789062 C 195.613281 169.789062 195.597656 169.789062 195.582031 169.789062 L 195.5625 169.789062 L 195.40625 169.757812 L 195.484375 169.617188 C 196.710938 167.480469 198.214844 165.195312 199.261719 163.65625 L 199.339844 163.539062 L 199.4375 163.640625 C 199.972656 164.183594 200.863281 165.21875 200.871094 165.226562 L 200.921875 165.285156 L 200.886719 165.355469 C 200.792969 165.535156 198.589844 169.789062 195.628906 169.789062 Z M 195.628906 169.789062 " fill-opacity="1" fill-rule="nonzero"/><path fill="#ff89a9" d="M 207.394531 173.304688 L 206.101562 179.105469 C 203.699219 179.160156 200.914062 178.425781 200.914062 178.425781 C 200.914062 178.425781 198.589844 178 196.554688 177.125 C 196.34375 177.035156 196.136719 176.9375 195.933594 176.835938 L 197.226562 171.035156 C 197.347656 170.492188 197.886719 170.152344 198.429688 170.273438 L 199.59375 170.53125 L 206.632812 172.101562 C 207.175781 172.222656 207.515625 172.761719 207.394531 173.304688 Z M 207.394531 173.304688 " fill-opacity="1" fill-rule="nonzero"/><path fill="#ff89a9" d="M 200.042969 170.78125 C 200.042969 170.78125 198.140625 170.414062 197.824219 171.152344 C 197.558594 171.773438 196.796875 175.824219 196.554688 177.125 C 196.34375 177.035156 196.136719 176.9375 195.933594 176.835938 L 197.226562 171.035156 C 197.347656 170.492188 197.886719 170.152344 198.429688 170.273438 L 199.59375 170.53125 Z M 200.042969 170.78125 " fill-opacity="1" fill-rule="nonzero"/><path fill="#2b2b2b" d="M 207.253906 173.273438 C 207.285156 173.117188 207.28125 172.957031 207.230469 172.808594 C 207.179688 172.660156 207.089844 172.527344 206.96875 172.425781 C 206.910156 172.375 206.84375 172.335938 206.773438 172.300781 C 206.738281 172.289062 206.703125 172.269531 206.664062 172.261719 L 206.605469 172.246094 L 206.542969 172.230469 L 206.007812 172.109375 L 199.597656 170.679688 L 198.53125 170.441406 L 198.398438 170.414062 C 198.359375 170.410156 198.320312 170.398438 198.28125 170.398438 C 198.203125 170.386719 198.125 170.398438 198.046875 170.410156 C 197.972656 170.425781 197.898438 170.449219 197.828125 170.484375 C 197.757812 170.519531 197.691406 170.5625 197.632812 170.613281 C 197.578125 170.667969 197.523438 170.726562 197.484375 170.792969 C 197.441406 170.859375 197.410156 170.929688 197.386719 171.003906 L 197.371094 171.0625 L 197.324219 171.261719 L 197.265625 171.527344 L 197.027344 172.597656 L 196.539062 174.730469 L 196.296875 175.796875 L 196.046875 176.863281 L 195.984375 176.734375 C 196.375 176.925781 196.769531 177.097656 197.175781 177.253906 C 197.582031 177.40625 197.992188 177.550781 198.410156 177.675781 C 198.824219 177.804688 199.242188 177.921875 199.664062 178.03125 C 200.085938 178.136719 200.511719 178.234375 200.9375 178.316406 L 200.945312 178.316406 C 201.363281 178.421875 201.789062 178.515625 202.21875 178.597656 C 202.644531 178.679688 203.074219 178.753906 203.503906 178.8125 C 203.933594 178.875 204.367188 178.917969 204.800781 178.953125 C 205.230469 178.984375 205.664062 178.996094 206.097656 178.992188 L 205.988281 179.082031 L 206.300781 177.628906 L 206.617188 176.175781 Z M 207.535156 173.335938 L 206.550781 177.683594 L 206.214844 179.128906 L 206.191406 179.21875 L 206.105469 179.21875 C 205.664062 179.226562 205.222656 179.214844 204.785156 179.183594 C 204.34375 179.148438 203.90625 179.101562 203.472656 179.039062 C 203.039062 178.980469 202.605469 178.90625 202.171875 178.824219 C 201.742188 178.738281 201.316406 178.648438 200.886719 178.539062 L 200.894531 178.539062 C 200.460938 178.457031 200.035156 178.359375 199.609375 178.25 C 199.183594 178.144531 198.761719 178.023438 198.339844 177.894531 C 197.921875 177.765625 197.507812 177.621094 197.09375 177.46875 C 196.683594 177.308594 196.28125 177.132812 195.882812 176.941406 L 195.800781 176.902344 L 195.820312 176.8125 L 196.046875 175.742188 L 196.28125 174.671875 L 196.746094 172.535156 L 196.984375 171.464844 L 197.042969 171.199219 L 197.074219 171.0625 L 197.089844 170.996094 L 197.109375 170.921875 C 197.140625 170.820312 197.179688 170.726562 197.238281 170.636719 C 197.292969 170.546875 197.363281 170.46875 197.441406 170.398438 C 197.515625 170.328125 197.605469 170.273438 197.699219 170.222656 C 197.792969 170.179688 197.890625 170.144531 197.992188 170.125 C 198.09375 170.109375 198.199219 170.097656 198.304688 170.109375 C 198.355469 170.109375 198.40625 170.125 198.460938 170.132812 L 198.59375 170.160156 L 199.660156 170.398438 L 206.070312 171.828125 L 206.605469 171.949219 L 206.671875 171.964844 L 206.746094 171.984375 C 206.796875 171.996094 206.84375 172.019531 206.894531 172.039062 C 206.988281 172.082031 207.078125 172.140625 207.15625 172.207031 C 207.316406 172.34375 207.4375 172.519531 207.503906 172.71875 C 207.574219 172.914062 207.578125 173.132812 207.535156 173.335938 Z M 207.535156 173.335938 " fill-opacity="1" fill-rule="nonzero"/><path fill="#2b2b2b" d="M 195.253906 182.683594 C 194.148438 179.453125 191.695312 179.070312 191.59375 179.054688 L 191.65625 178.601562 C 191.769531 178.617188 194.488281 179.027344 195.6875 182.535156 Z M 195.253906 182.683594 " fill-opacity="1" fill-rule="nonzero"/><path fill="#2b2b2b" d="M 203.492188 183.71875 L 203.167969 183.398438 C 203.25 183.316406 205.207031 181.386719 208.734375 182.535156 L 208.59375 182.96875 C 205.347656 181.914062 203.566406 183.644531 203.492188 183.71875 Z M 203.492188 183.71875 " fill-opacity="1" fill-rule="nonzero"/><g clip-path="url(#520b20f36b)"><path fill="#ff89a9" d="M 192.640625 185.675781 C 191.839844 186.539062 190.566406 186.089844 189.277344 184.902344 C 189.113281 184.75 188.957031 184.59375 188.808594 184.433594 C 188.140625 183.703125 187.683594 182.914062 187.664062 182.25 C 187.652344 181.917969 187.75 181.621094 187.976562 181.371094 C 188.414062 180.898438 189.121094 180.761719 189.878906 180.929688 C 190.507812 181.070312 191.171875 181.417969 191.753906 181.957031 C 191.925781 182.113281 192.082031 182.28125 192.21875 182.453125 C 193.125 183.574219 193.332031 184.925781 192.640625 185.675781 Z M 192.640625 185.675781 " fill-opacity="1" fill-rule="nonzero"/></g><g clip-path="url(#bb520497a0)"><path fill="#f6f4f1" d="M 189.878906 180.929688 C 189.792969 180.949219 188.160156 181.332031 187.664062 182.25 C 187.652344 181.917969 187.75 181.621094 187.976562 181.371094 C 188.414062 180.898438 189.121094 180.761719 189.878906 180.929688 Z M 189.878906 180.929688 " fill-opacity="1" fill-rule="nonzero"/></g><path fill="#ff89a9" d="M 192.640625 185.675781 C 191.839844 186.539062 190.566406 186.089844 189.277344 184.902344 C 189.113281 184.75 188.957031 184.59375 188.808594 184.433594 C 189.488281 184.824219 190.25 184.902344 190.6875 185.035156 C 191.996094 185.425781 192.21875 182.453125 192.21875 182.453125 C 193.125 183.574219 193.332031 184.925781 192.640625 185.675781 Z M 192.640625 185.675781 " fill-opacity="1" fill-rule="nonzero"/><g clip-path="url(#6fc86bf985)"><path fill="#2b2b2b" d="M 192.476562 185.523438 C 192.675781 185.316406 192.800781 185.035156 192.835938 184.730469 C 192.875 184.425781 192.835938 184.105469 192.75 183.796875 C 192.570312 183.175781 192.203125 182.601562 191.734375 182.132812 C 191.269531 181.664062 190.695312 181.289062 190.058594 181.097656 C 189.746094 181.003906 189.414062 180.957031 189.089844 180.988281 C 188.769531 181.015625 188.457031 181.121094 188.210938 181.320312 C 188.09375 181.421875 187.988281 181.539062 187.917969 181.675781 C 187.84375 181.808594 187.8125 181.957031 187.800781 182.113281 C 187.785156 182.421875 187.882812 182.738281 188.019531 183.03125 C 188.160156 183.324219 188.34375 183.601562 188.550781 183.859375 C 188.757812 184.117188 188.988281 184.363281 189.230469 184.589844 C 189.472656 184.820312 189.730469 185.035156 189.996094 185.226562 C 190.265625 185.417969 190.546875 185.589844 190.839844 185.710938 C 191.132812 185.832031 191.4375 185.902344 191.722656 185.886719 C 192.011719 185.863281 192.269531 185.738281 192.476562 185.523438 Z M 192.804688 185.828125 L 192.699219 185.929688 C 192.664062 185.964844 192.628906 186 192.589844 186.027344 C 192.507812 186.085938 192.429688 186.148438 192.335938 186.1875 C 192.292969 186.210938 192.25 186.238281 192.199219 186.253906 L 192.058594 186.300781 C 192.011719 186.320312 191.960938 186.324219 191.910156 186.335938 C 191.863281 186.339844 191.8125 186.355469 191.761719 186.355469 C 191.363281 186.382812 190.992188 186.277344 190.660156 186.128906 C 190.328125 185.976562 190.027344 185.78125 189.746094 185.566406 C 189.464844 185.351562 189.203125 185.117188 188.960938 184.867188 C 188.472656 184.367188 188.03125 183.808594 187.742188 183.15625 C 187.601562 182.828125 187.5 182.46875 187.53125 182.09375 C 187.546875 181.90625 187.601562 181.71875 187.695312 181.550781 C 187.785156 181.386719 187.914062 181.246094 188.058594 181.128906 C 188.351562 180.902344 188.714844 180.78125 189.070312 180.753906 C 189.429688 180.726562 189.785156 180.777344 190.125 180.875 C 190.804688 181.078125 191.414062 181.457031 191.929688 181.929688 C 192.1875 182.171875 192.417969 182.441406 192.621094 182.730469 C 192.820312 183.023438 192.984375 183.34375 193.101562 183.6875 C 193.214844 184.027344 193.277344 184.398438 193.242188 184.773438 C 193.214844 185.148438 193.066406 185.53125 192.804688 185.828125 Z M 192.804688 185.828125 " fill-opacity="1" fill-rule="nonzero"/></g><g clip-path="url(#d76e0f24bf)"><path fill="#ff89a9" d="M 210.453125 187.585938 C 210.082031 188.210938 209.171875 188.640625 207.976562 188.859375 C 206.253906 189.175781 204.585938 188.941406 204.375 187.78125 C 204.226562 186.976562 204.769531 186.15625 205.691406 185.625 C 206.101562 185.386719 206.582031 185.207031 207.109375 185.113281 C 208.832031 184.796875 210.398438 185.476562 210.613281 186.632812 C 210.675781 186.988281 210.617188 187.308594 210.453125 187.585938 Z M 210.453125 187.585938 " fill-opacity="1" fill-rule="nonzero"/><path fill="#ff89a9" d="M 210.453125 187.585938 C 210.082031 188.210938 209.171875 188.640625 207.976562 188.859375 C 206.253906 189.175781 204.585938 188.941406 204.375 187.78125 C 204.226562 186.976562 204.769531 186.15625 205.691406 185.625 C 205.675781 185.671875 204.996094 187.671875 207.332031 187.964844 C 208.707031 188.136719 209.789062 187.851562 210.453125 187.585938 Z M 210.453125 187.585938 " fill-opacity="1" fill-rule="nonzero"/></g><g clip-path="url(#2cb7e08fcd)"><path fill="#2b2b2b" d="M 210.460938 186.664062 C 210.410156 186.359375 210.253906 186.078125 210.019531 185.859375 C 209.792969 185.636719 209.503906 185.472656 209.195312 185.359375 C 208.578125 185.128906 207.886719 185.101562 207.234375 185.214844 C 206.578125 185.328125 205.941406 185.578125 205.421875 185.980469 C 205.167969 186.179688 204.9375 186.417969 204.777344 186.6875 C 204.613281 186.957031 204.519531 187.261719 204.535156 187.5625 C 204.542969 187.710938 204.578125 187.855469 204.640625 187.984375 C 204.699219 188.113281 204.792969 188.222656 204.902344 188.316406 C 205.125 188.503906 205.425781 188.617188 205.738281 188.683594 C 206.050781 188.75 206.378906 188.773438 206.707031 188.769531 C 207.035156 188.761719 207.367188 188.734375 207.695312 188.683594 C 208.351562 188.582031 209.007812 188.433594 209.578125 188.128906 C 209.859375 187.976562 210.117188 187.777344 210.285156 187.527344 C 210.453125 187.277344 210.511719 186.96875 210.460938 186.664062 Z M 210.761719 186.609375 L 210.78125 186.746094 C 210.785156 186.792969 210.796875 186.839844 210.792969 186.886719 C 210.792969 186.984375 210.792969 187.078125 210.773438 187.171875 C 210.746094 187.363281 210.667969 187.542969 210.574219 187.710938 C 210.371094 188.035156 210.078125 188.273438 209.769531 188.460938 C 209.457031 188.644531 209.125 188.777344 208.789062 188.882812 C 208.449219 188.988281 208.109375 189.066406 207.761719 189.121094 C 207.070312 189.226562 206.355469 189.257812 205.644531 189.101562 C 205.46875 189.0625 205.289062 189.003906 205.121094 188.929688 C 204.949219 188.851562 204.78125 188.753906 204.636719 188.621094 C 204.492188 188.492188 204.363281 188.328125 204.285156 188.144531 C 204.207031 187.960938 204.171875 187.765625 204.164062 187.574219 C 204.160156 187.1875 204.289062 186.816406 204.492188 186.511719 C 204.691406 186.203125 204.957031 185.949219 205.246094 185.738281 C 205.824219 185.324219 206.503906 185.078125 207.195312 184.972656 C 207.886719 184.871094 208.605469 184.90625 209.277344 185.132812 C 209.609375 185.25 209.933594 185.417969 210.207031 185.660156 C 210.480469 185.902344 210.6875 186.234375 210.761719 186.609375 Z M 210.761719 186.609375 " fill-opacity="1" fill-rule="nonzero"/></g><path fill="#2b2b2b" d="M 213 169.839844 C 210.984375 168.695312 211.765625 166.078125 211.773438 166.050781 L 212.0625 166.140625 C 212.035156 166.238281 211.347656 168.550781 213.148438 169.578125 Z M 213 169.839844 " fill-opacity="1" fill-rule="nonzero"/><path fill="#2b2b2b" d="M 194.160156 165.402344 L 194.121094 165.101562 C 195.878906 164.882812 196.726562 162.554688 196.734375 162.53125 L 197.019531 162.632812 C 196.984375 162.738281 196.105469 165.164062 194.160156 165.402344 Z M 194.160156 165.402344 " fill-opacity="1" fill-rule="nonzero"/><path fill="#ff89a9" d="M 200.042969 172.675781 C 200.042969 173.285156 199.546875 173.785156 198.933594 173.785156 C 198.824219 173.785156 198.714844 173.765625 198.613281 173.738281 C 198.15625 173.601562 197.824219 173.175781 197.824219 172.675781 C 197.824219 172.117188 198.234375 171.65625 198.769531 171.578125 C 198.824219 171.570312 198.878906 171.566406 198.933594 171.566406 C 199.546875 171.566406 200.042969 172.0625 200.042969 172.675781 Z M 200.042969 172.675781 " fill-opacity="1" fill-rule="nonzero"/><path fill="#ff89a9" d="M 200.042969 172.675781 C 200.042969 173.285156 199.546875 173.785156 198.933594 173.785156 C 198.824219 173.785156 198.714844 173.765625 198.613281 173.738281 C 199.449219 172.957031 199.007812 171.972656 198.769531 171.578125 C 198.824219 171.570312 198.878906 171.566406 198.933594 171.566406 C 199.546875 171.566406 200.042969 172.0625 200.042969 172.675781 Z M 200.042969 172.675781 " fill-opacity="1" fill-rule="nonzero"/><path fill="#2b2b2b" d="M 198.933594 171.679688 C 198.386719 171.679688 197.941406 172.125 197.941406 172.675781 C 197.941406 173.222656 198.386719 173.667969 198.933594 173.667969 C 199.480469 173.667969 199.929688 173.222656 199.929688 172.675781 C 199.929688 172.125 199.480469 171.679688 198.933594 171.679688 Z M 198.933594 173.898438 C 198.257812 173.898438 197.710938 173.347656 197.710938 172.675781 C 197.710938 172 198.257812 171.449219 198.933594 171.449219 C 199.609375 171.449219 200.15625 172 200.15625 172.675781 C 200.15625 173.347656 199.609375 173.898438 198.933594 173.898438 Z M 198.933594 173.898438 " fill-opacity="1" fill-rule="nonzero"/><path fill="#ff89a9" d="M 195.507812 154.5625 L 196.464844 150.042969 L 196.988281 150.125 L 196.390625 154.164062 Z M 195.507812 154.5625 " fill-opacity="1" fill-rule="nonzero"/><path fill="#2b2b2b" d="M 196.554688 150.171875 L 195.667969 154.363281 L 196.285156 154.085938 L 196.859375 150.222656 Z M 195.347656 154.761719 L 196.375 149.914062 L 197.121094 150.03125 L 196.492188 154.246094 Z M 195.347656 154.761719 " fill-opacity="1" fill-rule="nonzero"/><path fill="#ff89a9" d="M 196.359375 161.550781 C 196.359375 161.550781 196.234375 161.503906 196.050781 161.425781 C 195.667969 161.257812 195.039062 160.953125 194.714844 160.613281 C 194.226562 160.105469 194.484375 156.054688 194.699219 155.347656 C 194.824219 154.933594 195.597656 154.476562 196.214844 154.167969 C 196.660156 153.949219 197.023438 153.804688 197.023438 153.804688 Z M 196.359375 161.550781 " fill-opacity="1" fill-rule="nonzero"/><path fill="#ff89a9" d="M 196.359375 161.550781 C 196.359375 161.550781 196.234375 161.503906 196.050781 161.425781 C 194.328125 159.394531 195.953125 154.464844 195.953125 154.464844 L 196.214844 154.167969 C 196.65625 153.949219 197.023438 153.804688 197.023438 153.804688 Z M 196.359375 161.550781 " fill-opacity="1" fill-rule="nonzero"/><path fill="#2b2b2b" d="M 197.066406 153.910156 C 196.6875 154.078125 196.3125 154.261719 195.953125 154.464844 C 195.773438 154.570312 195.601562 154.679688 195.433594 154.792969 C 195.269531 154.910156 195.109375 155.035156 194.988281 155.175781 C 194.929688 155.246094 194.878906 155.324219 194.859375 155.390625 C 194.835938 155.46875 194.816406 155.574219 194.800781 155.671875 C 194.769531 155.875 194.75 156.082031 194.730469 156.289062 C 194.691406 156.703125 194.664062 157.117188 194.648438 157.535156 C 194.628906 157.949219 194.617188 158.367188 194.625 158.78125 C 194.628906 159.195312 194.644531 159.613281 194.699219 160.011719 C 194.707031 160.058594 194.714844 160.109375 194.726562 160.15625 L 194.738281 160.230469 L 194.757812 160.296875 C 194.761719 160.320312 194.769531 160.339844 194.777344 160.359375 C 194.785156 160.378906 194.792969 160.40625 194.800781 160.417969 C 194.808594 160.433594 194.816406 160.457031 194.824219 160.464844 C 194.828125 160.472656 194.832031 160.476562 194.835938 160.480469 L 194.839844 160.488281 L 194.851562 160.503906 C 194.980469 160.636719 195.144531 160.753906 195.3125 160.867188 C 195.652344 161.085938 196.027344 161.273438 196.402344 161.445312 L 196.320312 161.660156 C 196.113281 161.59375 195.917969 161.515625 195.722656 161.429688 C 195.523438 161.34375 195.332031 161.25 195.144531 161.140625 C 194.957031 161.03125 194.773438 160.910156 194.601562 160.746094 L 194.585938 160.730469 L 194.566406 160.707031 L 194.53125 160.660156 C 194.507812 160.628906 194.496094 160.601562 194.480469 160.570312 C 194.460938 160.539062 194.457031 160.511719 194.445312 160.484375 C 194.433594 160.453125 194.421875 160.425781 194.414062 160.398438 L 194.390625 160.3125 L 194.371094 160.230469 C 194.359375 160.175781 194.351562 160.121094 194.339844 160.066406 C 194.304688 159.851562 194.285156 159.636719 194.273438 159.421875 C 194.257812 159.210938 194.253906 158.996094 194.25 158.785156 C 194.246094 158.359375 194.257812 157.9375 194.28125 157.515625 C 194.300781 157.09375 194.335938 156.671875 194.378906 156.25 C 194.40625 156.039062 194.433594 155.828125 194.46875 155.617188 C 194.492188 155.507812 194.507812 155.40625 194.546875 155.285156 C 194.59375 155.152344 194.667969 155.054688 194.746094 154.964844 C 194.902344 154.792969 195.082031 154.660156 195.261719 154.539062 C 195.441406 154.417969 195.628906 154.3125 195.816406 154.214844 C 196.195312 154.019531 196.582031 153.847656 196.980469 153.695312 Z M 197.066406 153.910156 " fill-opacity="1" fill-rule="nonzero"/><path fill="#ff89a9" d="M 216.824219 158.445312 L 217.523438 153.878906 L 217 153.769531 L 216.136719 157.761719 Z M 216.824219 158.445312 " fill-opacity="1" fill-rule="nonzero"/><path fill="#2b2b2b" d="M 216.265625 157.726562 L 216.746094 158.203125 L 217.390625 153.96875 L 217.089844 153.90625 Z M 216.902344 158.6875 L 216.011719 157.800781 L 216.914062 153.636719 L 217.652344 153.789062 Z M 216.902344 158.6875 " fill-opacity="1" fill-rule="nonzero"/><path fill="#ff89a9" d="M 215.433594 164.386719 C 215.171875 164.511719 214.800781 164.585938 214.457031 164.628906 C 213.980469 164.683594 213.5625 164.683594 213.5625 164.683594 L 215.671875 157.203125 C 215.671875 157.203125 216.035156 157.53125 216.417969 157.957031 C 216.859375 158.449219 217.328125 159.066406 217.300781 159.464844 C 217.253906 160.203125 216.066406 164.082031 215.433594 164.386719 Z M 215.433594 164.386719 " fill-opacity="1" fill-rule="nonzero"/><path fill="#ff89a9" d="M 214.457031 164.628906 C 213.980469 164.683594 213.5625 164.683594 213.5625 164.683594 L 215.671875 157.203125 C 215.671875 157.203125 216.035156 157.53125 216.417969 157.957031 C 216.386719 158.773438 216.152344 162.339844 214.457031 164.628906 Z M 214.457031 164.628906 " fill-opacity="1" fill-rule="nonzero"/><path fill="#2b2b2b" d="M 213.5625 164.800781 L 213.5625 164.570312 C 213.574219 164.570312 214.785156 164.570312 215.382812 164.28125 C 215.921875 164.023438 217.136719 160.285156 217.1875 159.457031 C 217.222656 158.894531 216.050781 157.699219 215.59375 157.285156 L 215.75 157.117188 C 215.925781 157.273438 217.464844 158.699219 217.417969 159.472656 C 217.371094 160.1875 216.1875 164.152344 215.484375 164.488281 C 214.835938 164.800781 213.613281 164.800781 213.5625 164.800781 Z M 213.5625 164.800781 " fill-opacity="1" fill-rule="nonzero"/><g clip-path="url(#1d43fa8704)"><path fill="#ff89a9" d="M 213.5625 164.675781 C 213.476562 164.777344 213.390625 164.871094 213.296875 164.96875 C 213.09375 165.179688 212.875 165.378906 212.644531 165.566406 C 212.152344 165.960938 211.609375 166.304688 211.007812 166.582031 C 209.210938 167.421875 206.921875 167.714844 204.195312 167.328125 C 201.503906 166.726562 199.464844 165.648438 198.082031 164.230469 C 197.617188 163.753906 197.226562 163.242188 196.90625 162.699219 C 196.886719 162.664062 196.863281 162.625 196.84375 162.589844 C 195.238281 159.734375 195.671875 156.011719 197.738281 152.070312 C 198.347656 150.914062 199.175781 150.035156 200.152344 149.394531 C 202.273438 148.003906 205.066406 147.746094 207.675781 148.207031 C 209.832031 148.613281 211.933594 149.519531 213.441406 150.988281 C 214.589844 152.101562 215.394531 153.542969 215.613281 155.328125 C 215.695312 156 215.746094 156.652344 215.757812 157.285156 C 215.832031 160.320312 215.121094 162.882812 213.5625 164.675781 Z M 213.5625 164.675781 " fill-opacity="1" fill-rule="nonzero"/></g><g clip-path="url(#f8a256445b)"><path fill="#f6f4f1" d="M 213.441406 150.988281 C 212.285156 150.269531 210.382812 149.382812 207.355469 148.851562 C 204.460938 148.339844 201.894531 148.835938 200.152344 149.394531 C 202.273438 148.003906 205.066406 147.746094 207.675781 148.207031 C 209.832031 148.613281 211.933594 149.519531 213.441406 150.988281 Z M 213.441406 150.988281 " fill-opacity="1" fill-rule="nonzero"/></g><path fill="#ff89a9" d="M 213.296875 164.96875 C 213.09375 165.179688 212.875 165.378906 212.644531 165.566406 C 212.152344 165.960938 211.609375 166.304688 211.007812 166.582031 C 209.210938 167.421875 206.921875 167.714844 204.195312 167.328125 C 201.503906 166.726562 199.464844 165.648438 198.082031 164.230469 C 197.617188 163.753906 197.226562 163.242188 196.90625 162.699219 C 196.886719 162.664062 196.863281 162.625 196.84375 162.589844 C 196.484375 161.078125 196.308594 158.238281 197.792969 155.394531 C 200.257812 150.664062 202.691406 149.871094 207.230469 150.699219 C 211.355469 151.449219 215.007812 154.378906 214.253906 160.878906 C 214.066406 162.488281 213.71875 163.84375 213.296875 164.96875 Z M 213.296875 164.96875 " fill-opacity="1" fill-rule="nonzero"/><g clip-path="url(#38c9ba8325)"><path fill="#2b2b2b" d="M 213.4375 164.566406 C 214.136719 163.75 214.648438 162.78125 214.988281 161.757812 C 215.160156 161.246094 215.285156 160.71875 215.375 160.183594 C 215.46875 159.652344 215.527344 159.113281 215.554688 158.570312 C 215.609375 157.484375 215.554688 156.394531 215.414062 155.316406 C 215.277344 154.253906 214.90625 153.222656 214.3125 152.335938 C 214.015625 151.890625 213.667969 151.476562 213.28125 151.105469 C 212.898438 150.730469 212.472656 150.398438 212.023438 150.101562 C 211.125 149.507812 210.125 149.070312 209.089844 148.75 C 208.570312 148.59375 208.042969 148.46875 207.511719 148.375 C 206.976562 148.285156 206.4375 148.226562 205.894531 148.199219 C 204.816406 148.152344 203.726562 148.238281 202.679688 148.503906 C 202.160156 148.636719 201.648438 148.816406 201.164062 149.042969 C 200.675781 149.269531 200.21875 149.550781 199.792969 149.878906 C 199.371094 150.207031 198.984375 150.582031 198.652344 151 C 198.316406 151.421875 198.03125 151.875 197.792969 152.363281 C 197.292969 153.332031 196.871094 154.339844 196.5625 155.378906 L 196.445312 155.769531 L 196.351562 156.167969 L 196.304688 156.363281 L 196.28125 156.464844 L 196.261719 156.5625 L 196.1875 156.964844 C 196.175781 157.03125 196.164062 157.097656 196.152344 157.164062 L 196.128906 157.363281 L 196.082031 157.769531 C 196.066406 157.902344 196.066406 158.039062 196.054688 158.171875 L 196.042969 158.375 L 196.039062 158.476562 L 196.039062 158.578125 C 196.042969 158.847656 196.035156 159.117188 196.066406 159.386719 C 196.078125 159.519531 196.085938 159.65625 196.101562 159.789062 C 196.125 159.921875 196.144531 160.054688 196.160156 160.1875 C 196.171875 160.253906 196.179688 160.324219 196.191406 160.386719 L 196.234375 160.585938 C 196.265625 160.71875 196.289062 160.851562 196.324219 160.980469 L 196.441406 161.367188 C 196.460938 161.433594 196.476562 161.496094 196.5 161.5625 L 196.578125 161.75 C 196.628906 161.875 196.675781 162 196.734375 162.121094 L 196.921875 162.480469 C 196.953125 162.542969 196.984375 162.601562 197.019531 162.660156 C 197.054688 162.71875 197.089844 162.777344 197.125 162.832031 C 197.195312 162.949219 197.273438 163.0625 197.351562 163.171875 C 197.664062 163.613281 198.023438 164.023438 198.417969 164.390625 C 199.210938 165.132812 200.140625 165.71875 201.125 166.175781 C 202.113281 166.636719 203.160156 166.957031 204.222656 167.199219 L 204.214844 167.195312 C 205.046875 167.308594 205.886719 167.371094 206.722656 167.351562 C 207.144531 167.347656 207.5625 167.3125 207.976562 167.265625 C 208.390625 167.214844 208.804688 167.140625 209.210938 167.042969 C 209.617188 166.949219 210.011719 166.820312 210.402344 166.671875 C 210.789062 166.519531 211.167969 166.34375 211.527344 166.136719 C 212.246094 165.722656 212.898438 165.195312 213.4375 164.566406 Z M 213.691406 164.789062 C 213.121094 165.441406 212.433594 165.988281 211.683594 166.414062 C 211.308594 166.628906 210.914062 166.808594 210.511719 166.960938 C 210.109375 167.113281 209.699219 167.242188 209.277344 167.335938 C 208.859375 167.433594 208.4375 167.507812 208.011719 167.554688 C 207.585938 167.601562 207.15625 167.632812 206.730469 167.636719 C 205.875 167.648438 205.019531 167.578125 204.175781 167.460938 L 204.171875 167.460938 L 204.164062 167.457031 C 203.085938 167.210938 202.023438 166.878906 201.019531 166.40625 C 200.015625 165.9375 199.0625 165.332031 198.253906 164.566406 C 197.847656 164.183594 197.480469 163.761719 197.160156 163.304688 C 197.078125 163.191406 197 163.074219 196.929688 162.957031 C 196.890625 162.894531 196.855469 162.835938 196.820312 162.777344 C 196.785156 162.714844 196.753906 162.652344 196.722656 162.59375 L 196.523438 162.222656 C 196.464844 162.097656 196.410156 161.96875 196.355469 161.839844 L 196.269531 161.648438 C 196.242188 161.585938 196.21875 161.519531 196.195312 161.453125 L 196.054688 161.058594 C 196.015625 160.921875 195.980469 160.789062 195.945312 160.652344 L 195.890625 160.449219 C 195.871094 160.382812 195.863281 160.3125 195.851562 160.242188 C 195.824219 160.105469 195.800781 159.96875 195.78125 159.828125 C 195.761719 159.691406 195.753906 159.550781 195.738281 159.410156 C 195.707031 159.132812 195.714844 158.851562 195.707031 158.574219 L 195.707031 158.46875 L 195.710938 158.363281 L 195.722656 158.15625 C 195.730469 158.015625 195.734375 157.875 195.75 157.738281 L 195.796875 157.320312 L 195.820312 157.113281 C 195.832031 157.046875 195.84375 156.976562 195.855469 156.910156 L 195.929688 156.496094 L 195.949219 156.394531 L 196.019531 156.089844 L 196.117188 155.683594 L 196.234375 155.28125 C 196.546875 154.214844 196.976562 153.1875 197.476562 152.203125 C 197.964844 151.199219 198.675781 150.277344 199.570312 149.589844 C 200.015625 149.246094 200.496094 148.949219 201.003906 148.710938 C 201.515625 148.46875 202.046875 148.28125 202.589844 148.140625 C 203.675781 147.863281 204.800781 147.773438 205.914062 147.824219 C 206.46875 147.847656 207.023438 147.910156 207.574219 148 C 208.125 148.09375 208.667969 148.222656 209.199219 148.386719 C 210.265625 148.710938 211.300781 149.160156 212.234375 149.78125 C 212.703125 150.089844 213.148438 150.433594 213.554688 150.824219 C 213.957031 151.214844 214.324219 151.648438 214.636719 152.117188 C 215.265625 153.054688 215.660156 154.148438 215.800781 155.265625 C 215.941406 156.367188 215.988281 157.480469 215.925781 158.589844 C 215.898438 159.144531 215.832031 159.699219 215.734375 160.25 C 215.636719 160.796875 215.507812 161.339844 215.324219 161.871094 C 214.96875 162.929688 214.429688 163.9375 213.691406 164.789062 Z M 213.691406 164.789062 " fill-opacity="1" fill-rule="nonzero"/></g><path fill="#2b2b2b" d="M 213.941406 161.675781 C 213.578125 163.683594 212.5 165.386719 211.007812 166.585938 C 209.210938 167.421875 206.921875 167.714844 204.195312 167.328125 C 201.503906 166.730469 199.46875 165.648438 198.082031 164.230469 C 197.105469 162.582031 196.699219 160.609375 197.0625 158.605469 C 197.886719 154.078125 202.335938 151.101562 206.996094 151.949219 C 211.65625 152.796875 214.765625 157.152344 213.941406 161.675781 Z M 213.941406 161.675781 " fill-opacity="1" fill-rule="nonzero"/><path fill="#f6f4f1" d="M 198.238281 160.140625 C 197.96875 160.160156 198.246094 162.277344 199.535156 163.917969 C 200.988281 165.769531 203.542969 166.285156 203.636719 165.949219 C 203.773438 165.460938 201.914062 165.394531 200.246094 163.765625 C 198.824219 162.382812 198.535156 160.117188 198.238281 160.140625 Z M 198.238281 160.140625 " fill-opacity="1" fill-rule="nonzero"/><path fill="#f6f4f1" d="M 212.863281 158.824219 C 213.054688 158.785156 213.046875 157.996094 212.730469 157.179688 C 212.394531 156.316406 211.632812 155.699219 211.472656 155.800781 C 211.363281 155.871094 211.535156 156.109375 211.964844 156.980469 C 212.570312 158.199219 212.6875 158.855469 212.863281 158.824219 Z M 212.863281 158.824219 " fill-opacity="1" fill-rule="nonzero"/><path fill="#f6f4f1" d="M 211.125 155.175781 C 210.996094 154.921875 210.546875 154.882812 210.472656 155 C 210.429688 155.0625 210.496094 155.171875 210.523438 155.214844 C 210.667969 155.449219 211.011719 155.570312 211.121094 155.464844 C 211.191406 155.402344 211.164062 155.261719 211.125 155.175781 Z M 211.125 155.175781 " fill-opacity="1" fill-rule="nonzero"/></svg>